M48
;GenerationSoftware,Autodesk,EAGLE,9.6.0*%
;CreationDate,2025-03-17T21:57:03Z*%
FMAT,2
ICI,OFF
METRIC,TZ,000.000
T5C0.350
T4C0.813
T3C1.016
T2C3.000
T1C4.550
%
G90
M71
T1
X11160Y37370
X11160Y44570
X76400Y46000
X83600Y46000
X76400Y30000
X83600Y30000
X76400Y14000
X83600Y14000
X11120Y20780
X11120Y13580
T2
X5000Y56000
X5000Y4000
X90000Y4000
X90000Y56000
T3
X25520Y19820
X30600Y19820
T4
X29460Y39000
X34540Y39000
X28460Y29000
X33540Y29000
T5
X46500Y7000
X46000Y53000
X70000Y53000
X70000Y7000
X48000Y46000
X48000Y34000
X48000Y23000
M30