G04 EAGLE Gerber RS-274X export*
G75*
%MOMM*%
%FSLAX34Y34*%
%LPD*%
%INSoldermask Top*%
%IPPOS*%
%AMOC8*
5,1,8,0,0,1.08239X$1,22.5*%
G01*
%ADD10C,3.203200*%
%ADD11C,1.727200*%
%ADD12R,6.203200X6.203200*%
%ADD13C,6.203200*%
%ADD14R,1.803200X2.006200*%
%ADD15R,2.387600X1.854200*%
%ADD16C,1.981200*%
%ADD17C,0.959600*%


D10*
X50000Y560000D03*
X50000Y40000D03*
X900000Y40000D03*
X900000Y560000D03*
D11*
X255200Y205820D02*
X255200Y190580D01*
X306000Y190580D02*
X306000Y205820D01*
D12*
X111600Y373700D03*
D13*
X111600Y445700D03*
D12*
X764000Y460000D03*
D13*
X836000Y460000D03*
D12*
X764000Y300000D03*
D13*
X836000Y300000D03*
D12*
X764000Y140000D03*
D13*
X836000Y140000D03*
D12*
X111200Y207800D03*
D13*
X111200Y135800D03*
D14*
X647480Y405500D03*
X675920Y405500D03*
X643980Y285500D03*
X672420Y285500D03*
X640480Y145500D03*
X668920Y145500D03*
X547550Y405852D03*
X519110Y405852D03*
X548112Y285199D03*
X519672Y285199D03*
X552462Y145597D03*
X524022Y145597D03*
D15*
X407982Y390000D03*
X442018Y390000D03*
X407982Y290000D03*
X442018Y290000D03*
X407982Y175000D03*
X442018Y175000D03*
D16*
X294600Y381110D02*
X294600Y398890D01*
X345400Y398890D02*
X345400Y381110D01*
X284600Y298890D02*
X284600Y281110D01*
X335400Y281110D02*
X335400Y298890D01*
D17*
X465000Y70000D03*
X460000Y530000D03*
X700000Y530000D03*
X700000Y70000D03*
X480000Y460000D03*
X480000Y340000D03*
X480000Y230000D03*
M02*
