G04 EAGLE Gerber RS-274X export*
G75*
%MOMM*%
%FSLAX34Y34*%
%LPD*%
%IN*%
%IPPOS*%
%AMOC8*
5,1,8,0,0,1.08239X$1,22.5*%
G01*
%ADD10C,0.254000*%


D10*
X0Y0D02*
X950000Y0D01*
X950000Y610000D01*
X0Y610000D01*
X0Y0D01*
X65000Y559464D02*
X64924Y558396D01*
X64771Y557335D01*
X64543Y556288D01*
X64241Y555260D01*
X63867Y554256D01*
X63422Y553281D01*
X62908Y552341D01*
X62329Y551440D01*
X61687Y550582D01*
X60985Y549772D01*
X60228Y549015D01*
X59418Y548313D01*
X58560Y547671D01*
X57659Y547092D01*
X56719Y546578D01*
X55744Y546133D01*
X54740Y545759D01*
X53712Y545457D01*
X52665Y545229D01*
X51604Y545076D01*
X50536Y545000D01*
X49464Y545000D01*
X48396Y545076D01*
X47335Y545229D01*
X46288Y545457D01*
X45260Y545759D01*
X44256Y546133D01*
X43281Y546578D01*
X42341Y547092D01*
X41440Y547671D01*
X40582Y548313D01*
X39772Y549015D01*
X39015Y549772D01*
X38313Y550582D01*
X37671Y551440D01*
X37092Y552341D01*
X36578Y553281D01*
X36133Y554256D01*
X35759Y555260D01*
X35457Y556288D01*
X35229Y557335D01*
X35076Y558396D01*
X35000Y559464D01*
X35000Y560536D01*
X35076Y561604D01*
X35229Y562665D01*
X35457Y563712D01*
X35759Y564740D01*
X36133Y565744D01*
X36578Y566719D01*
X37092Y567659D01*
X37671Y568560D01*
X38313Y569418D01*
X39015Y570228D01*
X39772Y570985D01*
X40582Y571687D01*
X41440Y572329D01*
X42341Y572908D01*
X43281Y573422D01*
X44256Y573867D01*
X45260Y574241D01*
X46288Y574543D01*
X47335Y574771D01*
X48396Y574924D01*
X49464Y575000D01*
X50536Y575000D01*
X51604Y574924D01*
X52665Y574771D01*
X53712Y574543D01*
X54740Y574241D01*
X55744Y573867D01*
X56719Y573422D01*
X57659Y572908D01*
X58560Y572329D01*
X59418Y571687D01*
X60228Y570985D01*
X60985Y570228D01*
X61687Y569418D01*
X62329Y568560D01*
X62908Y567659D01*
X63422Y566719D01*
X63867Y565744D01*
X64241Y564740D01*
X64543Y563712D01*
X64771Y562665D01*
X64924Y561604D01*
X65000Y560536D01*
X65000Y559464D01*
X65000Y39464D02*
X64924Y38396D01*
X64771Y37335D01*
X64543Y36288D01*
X64241Y35260D01*
X63867Y34256D01*
X63422Y33281D01*
X62908Y32341D01*
X62329Y31440D01*
X61687Y30582D01*
X60985Y29772D01*
X60228Y29015D01*
X59418Y28313D01*
X58560Y27671D01*
X57659Y27092D01*
X56719Y26578D01*
X55744Y26133D01*
X54740Y25759D01*
X53712Y25457D01*
X52665Y25229D01*
X51604Y25076D01*
X50536Y25000D01*
X49464Y25000D01*
X48396Y25076D01*
X47335Y25229D01*
X46288Y25457D01*
X45260Y25759D01*
X44256Y26133D01*
X43281Y26578D01*
X42341Y27092D01*
X41440Y27671D01*
X40582Y28313D01*
X39772Y29015D01*
X39015Y29772D01*
X38313Y30582D01*
X37671Y31440D01*
X37092Y32341D01*
X36578Y33281D01*
X36133Y34256D01*
X35759Y35260D01*
X35457Y36288D01*
X35229Y37335D01*
X35076Y38396D01*
X35000Y39464D01*
X35000Y40536D01*
X35076Y41604D01*
X35229Y42665D01*
X35457Y43712D01*
X35759Y44740D01*
X36133Y45744D01*
X36578Y46719D01*
X37092Y47659D01*
X37671Y48560D01*
X38313Y49418D01*
X39015Y50228D01*
X39772Y50985D01*
X40582Y51687D01*
X41440Y52329D01*
X42341Y52908D01*
X43281Y53422D01*
X44256Y53867D01*
X45260Y54241D01*
X46288Y54543D01*
X47335Y54771D01*
X48396Y54924D01*
X49464Y55000D01*
X50536Y55000D01*
X51604Y54924D01*
X52665Y54771D01*
X53712Y54543D01*
X54740Y54241D01*
X55744Y53867D01*
X56719Y53422D01*
X57659Y52908D01*
X58560Y52329D01*
X59418Y51687D01*
X60228Y50985D01*
X60985Y50228D01*
X61687Y49418D01*
X62329Y48560D01*
X62908Y47659D01*
X63422Y46719D01*
X63867Y45744D01*
X64241Y44740D01*
X64543Y43712D01*
X64771Y42665D01*
X64924Y41604D01*
X65000Y40536D01*
X65000Y39464D01*
X915000Y39464D02*
X914924Y38396D01*
X914771Y37335D01*
X914543Y36288D01*
X914241Y35260D01*
X913867Y34256D01*
X913422Y33281D01*
X912908Y32341D01*
X912329Y31440D01*
X911687Y30582D01*
X910985Y29772D01*
X910228Y29015D01*
X909418Y28313D01*
X908560Y27671D01*
X907659Y27092D01*
X906719Y26578D01*
X905744Y26133D01*
X904740Y25759D01*
X903712Y25457D01*
X902665Y25229D01*
X901604Y25076D01*
X900536Y25000D01*
X899464Y25000D01*
X898396Y25076D01*
X897335Y25229D01*
X896288Y25457D01*
X895260Y25759D01*
X894256Y26133D01*
X893281Y26578D01*
X892341Y27092D01*
X891440Y27671D01*
X890582Y28313D01*
X889772Y29015D01*
X889015Y29772D01*
X888313Y30582D01*
X887671Y31440D01*
X887092Y32341D01*
X886578Y33281D01*
X886133Y34256D01*
X885759Y35260D01*
X885457Y36288D01*
X885229Y37335D01*
X885076Y38396D01*
X885000Y39464D01*
X885000Y40536D01*
X885076Y41604D01*
X885229Y42665D01*
X885457Y43712D01*
X885759Y44740D01*
X886133Y45744D01*
X886578Y46719D01*
X887092Y47659D01*
X887671Y48560D01*
X888313Y49418D01*
X889015Y50228D01*
X889772Y50985D01*
X890582Y51687D01*
X891440Y52329D01*
X892341Y52908D01*
X893281Y53422D01*
X894256Y53867D01*
X895260Y54241D01*
X896288Y54543D01*
X897335Y54771D01*
X898396Y54924D01*
X899464Y55000D01*
X900536Y55000D01*
X901604Y54924D01*
X902665Y54771D01*
X903712Y54543D01*
X904740Y54241D01*
X905744Y53867D01*
X906719Y53422D01*
X907659Y52908D01*
X908560Y52329D01*
X909418Y51687D01*
X910228Y50985D01*
X910985Y50228D01*
X911687Y49418D01*
X912329Y48560D01*
X912908Y47659D01*
X913422Y46719D01*
X913867Y45744D01*
X914241Y44740D01*
X914543Y43712D01*
X914771Y42665D01*
X914924Y41604D01*
X915000Y40536D01*
X915000Y39464D01*
X915000Y559464D02*
X914924Y558396D01*
X914771Y557335D01*
X914543Y556288D01*
X914241Y555260D01*
X913867Y554256D01*
X913422Y553281D01*
X912908Y552341D01*
X912329Y551440D01*
X911687Y550582D01*
X910985Y549772D01*
X910228Y549015D01*
X909418Y548313D01*
X908560Y547671D01*
X907659Y547092D01*
X906719Y546578D01*
X905744Y546133D01*
X904740Y545759D01*
X903712Y545457D01*
X902665Y545229D01*
X901604Y545076D01*
X900536Y545000D01*
X899464Y545000D01*
X898396Y545076D01*
X897335Y545229D01*
X896288Y545457D01*
X895260Y545759D01*
X894256Y546133D01*
X893281Y546578D01*
X892341Y547092D01*
X891440Y547671D01*
X890582Y548313D01*
X889772Y549015D01*
X889015Y549772D01*
X888313Y550582D01*
X887671Y551440D01*
X887092Y552341D01*
X886578Y553281D01*
X886133Y554256D01*
X885759Y555260D01*
X885457Y556288D01*
X885229Y557335D01*
X885076Y558396D01*
X885000Y559464D01*
X885000Y560536D01*
X885076Y561604D01*
X885229Y562665D01*
X885457Y563712D01*
X885759Y564740D01*
X886133Y565744D01*
X886578Y566719D01*
X887092Y567659D01*
X887671Y568560D01*
X888313Y569418D01*
X889015Y570228D01*
X889772Y570985D01*
X890582Y571687D01*
X891440Y572329D01*
X892341Y572908D01*
X893281Y573422D01*
X894256Y573867D01*
X895260Y574241D01*
X896288Y574543D01*
X897335Y574771D01*
X898396Y574924D01*
X899464Y575000D01*
X900536Y575000D01*
X901604Y574924D01*
X902665Y574771D01*
X903712Y574543D01*
X904740Y574241D01*
X905744Y573867D01*
X906719Y573422D01*
X907659Y572908D01*
X908560Y572329D01*
X909418Y571687D01*
X910228Y570985D01*
X910985Y570228D01*
X911687Y569418D01*
X912329Y568560D01*
X912908Y567659D01*
X913422Y566719D01*
X913867Y565744D01*
X914241Y564740D01*
X914543Y563712D01*
X914771Y562665D01*
X914924Y561604D01*
X915000Y560536D01*
X915000Y559464D01*
M02*
