G04 EAGLE Gerber RS-274X export*
G75*
%MOMM*%
%FSLAX34Y34*%
%LPD*%
%INSilkscreen Top*%
%IPPOS*%
%AMOC8*
5,1,8,0,0,1.08239X$1,22.5*%
G01*
%ADD10C,0.152400*%
%ADD11C,0.203200*%
%ADD12C,0.177800*%
%ADD13C,0.127000*%
%ADD14C,0.101600*%
%ADD15R,0.200000X0.200000*%
%ADD16R,0.150000X0.250000*%


D10*
X40762Y333138D02*
X57018Y333138D01*
X57018Y331332D02*
X57018Y334945D01*
X40762Y334945D02*
X40762Y331332D01*
X40762Y341649D02*
X57018Y341649D01*
X57018Y350680D02*
X40762Y341649D01*
X40762Y350680D02*
X57018Y350680D01*
X57018Y358533D02*
X40762Y358533D01*
X40762Y363049D01*
X40764Y363182D01*
X40770Y363314D01*
X40780Y363446D01*
X40793Y363578D01*
X40811Y363710D01*
X40832Y363840D01*
X40857Y363971D01*
X40886Y364100D01*
X40919Y364228D01*
X40955Y364356D01*
X40995Y364482D01*
X41039Y364607D01*
X41087Y364731D01*
X41138Y364853D01*
X41193Y364974D01*
X41251Y365093D01*
X41313Y365211D01*
X41378Y365326D01*
X41447Y365440D01*
X41518Y365551D01*
X41594Y365660D01*
X41672Y365767D01*
X41753Y365872D01*
X41838Y365974D01*
X41925Y366074D01*
X42015Y366171D01*
X42108Y366266D01*
X42204Y366357D01*
X42302Y366446D01*
X42403Y366532D01*
X42507Y366615D01*
X42613Y366695D01*
X42721Y366771D01*
X42831Y366845D01*
X42944Y366915D01*
X43058Y366982D01*
X43175Y367045D01*
X43293Y367105D01*
X43413Y367162D01*
X43535Y367215D01*
X43658Y367264D01*
X43782Y367310D01*
X43908Y367352D01*
X44035Y367390D01*
X44163Y367425D01*
X44292Y367456D01*
X44421Y367483D01*
X44552Y367506D01*
X44683Y367526D01*
X44815Y367541D01*
X44947Y367553D01*
X45079Y367561D01*
X45212Y367565D01*
X45344Y367565D01*
X45477Y367561D01*
X45609Y367553D01*
X45741Y367541D01*
X45873Y367526D01*
X46004Y367506D01*
X46135Y367483D01*
X46264Y367456D01*
X46393Y367425D01*
X46521Y367390D01*
X46648Y367352D01*
X46774Y367310D01*
X46898Y367264D01*
X47021Y367215D01*
X47143Y367162D01*
X47263Y367105D01*
X47381Y367045D01*
X47498Y366982D01*
X47612Y366915D01*
X47725Y366845D01*
X47835Y366771D01*
X47943Y366695D01*
X48049Y366615D01*
X48153Y366532D01*
X48254Y366446D01*
X48352Y366357D01*
X48448Y366266D01*
X48541Y366171D01*
X48631Y366074D01*
X48718Y365974D01*
X48803Y365872D01*
X48884Y365767D01*
X48962Y365660D01*
X49038Y365551D01*
X49109Y365440D01*
X49178Y365326D01*
X49243Y365211D01*
X49305Y365093D01*
X49363Y364974D01*
X49418Y364853D01*
X49469Y364731D01*
X49517Y364607D01*
X49561Y364482D01*
X49601Y364356D01*
X49637Y364228D01*
X49670Y364100D01*
X49699Y363971D01*
X49724Y363840D01*
X49745Y363710D01*
X49763Y363578D01*
X49776Y363446D01*
X49786Y363314D01*
X49792Y363182D01*
X49794Y363049D01*
X49793Y363049D02*
X49793Y358533D01*
X52502Y373953D02*
X40762Y373953D01*
X52502Y373953D02*
X52635Y373955D01*
X52767Y373961D01*
X52899Y373971D01*
X53031Y373984D01*
X53163Y374002D01*
X53293Y374023D01*
X53424Y374048D01*
X53553Y374077D01*
X53681Y374110D01*
X53809Y374146D01*
X53935Y374186D01*
X54060Y374230D01*
X54184Y374278D01*
X54306Y374329D01*
X54427Y374384D01*
X54546Y374442D01*
X54664Y374504D01*
X54779Y374569D01*
X54893Y374638D01*
X55004Y374709D01*
X55113Y374785D01*
X55220Y374863D01*
X55325Y374944D01*
X55427Y375029D01*
X55527Y375116D01*
X55624Y375206D01*
X55719Y375299D01*
X55810Y375395D01*
X55899Y375493D01*
X55985Y375594D01*
X56068Y375698D01*
X56148Y375804D01*
X56224Y375912D01*
X56298Y376022D01*
X56368Y376135D01*
X56435Y376249D01*
X56498Y376366D01*
X56558Y376484D01*
X56615Y376604D01*
X56668Y376726D01*
X56717Y376849D01*
X56763Y376973D01*
X56805Y377099D01*
X56843Y377226D01*
X56878Y377354D01*
X56909Y377483D01*
X56936Y377612D01*
X56959Y377743D01*
X56979Y377874D01*
X56994Y378006D01*
X57006Y378138D01*
X57014Y378270D01*
X57018Y378403D01*
X57018Y378535D01*
X57014Y378668D01*
X57006Y378800D01*
X56994Y378932D01*
X56979Y379064D01*
X56959Y379195D01*
X56936Y379326D01*
X56909Y379455D01*
X56878Y379584D01*
X56843Y379712D01*
X56805Y379839D01*
X56763Y379965D01*
X56717Y380089D01*
X56668Y380212D01*
X56615Y380334D01*
X56558Y380454D01*
X56498Y380572D01*
X56435Y380689D01*
X56368Y380803D01*
X56298Y380916D01*
X56224Y381026D01*
X56148Y381134D01*
X56068Y381240D01*
X55985Y381344D01*
X55899Y381445D01*
X55810Y381543D01*
X55719Y381639D01*
X55624Y381732D01*
X55527Y381822D01*
X55427Y381909D01*
X55325Y381994D01*
X55220Y382075D01*
X55113Y382153D01*
X55004Y382229D01*
X54893Y382300D01*
X54779Y382369D01*
X54664Y382434D01*
X54546Y382496D01*
X54427Y382554D01*
X54306Y382609D01*
X54184Y382660D01*
X54060Y382708D01*
X53935Y382752D01*
X53809Y382792D01*
X53681Y382828D01*
X53553Y382861D01*
X53424Y382890D01*
X53293Y382915D01*
X53163Y382936D01*
X53031Y382954D01*
X52899Y382967D01*
X52767Y382977D01*
X52635Y382983D01*
X52502Y382985D01*
X52502Y382984D02*
X40762Y382984D01*
X40762Y393579D02*
X57018Y393579D01*
X40762Y389064D02*
X40762Y398095D01*
X50696Y412128D02*
X50696Y422966D01*
X44374Y438041D02*
X40762Y442557D01*
X57018Y442557D01*
X57018Y447072D02*
X57018Y438041D01*
X40762Y458640D02*
X40764Y458765D01*
X40770Y458890D01*
X40779Y459015D01*
X40793Y459139D01*
X40810Y459263D01*
X40831Y459387D01*
X40856Y459509D01*
X40885Y459631D01*
X40917Y459752D01*
X40953Y459872D01*
X40993Y459991D01*
X41036Y460108D01*
X41083Y460224D01*
X41134Y460339D01*
X41188Y460451D01*
X41246Y460563D01*
X41306Y460672D01*
X41371Y460779D01*
X41438Y460885D01*
X41509Y460988D01*
X41583Y461089D01*
X41660Y461188D01*
X41740Y461284D01*
X41823Y461378D01*
X41908Y461469D01*
X41997Y461558D01*
X42088Y461643D01*
X42182Y461726D01*
X42278Y461806D01*
X42377Y461883D01*
X42478Y461957D01*
X42581Y462028D01*
X42687Y462095D01*
X42794Y462160D01*
X42903Y462220D01*
X43015Y462278D01*
X43127Y462332D01*
X43242Y462383D01*
X43358Y462430D01*
X43475Y462473D01*
X43594Y462513D01*
X43714Y462549D01*
X43835Y462581D01*
X43957Y462610D01*
X44079Y462635D01*
X44203Y462656D01*
X44327Y462673D01*
X44451Y462687D01*
X44576Y462696D01*
X44701Y462702D01*
X44826Y462704D01*
X40762Y458640D02*
X40764Y458497D01*
X40770Y458355D01*
X40780Y458212D01*
X40793Y458070D01*
X40811Y457929D01*
X40832Y457787D01*
X40857Y457647D01*
X40886Y457507D01*
X40919Y457368D01*
X40956Y457230D01*
X40996Y457093D01*
X41040Y456958D01*
X41088Y456823D01*
X41140Y456690D01*
X41195Y456558D01*
X41254Y456428D01*
X41316Y456300D01*
X41382Y456173D01*
X41451Y456048D01*
X41523Y455925D01*
X41599Y455804D01*
X41678Y455686D01*
X41761Y455569D01*
X41846Y455455D01*
X41935Y455343D01*
X42026Y455234D01*
X42121Y455127D01*
X42218Y455022D01*
X42319Y454921D01*
X42422Y454822D01*
X42527Y454726D01*
X42636Y454633D01*
X42747Y454543D01*
X42860Y454456D01*
X42975Y454372D01*
X43093Y454292D01*
X43213Y454214D01*
X43335Y454140D01*
X43459Y454070D01*
X43585Y454002D01*
X43713Y453939D01*
X43842Y453878D01*
X43973Y453821D01*
X44105Y453768D01*
X44239Y453719D01*
X44374Y453673D01*
X47987Y461349D02*
X47895Y461443D01*
X47801Y461533D01*
X47704Y461621D01*
X47604Y461706D01*
X47502Y461788D01*
X47397Y461866D01*
X47290Y461942D01*
X47181Y462014D01*
X47070Y462083D01*
X46956Y462149D01*
X46841Y462211D01*
X46724Y462270D01*
X46605Y462325D01*
X46485Y462376D01*
X46363Y462424D01*
X46240Y462469D01*
X46116Y462509D01*
X45990Y462546D01*
X45863Y462579D01*
X45736Y462608D01*
X45607Y462634D01*
X45478Y462655D01*
X45348Y462673D01*
X45218Y462686D01*
X45088Y462696D01*
X44957Y462702D01*
X44826Y462704D01*
X47987Y461349D02*
X57018Y453673D01*
X57018Y462704D01*
X57018Y473819D02*
X40762Y468401D01*
X40762Y479238D02*
X57018Y473819D01*
X902982Y440762D02*
X919238Y440762D01*
X902982Y440762D02*
X902982Y445278D01*
X902984Y445411D01*
X902990Y445543D01*
X903000Y445675D01*
X903013Y445807D01*
X903031Y445939D01*
X903052Y446069D01*
X903077Y446200D01*
X903106Y446329D01*
X903139Y446457D01*
X903175Y446585D01*
X903215Y446711D01*
X903259Y446836D01*
X903307Y446960D01*
X903358Y447082D01*
X903413Y447203D01*
X903471Y447322D01*
X903533Y447440D01*
X903598Y447555D01*
X903667Y447669D01*
X903738Y447780D01*
X903814Y447889D01*
X903892Y447996D01*
X903973Y448101D01*
X904058Y448203D01*
X904145Y448303D01*
X904235Y448400D01*
X904328Y448495D01*
X904424Y448586D01*
X904522Y448675D01*
X904623Y448761D01*
X904727Y448844D01*
X904833Y448924D01*
X904941Y449000D01*
X905051Y449074D01*
X905164Y449144D01*
X905278Y449211D01*
X905395Y449274D01*
X905513Y449334D01*
X905633Y449391D01*
X905755Y449444D01*
X905878Y449493D01*
X906002Y449539D01*
X906128Y449581D01*
X906255Y449619D01*
X906383Y449654D01*
X906512Y449685D01*
X906641Y449712D01*
X906772Y449735D01*
X906903Y449755D01*
X907035Y449770D01*
X907167Y449782D01*
X907299Y449790D01*
X907432Y449794D01*
X907564Y449794D01*
X907697Y449790D01*
X907829Y449782D01*
X907961Y449770D01*
X908093Y449755D01*
X908224Y449735D01*
X908355Y449712D01*
X908484Y449685D01*
X908613Y449654D01*
X908741Y449619D01*
X908868Y449581D01*
X908994Y449539D01*
X909118Y449493D01*
X909241Y449444D01*
X909363Y449391D01*
X909483Y449334D01*
X909601Y449274D01*
X909718Y449211D01*
X909832Y449144D01*
X909945Y449074D01*
X910055Y449000D01*
X910163Y448924D01*
X910269Y448844D01*
X910373Y448761D01*
X910474Y448675D01*
X910572Y448586D01*
X910668Y448495D01*
X910761Y448400D01*
X910851Y448303D01*
X910938Y448203D01*
X911023Y448101D01*
X911104Y447996D01*
X911182Y447889D01*
X911258Y447780D01*
X911329Y447669D01*
X911398Y447555D01*
X911463Y447440D01*
X911525Y447322D01*
X911583Y447203D01*
X911638Y447082D01*
X911689Y446960D01*
X911737Y446836D01*
X911781Y446711D01*
X911821Y446585D01*
X911857Y446457D01*
X911890Y446329D01*
X911919Y446200D01*
X911944Y446069D01*
X911965Y445939D01*
X911983Y445807D01*
X911996Y445675D01*
X912006Y445543D01*
X912012Y445411D01*
X912014Y445278D01*
X912013Y445278D02*
X912013Y440762D01*
X912013Y446181D02*
X919238Y449793D01*
X919238Y459875D02*
X919238Y463487D01*
X919238Y459875D02*
X919236Y459757D01*
X919230Y459639D01*
X919221Y459521D01*
X919207Y459404D01*
X919190Y459287D01*
X919169Y459170D01*
X919144Y459055D01*
X919115Y458940D01*
X919082Y458826D01*
X919046Y458714D01*
X919006Y458603D01*
X918963Y458493D01*
X918916Y458384D01*
X918866Y458277D01*
X918811Y458172D01*
X918754Y458069D01*
X918693Y457968D01*
X918629Y457868D01*
X918562Y457771D01*
X918492Y457676D01*
X918418Y457584D01*
X918342Y457493D01*
X918262Y457406D01*
X918180Y457321D01*
X918095Y457239D01*
X918008Y457159D01*
X917917Y457083D01*
X917825Y457009D01*
X917730Y456939D01*
X917633Y456872D01*
X917533Y456808D01*
X917432Y456747D01*
X917329Y456690D01*
X917224Y456635D01*
X917117Y456585D01*
X917008Y456538D01*
X916898Y456495D01*
X916787Y456455D01*
X916675Y456419D01*
X916561Y456386D01*
X916446Y456357D01*
X916331Y456332D01*
X916214Y456311D01*
X916097Y456294D01*
X915980Y456280D01*
X915862Y456271D01*
X915744Y456265D01*
X915626Y456263D01*
X915626Y456262D02*
X906594Y456262D01*
X906476Y456264D01*
X906358Y456270D01*
X906240Y456279D01*
X906122Y456293D01*
X906005Y456310D01*
X905889Y456331D01*
X905774Y456356D01*
X905659Y456385D01*
X905545Y456418D01*
X905433Y456454D01*
X905321Y456494D01*
X905211Y456537D01*
X905103Y456584D01*
X904996Y456635D01*
X904891Y456689D01*
X904788Y456746D01*
X904686Y456807D01*
X904587Y456871D01*
X904490Y456938D01*
X904395Y457009D01*
X904302Y457082D01*
X904212Y457159D01*
X904124Y457238D01*
X904039Y457320D01*
X903957Y457405D01*
X903878Y457493D01*
X903801Y457583D01*
X903728Y457676D01*
X903657Y457770D01*
X903590Y457868D01*
X903526Y457967D01*
X903465Y458068D01*
X903408Y458172D01*
X903354Y458277D01*
X903303Y458384D01*
X903256Y458492D01*
X903213Y458602D01*
X903173Y458714D01*
X903137Y458826D01*
X903104Y458940D01*
X903075Y459055D01*
X903050Y459170D01*
X903029Y459286D01*
X903012Y459403D01*
X902998Y459521D01*
X902989Y459639D01*
X902983Y459757D01*
X902981Y459875D01*
X902982Y459875D02*
X902982Y463487D01*
X906594Y469328D02*
X902982Y473843D01*
X919238Y473843D01*
X919238Y469328D02*
X919238Y478359D01*
X919238Y280762D02*
X902982Y280762D01*
X902982Y285278D01*
X902984Y285411D01*
X902990Y285543D01*
X903000Y285675D01*
X903013Y285807D01*
X903031Y285939D01*
X903052Y286069D01*
X903077Y286200D01*
X903106Y286329D01*
X903139Y286457D01*
X903175Y286585D01*
X903215Y286711D01*
X903259Y286836D01*
X903307Y286960D01*
X903358Y287082D01*
X903413Y287203D01*
X903471Y287322D01*
X903533Y287440D01*
X903598Y287555D01*
X903667Y287669D01*
X903738Y287780D01*
X903814Y287889D01*
X903892Y287996D01*
X903973Y288101D01*
X904058Y288203D01*
X904145Y288303D01*
X904235Y288400D01*
X904328Y288495D01*
X904424Y288586D01*
X904522Y288675D01*
X904623Y288761D01*
X904727Y288844D01*
X904833Y288924D01*
X904941Y289000D01*
X905051Y289074D01*
X905164Y289144D01*
X905278Y289211D01*
X905395Y289274D01*
X905513Y289334D01*
X905633Y289391D01*
X905755Y289444D01*
X905878Y289493D01*
X906002Y289539D01*
X906128Y289581D01*
X906255Y289619D01*
X906383Y289654D01*
X906512Y289685D01*
X906641Y289712D01*
X906772Y289735D01*
X906903Y289755D01*
X907035Y289770D01*
X907167Y289782D01*
X907299Y289790D01*
X907432Y289794D01*
X907564Y289794D01*
X907697Y289790D01*
X907829Y289782D01*
X907961Y289770D01*
X908093Y289755D01*
X908224Y289735D01*
X908355Y289712D01*
X908484Y289685D01*
X908613Y289654D01*
X908741Y289619D01*
X908868Y289581D01*
X908994Y289539D01*
X909118Y289493D01*
X909241Y289444D01*
X909363Y289391D01*
X909483Y289334D01*
X909601Y289274D01*
X909718Y289211D01*
X909832Y289144D01*
X909945Y289074D01*
X910055Y289000D01*
X910163Y288924D01*
X910269Y288844D01*
X910373Y288761D01*
X910474Y288675D01*
X910572Y288586D01*
X910668Y288495D01*
X910761Y288400D01*
X910851Y288303D01*
X910938Y288203D01*
X911023Y288101D01*
X911104Y287996D01*
X911182Y287889D01*
X911258Y287780D01*
X911329Y287669D01*
X911398Y287555D01*
X911463Y287440D01*
X911525Y287322D01*
X911583Y287203D01*
X911638Y287082D01*
X911689Y286960D01*
X911737Y286836D01*
X911781Y286711D01*
X911821Y286585D01*
X911857Y286457D01*
X911890Y286329D01*
X911919Y286200D01*
X911944Y286069D01*
X911965Y285939D01*
X911983Y285807D01*
X911996Y285675D01*
X912006Y285543D01*
X912012Y285411D01*
X912014Y285278D01*
X912013Y285278D02*
X912013Y280762D01*
X912013Y286181D02*
X919238Y289793D01*
X919238Y299875D02*
X919238Y303487D01*
X919238Y299875D02*
X919236Y299757D01*
X919230Y299639D01*
X919221Y299521D01*
X919207Y299404D01*
X919190Y299287D01*
X919169Y299170D01*
X919144Y299055D01*
X919115Y298940D01*
X919082Y298826D01*
X919046Y298714D01*
X919006Y298603D01*
X918963Y298493D01*
X918916Y298384D01*
X918866Y298277D01*
X918811Y298172D01*
X918754Y298069D01*
X918693Y297968D01*
X918629Y297868D01*
X918562Y297771D01*
X918492Y297676D01*
X918418Y297584D01*
X918342Y297493D01*
X918262Y297406D01*
X918180Y297321D01*
X918095Y297239D01*
X918008Y297159D01*
X917917Y297083D01*
X917825Y297009D01*
X917730Y296939D01*
X917633Y296872D01*
X917533Y296808D01*
X917432Y296747D01*
X917329Y296690D01*
X917224Y296635D01*
X917117Y296585D01*
X917008Y296538D01*
X916898Y296495D01*
X916787Y296455D01*
X916675Y296419D01*
X916561Y296386D01*
X916446Y296357D01*
X916331Y296332D01*
X916214Y296311D01*
X916097Y296294D01*
X915980Y296280D01*
X915862Y296271D01*
X915744Y296265D01*
X915626Y296263D01*
X915626Y296262D02*
X906594Y296262D01*
X906476Y296264D01*
X906358Y296270D01*
X906240Y296279D01*
X906122Y296293D01*
X906005Y296310D01*
X905889Y296331D01*
X905774Y296356D01*
X905659Y296385D01*
X905545Y296418D01*
X905433Y296454D01*
X905321Y296494D01*
X905211Y296537D01*
X905103Y296584D01*
X904996Y296635D01*
X904891Y296689D01*
X904788Y296746D01*
X904686Y296807D01*
X904587Y296871D01*
X904490Y296938D01*
X904395Y297009D01*
X904302Y297082D01*
X904212Y297159D01*
X904124Y297238D01*
X904039Y297320D01*
X903957Y297405D01*
X903878Y297493D01*
X903801Y297583D01*
X903728Y297676D01*
X903657Y297770D01*
X903590Y297868D01*
X903526Y297967D01*
X903465Y298068D01*
X903408Y298172D01*
X903354Y298277D01*
X903303Y298384D01*
X903256Y298492D01*
X903213Y298602D01*
X903173Y298714D01*
X903137Y298826D01*
X903104Y298940D01*
X903075Y299055D01*
X903050Y299170D01*
X903029Y299286D01*
X903012Y299403D01*
X902998Y299521D01*
X902989Y299639D01*
X902983Y299757D01*
X902981Y299875D01*
X902982Y299875D02*
X902982Y303487D01*
X902982Y314295D02*
X902984Y314420D01*
X902990Y314545D01*
X902999Y314670D01*
X903013Y314794D01*
X903030Y314918D01*
X903051Y315042D01*
X903076Y315164D01*
X903105Y315286D01*
X903137Y315407D01*
X903173Y315527D01*
X903213Y315646D01*
X903256Y315763D01*
X903303Y315879D01*
X903354Y315994D01*
X903408Y316106D01*
X903466Y316218D01*
X903526Y316327D01*
X903591Y316434D01*
X903658Y316540D01*
X903729Y316643D01*
X903803Y316744D01*
X903880Y316843D01*
X903960Y316939D01*
X904043Y317033D01*
X904128Y317124D01*
X904217Y317213D01*
X904308Y317298D01*
X904402Y317381D01*
X904498Y317461D01*
X904597Y317538D01*
X904698Y317612D01*
X904801Y317683D01*
X904907Y317750D01*
X905014Y317815D01*
X905123Y317875D01*
X905235Y317933D01*
X905347Y317987D01*
X905462Y318038D01*
X905578Y318085D01*
X905695Y318128D01*
X905814Y318168D01*
X905934Y318204D01*
X906055Y318236D01*
X906177Y318265D01*
X906299Y318290D01*
X906423Y318311D01*
X906547Y318328D01*
X906671Y318342D01*
X906796Y318351D01*
X906921Y318357D01*
X907046Y318359D01*
X902982Y314295D02*
X902984Y314152D01*
X902990Y314010D01*
X903000Y313867D01*
X903013Y313725D01*
X903031Y313584D01*
X903052Y313442D01*
X903077Y313302D01*
X903106Y313162D01*
X903139Y313023D01*
X903176Y312885D01*
X903216Y312748D01*
X903260Y312613D01*
X903308Y312478D01*
X903360Y312345D01*
X903415Y312213D01*
X903474Y312083D01*
X903536Y311955D01*
X903602Y311828D01*
X903671Y311703D01*
X903743Y311580D01*
X903819Y311459D01*
X903898Y311341D01*
X903981Y311224D01*
X904066Y311110D01*
X904155Y310998D01*
X904246Y310889D01*
X904341Y310782D01*
X904438Y310677D01*
X904539Y310576D01*
X904642Y310477D01*
X904747Y310381D01*
X904856Y310288D01*
X904967Y310198D01*
X905080Y310111D01*
X905195Y310027D01*
X905313Y309947D01*
X905433Y309869D01*
X905555Y309795D01*
X905679Y309725D01*
X905805Y309657D01*
X905933Y309594D01*
X906062Y309533D01*
X906193Y309476D01*
X906325Y309423D01*
X906459Y309374D01*
X906594Y309328D01*
X910207Y317004D02*
X910115Y317098D01*
X910021Y317188D01*
X909924Y317276D01*
X909824Y317361D01*
X909722Y317443D01*
X909617Y317521D01*
X909510Y317597D01*
X909401Y317669D01*
X909290Y317738D01*
X909176Y317804D01*
X909061Y317866D01*
X908944Y317925D01*
X908825Y317980D01*
X908705Y318031D01*
X908583Y318079D01*
X908460Y318124D01*
X908336Y318164D01*
X908210Y318201D01*
X908083Y318234D01*
X907956Y318263D01*
X907827Y318289D01*
X907698Y318310D01*
X907568Y318328D01*
X907438Y318341D01*
X907308Y318351D01*
X907177Y318357D01*
X907046Y318359D01*
X910207Y317004D02*
X919238Y309328D01*
X919238Y318359D01*
X919238Y110762D02*
X902982Y110762D01*
X919238Y110762D02*
X919238Y117987D01*
X919238Y122855D02*
X902982Y128274D01*
X919238Y133692D01*
X915174Y132338D02*
X915174Y124210D01*
X919238Y142962D02*
X919238Y146575D01*
X919238Y142962D02*
X919236Y142844D01*
X919230Y142726D01*
X919221Y142608D01*
X919207Y142491D01*
X919190Y142374D01*
X919169Y142257D01*
X919144Y142142D01*
X919115Y142027D01*
X919082Y141913D01*
X919046Y141801D01*
X919006Y141690D01*
X918963Y141580D01*
X918916Y141471D01*
X918866Y141364D01*
X918811Y141259D01*
X918754Y141156D01*
X918693Y141055D01*
X918629Y140955D01*
X918562Y140858D01*
X918492Y140763D01*
X918418Y140671D01*
X918342Y140580D01*
X918262Y140493D01*
X918180Y140408D01*
X918095Y140326D01*
X918008Y140246D01*
X917917Y140170D01*
X917825Y140096D01*
X917730Y140026D01*
X917633Y139959D01*
X917533Y139895D01*
X917432Y139834D01*
X917329Y139777D01*
X917224Y139722D01*
X917117Y139672D01*
X917008Y139625D01*
X916898Y139582D01*
X916787Y139542D01*
X916675Y139506D01*
X916561Y139473D01*
X916446Y139444D01*
X916331Y139419D01*
X916214Y139398D01*
X916097Y139381D01*
X915980Y139367D01*
X915862Y139358D01*
X915744Y139352D01*
X915626Y139350D01*
X906594Y139350D01*
X906594Y139349D02*
X906476Y139351D01*
X906358Y139357D01*
X906240Y139366D01*
X906122Y139380D01*
X906005Y139397D01*
X905889Y139418D01*
X905774Y139443D01*
X905659Y139472D01*
X905545Y139505D01*
X905433Y139541D01*
X905321Y139581D01*
X905211Y139624D01*
X905103Y139671D01*
X904996Y139722D01*
X904891Y139776D01*
X904788Y139833D01*
X904686Y139894D01*
X904587Y139958D01*
X904490Y140025D01*
X904395Y140096D01*
X904302Y140169D01*
X904212Y140246D01*
X904124Y140325D01*
X904039Y140407D01*
X903957Y140492D01*
X903878Y140580D01*
X903801Y140670D01*
X903728Y140763D01*
X903657Y140857D01*
X903590Y140955D01*
X903526Y141054D01*
X903465Y141155D01*
X903408Y141259D01*
X903354Y141364D01*
X903303Y141471D01*
X903256Y141579D01*
X903213Y141689D01*
X903173Y141801D01*
X903137Y141913D01*
X903104Y142027D01*
X903075Y142142D01*
X903050Y142257D01*
X903029Y142373D01*
X903012Y142490D01*
X902998Y142608D01*
X902989Y142726D01*
X902983Y142844D01*
X902981Y142962D01*
X902982Y142962D02*
X902982Y146575D01*
X620762Y375487D02*
X620762Y391743D01*
X625278Y391743D01*
X625278Y391744D02*
X625411Y391742D01*
X625543Y391736D01*
X625675Y391726D01*
X625807Y391713D01*
X625939Y391695D01*
X626069Y391674D01*
X626200Y391649D01*
X626329Y391620D01*
X626457Y391587D01*
X626585Y391551D01*
X626711Y391511D01*
X626836Y391467D01*
X626960Y391419D01*
X627082Y391368D01*
X627203Y391313D01*
X627322Y391255D01*
X627440Y391193D01*
X627555Y391128D01*
X627669Y391059D01*
X627780Y390988D01*
X627889Y390912D01*
X627996Y390834D01*
X628101Y390753D01*
X628203Y390668D01*
X628303Y390581D01*
X628400Y390491D01*
X628495Y390398D01*
X628586Y390302D01*
X628675Y390204D01*
X628761Y390103D01*
X628844Y389999D01*
X628924Y389893D01*
X629000Y389785D01*
X629074Y389675D01*
X629144Y389562D01*
X629211Y389448D01*
X629274Y389331D01*
X629334Y389213D01*
X629391Y389093D01*
X629444Y388971D01*
X629493Y388848D01*
X629539Y388724D01*
X629581Y388598D01*
X629619Y388471D01*
X629654Y388343D01*
X629685Y388214D01*
X629712Y388085D01*
X629735Y387954D01*
X629755Y387823D01*
X629770Y387691D01*
X629782Y387559D01*
X629790Y387427D01*
X629794Y387294D01*
X629794Y387162D01*
X629790Y387029D01*
X629782Y386897D01*
X629770Y386765D01*
X629755Y386633D01*
X629735Y386502D01*
X629712Y386371D01*
X629685Y386242D01*
X629654Y386113D01*
X629619Y385985D01*
X629581Y385858D01*
X629539Y385732D01*
X629493Y385608D01*
X629444Y385485D01*
X629391Y385363D01*
X629334Y385243D01*
X629274Y385125D01*
X629211Y385008D01*
X629144Y384894D01*
X629074Y384781D01*
X629000Y384671D01*
X628924Y384563D01*
X628844Y384457D01*
X628761Y384353D01*
X628675Y384252D01*
X628586Y384154D01*
X628495Y384058D01*
X628400Y383965D01*
X628303Y383875D01*
X628203Y383788D01*
X628101Y383703D01*
X627996Y383622D01*
X627889Y383544D01*
X627780Y383468D01*
X627669Y383397D01*
X627555Y383328D01*
X627440Y383263D01*
X627322Y383201D01*
X627203Y383143D01*
X627082Y383088D01*
X626960Y383037D01*
X626836Y382989D01*
X626711Y382945D01*
X626585Y382905D01*
X626457Y382869D01*
X626329Y382836D01*
X626200Y382807D01*
X626069Y382782D01*
X625939Y382761D01*
X625807Y382743D01*
X625675Y382730D01*
X625543Y382720D01*
X625411Y382714D01*
X625278Y382712D01*
X620762Y382712D01*
X626181Y382712D02*
X629793Y375487D01*
X639875Y375487D02*
X643487Y375487D01*
X639875Y375488D02*
X639757Y375490D01*
X639639Y375496D01*
X639521Y375505D01*
X639404Y375519D01*
X639287Y375536D01*
X639170Y375557D01*
X639055Y375582D01*
X638940Y375611D01*
X638826Y375644D01*
X638714Y375680D01*
X638603Y375720D01*
X638493Y375763D01*
X638384Y375810D01*
X638277Y375860D01*
X638172Y375915D01*
X638069Y375972D01*
X637968Y376033D01*
X637868Y376097D01*
X637771Y376164D01*
X637676Y376234D01*
X637584Y376308D01*
X637493Y376384D01*
X637406Y376464D01*
X637321Y376546D01*
X637239Y376631D01*
X637159Y376718D01*
X637083Y376809D01*
X637009Y376901D01*
X636939Y376996D01*
X636872Y377093D01*
X636808Y377193D01*
X636747Y377294D01*
X636690Y377397D01*
X636635Y377502D01*
X636585Y377609D01*
X636538Y377718D01*
X636495Y377828D01*
X636455Y377939D01*
X636419Y378051D01*
X636386Y378165D01*
X636357Y378280D01*
X636332Y378395D01*
X636311Y378512D01*
X636294Y378629D01*
X636280Y378746D01*
X636271Y378864D01*
X636265Y378982D01*
X636263Y379100D01*
X636262Y379100D02*
X636262Y388131D01*
X636263Y388131D02*
X636265Y388249D01*
X636271Y388367D01*
X636280Y388485D01*
X636294Y388602D01*
X636311Y388719D01*
X636332Y388836D01*
X636357Y388951D01*
X636386Y389066D01*
X636419Y389180D01*
X636455Y389292D01*
X636495Y389403D01*
X636538Y389513D01*
X636585Y389622D01*
X636635Y389729D01*
X636689Y389834D01*
X636747Y389937D01*
X636808Y390038D01*
X636872Y390138D01*
X636939Y390235D01*
X637009Y390330D01*
X637083Y390422D01*
X637159Y390513D01*
X637239Y390600D01*
X637321Y390685D01*
X637406Y390767D01*
X637493Y390847D01*
X637584Y390923D01*
X637676Y390997D01*
X637771Y391067D01*
X637868Y391134D01*
X637968Y391198D01*
X638069Y391259D01*
X638172Y391316D01*
X638277Y391370D01*
X638384Y391421D01*
X638493Y391468D01*
X638603Y391511D01*
X638714Y391551D01*
X638826Y391587D01*
X638940Y391620D01*
X639055Y391649D01*
X639170Y391674D01*
X639287Y391695D01*
X639404Y391712D01*
X639521Y391726D01*
X639639Y391735D01*
X639757Y391741D01*
X639875Y391743D01*
X643487Y391743D01*
X649328Y388131D02*
X653843Y391743D01*
X653843Y375487D01*
X649328Y375487D02*
X658359Y375487D01*
X615979Y272070D02*
X615979Y255814D01*
X615979Y272070D02*
X620494Y272070D01*
X620627Y272068D01*
X620759Y272062D01*
X620891Y272052D01*
X621023Y272039D01*
X621155Y272021D01*
X621285Y272000D01*
X621416Y271975D01*
X621545Y271946D01*
X621673Y271913D01*
X621801Y271877D01*
X621927Y271837D01*
X622052Y271793D01*
X622176Y271745D01*
X622298Y271694D01*
X622419Y271639D01*
X622538Y271581D01*
X622656Y271519D01*
X622771Y271454D01*
X622885Y271385D01*
X622996Y271314D01*
X623105Y271238D01*
X623212Y271160D01*
X623317Y271079D01*
X623419Y270994D01*
X623519Y270907D01*
X623616Y270817D01*
X623711Y270724D01*
X623802Y270628D01*
X623891Y270530D01*
X623977Y270429D01*
X624060Y270325D01*
X624140Y270219D01*
X624216Y270111D01*
X624290Y270001D01*
X624360Y269888D01*
X624427Y269774D01*
X624490Y269657D01*
X624550Y269539D01*
X624607Y269419D01*
X624660Y269297D01*
X624709Y269174D01*
X624755Y269050D01*
X624797Y268924D01*
X624835Y268797D01*
X624870Y268669D01*
X624901Y268540D01*
X624928Y268411D01*
X624951Y268280D01*
X624971Y268149D01*
X624986Y268017D01*
X624998Y267885D01*
X625006Y267753D01*
X625010Y267620D01*
X625010Y267488D01*
X625006Y267355D01*
X624998Y267223D01*
X624986Y267091D01*
X624971Y266959D01*
X624951Y266828D01*
X624928Y266697D01*
X624901Y266568D01*
X624870Y266439D01*
X624835Y266311D01*
X624797Y266184D01*
X624755Y266058D01*
X624709Y265934D01*
X624660Y265811D01*
X624607Y265689D01*
X624550Y265569D01*
X624490Y265451D01*
X624427Y265334D01*
X624360Y265220D01*
X624290Y265107D01*
X624216Y264997D01*
X624140Y264889D01*
X624060Y264783D01*
X623977Y264679D01*
X623891Y264578D01*
X623802Y264480D01*
X623711Y264384D01*
X623616Y264291D01*
X623519Y264201D01*
X623419Y264114D01*
X623317Y264029D01*
X623212Y263948D01*
X623105Y263870D01*
X622996Y263794D01*
X622885Y263723D01*
X622771Y263654D01*
X622656Y263589D01*
X622538Y263527D01*
X622419Y263469D01*
X622298Y263414D01*
X622176Y263363D01*
X622052Y263315D01*
X621927Y263271D01*
X621801Y263231D01*
X621673Y263195D01*
X621545Y263162D01*
X621416Y263133D01*
X621285Y263108D01*
X621155Y263087D01*
X621023Y263069D01*
X620891Y263056D01*
X620759Y263046D01*
X620627Y263040D01*
X620494Y263038D01*
X620494Y263039D02*
X615979Y263039D01*
X621397Y263039D02*
X625010Y255814D01*
X635091Y255814D02*
X638704Y255814D01*
X635091Y255814D02*
X634973Y255816D01*
X634855Y255822D01*
X634737Y255831D01*
X634620Y255845D01*
X634503Y255862D01*
X634386Y255883D01*
X634271Y255908D01*
X634156Y255937D01*
X634042Y255970D01*
X633930Y256006D01*
X633819Y256046D01*
X633709Y256089D01*
X633600Y256136D01*
X633493Y256186D01*
X633388Y256241D01*
X633285Y256298D01*
X633184Y256359D01*
X633084Y256423D01*
X632987Y256490D01*
X632892Y256560D01*
X632800Y256634D01*
X632709Y256710D01*
X632622Y256790D01*
X632537Y256872D01*
X632455Y256957D01*
X632375Y257044D01*
X632299Y257135D01*
X632225Y257227D01*
X632155Y257322D01*
X632088Y257419D01*
X632024Y257519D01*
X631963Y257620D01*
X631906Y257723D01*
X631851Y257828D01*
X631801Y257935D01*
X631754Y258044D01*
X631711Y258154D01*
X631671Y258265D01*
X631635Y258377D01*
X631602Y258491D01*
X631573Y258606D01*
X631548Y258721D01*
X631527Y258838D01*
X631510Y258955D01*
X631496Y259072D01*
X631487Y259190D01*
X631481Y259308D01*
X631479Y259426D01*
X631479Y268457D01*
X631481Y268575D01*
X631487Y268693D01*
X631496Y268811D01*
X631510Y268928D01*
X631527Y269045D01*
X631548Y269162D01*
X631573Y269277D01*
X631602Y269392D01*
X631635Y269506D01*
X631671Y269618D01*
X631711Y269729D01*
X631754Y269839D01*
X631801Y269948D01*
X631851Y270055D01*
X631905Y270160D01*
X631963Y270263D01*
X632024Y270364D01*
X632088Y270464D01*
X632155Y270561D01*
X632225Y270656D01*
X632299Y270748D01*
X632375Y270839D01*
X632455Y270926D01*
X632537Y271011D01*
X632622Y271093D01*
X632709Y271173D01*
X632800Y271249D01*
X632892Y271323D01*
X632987Y271393D01*
X633084Y271460D01*
X633184Y271524D01*
X633285Y271585D01*
X633388Y271642D01*
X633493Y271696D01*
X633600Y271747D01*
X633709Y271794D01*
X633819Y271837D01*
X633930Y271877D01*
X634042Y271913D01*
X634156Y271946D01*
X634271Y271975D01*
X634386Y272000D01*
X634503Y272021D01*
X634620Y272038D01*
X634737Y272052D01*
X634855Y272061D01*
X634973Y272067D01*
X635091Y272069D01*
X635091Y272070D02*
X638704Y272070D01*
X649512Y272070D02*
X649637Y272068D01*
X649762Y272062D01*
X649887Y272053D01*
X650011Y272039D01*
X650135Y272022D01*
X650259Y272001D01*
X650381Y271976D01*
X650503Y271947D01*
X650624Y271915D01*
X650744Y271879D01*
X650863Y271839D01*
X650980Y271796D01*
X651096Y271749D01*
X651211Y271698D01*
X651323Y271644D01*
X651435Y271586D01*
X651544Y271526D01*
X651651Y271461D01*
X651757Y271394D01*
X651860Y271323D01*
X651961Y271249D01*
X652060Y271172D01*
X652156Y271092D01*
X652250Y271009D01*
X652341Y270924D01*
X652430Y270835D01*
X652515Y270744D01*
X652598Y270650D01*
X652678Y270554D01*
X652755Y270455D01*
X652829Y270354D01*
X652900Y270251D01*
X652967Y270145D01*
X653032Y270038D01*
X653092Y269929D01*
X653150Y269817D01*
X653204Y269705D01*
X653255Y269590D01*
X653302Y269474D01*
X653345Y269357D01*
X653385Y269238D01*
X653421Y269118D01*
X653453Y268997D01*
X653482Y268875D01*
X653507Y268753D01*
X653528Y268629D01*
X653545Y268505D01*
X653559Y268381D01*
X653568Y268256D01*
X653574Y268131D01*
X653576Y268006D01*
X649512Y272070D02*
X649369Y272068D01*
X649227Y272062D01*
X649084Y272052D01*
X648942Y272039D01*
X648801Y272021D01*
X648659Y272000D01*
X648519Y271975D01*
X648379Y271946D01*
X648240Y271913D01*
X648102Y271876D01*
X647965Y271836D01*
X647830Y271792D01*
X647695Y271744D01*
X647562Y271692D01*
X647430Y271637D01*
X647300Y271578D01*
X647172Y271516D01*
X647045Y271450D01*
X646920Y271381D01*
X646797Y271309D01*
X646677Y271233D01*
X646558Y271154D01*
X646441Y271071D01*
X646327Y270986D01*
X646215Y270897D01*
X646106Y270806D01*
X645999Y270711D01*
X645894Y270614D01*
X645793Y270513D01*
X645694Y270410D01*
X645598Y270305D01*
X645505Y270196D01*
X645415Y270085D01*
X645328Y269972D01*
X645244Y269857D01*
X645164Y269739D01*
X645086Y269619D01*
X645012Y269497D01*
X644942Y269373D01*
X644874Y269247D01*
X644811Y269119D01*
X644750Y268990D01*
X644693Y268859D01*
X644640Y268727D01*
X644591Y268593D01*
X644545Y268458D01*
X652220Y264845D02*
X652314Y264937D01*
X652404Y265031D01*
X652492Y265128D01*
X652577Y265228D01*
X652659Y265330D01*
X652738Y265435D01*
X652813Y265542D01*
X652885Y265651D01*
X652954Y265762D01*
X653020Y265876D01*
X653082Y265991D01*
X653141Y266108D01*
X653196Y266227D01*
X653247Y266347D01*
X653295Y266469D01*
X653340Y266592D01*
X653380Y266716D01*
X653417Y266842D01*
X653450Y266969D01*
X653479Y267096D01*
X653505Y267225D01*
X653526Y267354D01*
X653544Y267484D01*
X653557Y267614D01*
X653567Y267744D01*
X653573Y267875D01*
X653575Y268006D01*
X652221Y264845D02*
X644544Y255814D01*
X653576Y255814D01*
X625020Y132381D02*
X625020Y116125D01*
X632245Y116125D01*
X637113Y116125D02*
X642532Y132381D01*
X647950Y116125D01*
X646596Y120189D02*
X638468Y120189D01*
X657220Y116125D02*
X660833Y116125D01*
X657220Y116126D02*
X657102Y116128D01*
X656984Y116134D01*
X656866Y116143D01*
X656749Y116157D01*
X656632Y116174D01*
X656515Y116195D01*
X656400Y116220D01*
X656285Y116249D01*
X656171Y116282D01*
X656059Y116318D01*
X655948Y116358D01*
X655838Y116401D01*
X655729Y116448D01*
X655622Y116498D01*
X655517Y116553D01*
X655414Y116610D01*
X655313Y116671D01*
X655213Y116735D01*
X655116Y116802D01*
X655021Y116872D01*
X654929Y116946D01*
X654838Y117022D01*
X654751Y117102D01*
X654666Y117184D01*
X654584Y117269D01*
X654504Y117356D01*
X654428Y117447D01*
X654354Y117539D01*
X654284Y117634D01*
X654217Y117731D01*
X654153Y117831D01*
X654092Y117932D01*
X654035Y118035D01*
X653980Y118140D01*
X653930Y118247D01*
X653883Y118356D01*
X653840Y118466D01*
X653800Y118577D01*
X653764Y118689D01*
X653731Y118803D01*
X653702Y118918D01*
X653677Y119033D01*
X653656Y119150D01*
X653639Y119267D01*
X653625Y119384D01*
X653616Y119502D01*
X653610Y119620D01*
X653608Y119738D01*
X653608Y128769D01*
X653610Y128887D01*
X653616Y129005D01*
X653625Y129123D01*
X653639Y129240D01*
X653656Y129357D01*
X653677Y129474D01*
X653702Y129589D01*
X653731Y129704D01*
X653764Y129818D01*
X653800Y129930D01*
X653840Y130041D01*
X653883Y130151D01*
X653930Y130260D01*
X653980Y130367D01*
X654034Y130472D01*
X654092Y130575D01*
X654153Y130676D01*
X654217Y130776D01*
X654284Y130873D01*
X654354Y130968D01*
X654428Y131060D01*
X654504Y131151D01*
X654584Y131238D01*
X654666Y131323D01*
X654751Y131405D01*
X654838Y131485D01*
X654929Y131561D01*
X655021Y131635D01*
X655116Y131705D01*
X655213Y131772D01*
X655313Y131836D01*
X655414Y131897D01*
X655517Y131954D01*
X655622Y132008D01*
X655729Y132059D01*
X655838Y132106D01*
X655948Y132149D01*
X656059Y132189D01*
X656171Y132225D01*
X656285Y132258D01*
X656400Y132287D01*
X656515Y132312D01*
X656632Y132333D01*
X656749Y132350D01*
X656866Y132364D01*
X656984Y132373D01*
X657102Y132379D01*
X657220Y132381D01*
X660833Y132381D01*
D11*
X331016Y561016D02*
X331016Y584384D01*
X331016Y561016D02*
X341402Y561016D01*
X348993Y564911D02*
X348993Y576595D01*
X348993Y564911D02*
X348995Y564789D01*
X349001Y564666D01*
X349010Y564544D01*
X349024Y564423D01*
X349041Y564302D01*
X349062Y564181D01*
X349087Y564061D01*
X349115Y563942D01*
X349148Y563824D01*
X349184Y563707D01*
X349223Y563592D01*
X349267Y563477D01*
X349313Y563364D01*
X349364Y563253D01*
X349418Y563143D01*
X349475Y563035D01*
X349535Y562928D01*
X349599Y562824D01*
X349667Y562722D01*
X349737Y562622D01*
X349810Y562524D01*
X349887Y562428D01*
X349966Y562335D01*
X350049Y562245D01*
X350134Y562157D01*
X350222Y562072D01*
X350312Y561989D01*
X350405Y561910D01*
X350501Y561833D01*
X350599Y561760D01*
X350699Y561690D01*
X350801Y561622D01*
X350905Y561558D01*
X351012Y561498D01*
X351120Y561441D01*
X351230Y561387D01*
X351341Y561336D01*
X351454Y561290D01*
X351569Y561246D01*
X351684Y561207D01*
X351801Y561171D01*
X351919Y561138D01*
X352038Y561110D01*
X352158Y561085D01*
X352279Y561064D01*
X352400Y561047D01*
X352521Y561033D01*
X352643Y561024D01*
X352766Y561018D01*
X352888Y561016D01*
X359379Y561016D01*
X359379Y576595D01*
X368480Y576595D02*
X368480Y561016D01*
X368480Y576595D02*
X374971Y576595D01*
X375093Y576593D01*
X375216Y576587D01*
X375338Y576578D01*
X375459Y576564D01*
X375580Y576547D01*
X375701Y576526D01*
X375821Y576501D01*
X375940Y576473D01*
X376058Y576440D01*
X376175Y576404D01*
X376290Y576365D01*
X376405Y576321D01*
X376518Y576275D01*
X376629Y576224D01*
X376739Y576170D01*
X376847Y576113D01*
X376954Y576053D01*
X377058Y575989D01*
X377160Y575921D01*
X377260Y575851D01*
X377358Y575778D01*
X377454Y575701D01*
X377547Y575622D01*
X377637Y575539D01*
X377725Y575454D01*
X377810Y575366D01*
X377893Y575276D01*
X377972Y575183D01*
X378049Y575087D01*
X378122Y574989D01*
X378192Y574889D01*
X378260Y574787D01*
X378324Y574683D01*
X378384Y574576D01*
X378441Y574468D01*
X378495Y574358D01*
X378546Y574247D01*
X378592Y574134D01*
X378636Y574019D01*
X378675Y573904D01*
X378711Y573787D01*
X378744Y573669D01*
X378772Y573550D01*
X378797Y573430D01*
X378818Y573309D01*
X378835Y573188D01*
X378849Y573067D01*
X378858Y572945D01*
X378864Y572822D01*
X378866Y572700D01*
X378865Y572700D02*
X378865Y561016D01*
X391763Y570104D02*
X397605Y570104D01*
X391763Y570104D02*
X391630Y570102D01*
X391496Y570096D01*
X391363Y570086D01*
X391231Y570073D01*
X391098Y570055D01*
X390967Y570034D01*
X390836Y570008D01*
X390705Y569979D01*
X390576Y569946D01*
X390448Y569910D01*
X390321Y569869D01*
X390195Y569825D01*
X390070Y569777D01*
X389947Y569725D01*
X389826Y569670D01*
X389706Y569612D01*
X389588Y569550D01*
X389472Y569484D01*
X389358Y569415D01*
X389245Y569343D01*
X389135Y569267D01*
X389028Y569189D01*
X388922Y569107D01*
X388820Y569022D01*
X388719Y568934D01*
X388621Y568843D01*
X388526Y568749D01*
X388434Y568653D01*
X388345Y568554D01*
X388258Y568452D01*
X388175Y568348D01*
X388095Y568242D01*
X388018Y568133D01*
X387944Y568022D01*
X387873Y567909D01*
X387806Y567793D01*
X387742Y567676D01*
X387681Y567557D01*
X387625Y567437D01*
X387571Y567314D01*
X387522Y567190D01*
X387476Y567065D01*
X387433Y566939D01*
X387395Y566811D01*
X387360Y566682D01*
X387329Y566553D01*
X387301Y566422D01*
X387278Y566291D01*
X387259Y566159D01*
X387243Y566026D01*
X387231Y565893D01*
X387223Y565760D01*
X387219Y565627D01*
X387219Y565493D01*
X387223Y565360D01*
X387231Y565227D01*
X387243Y565094D01*
X387259Y564961D01*
X387278Y564829D01*
X387301Y564698D01*
X387329Y564567D01*
X387360Y564438D01*
X387395Y564309D01*
X387433Y564181D01*
X387476Y564055D01*
X387522Y563930D01*
X387571Y563806D01*
X387625Y563683D01*
X387681Y563563D01*
X387742Y563444D01*
X387806Y563327D01*
X387873Y563211D01*
X387944Y563098D01*
X388018Y562987D01*
X388095Y562878D01*
X388175Y562772D01*
X388258Y562668D01*
X388345Y562566D01*
X388434Y562467D01*
X388526Y562371D01*
X388621Y562277D01*
X388719Y562186D01*
X388820Y562098D01*
X388922Y562013D01*
X389028Y561931D01*
X389135Y561853D01*
X389245Y561777D01*
X389358Y561705D01*
X389472Y561636D01*
X389588Y561570D01*
X389706Y561508D01*
X389826Y561450D01*
X389947Y561395D01*
X390070Y561343D01*
X390195Y561295D01*
X390321Y561251D01*
X390448Y561210D01*
X390576Y561174D01*
X390705Y561141D01*
X390836Y561112D01*
X390967Y561086D01*
X391098Y561065D01*
X391231Y561047D01*
X391363Y561034D01*
X391496Y561024D01*
X391630Y561018D01*
X391763Y561016D01*
X397605Y561016D01*
X397605Y572700D01*
X397606Y572700D02*
X397604Y572822D01*
X397598Y572945D01*
X397589Y573067D01*
X397575Y573188D01*
X397558Y573309D01*
X397537Y573430D01*
X397512Y573550D01*
X397484Y573669D01*
X397451Y573787D01*
X397415Y573904D01*
X397376Y574019D01*
X397332Y574134D01*
X397286Y574247D01*
X397235Y574358D01*
X397181Y574468D01*
X397124Y574576D01*
X397064Y574683D01*
X397000Y574787D01*
X396932Y574889D01*
X396862Y574989D01*
X396789Y575087D01*
X396712Y575183D01*
X396633Y575276D01*
X396550Y575366D01*
X396465Y575454D01*
X396377Y575539D01*
X396287Y575622D01*
X396194Y575701D01*
X396098Y575778D01*
X396000Y575851D01*
X395900Y575921D01*
X395798Y575989D01*
X395694Y576053D01*
X395587Y576113D01*
X395479Y576170D01*
X395369Y576224D01*
X395258Y576275D01*
X395145Y576321D01*
X395030Y576365D01*
X394915Y576404D01*
X394798Y576440D01*
X394680Y576473D01*
X394561Y576501D01*
X394441Y576526D01*
X394320Y576547D01*
X394199Y576564D01*
X394078Y576578D01*
X393956Y576587D01*
X393833Y576593D01*
X393711Y576595D01*
X388518Y576595D01*
X406821Y576595D02*
X406821Y561016D01*
X406821Y576595D02*
X414611Y576595D01*
X414611Y573998D01*
X432665Y584384D02*
X432665Y561016D01*
X432665Y584384D02*
X439156Y584384D01*
X439315Y584382D01*
X439474Y584376D01*
X439634Y584366D01*
X439792Y584353D01*
X439951Y584335D01*
X440108Y584314D01*
X440266Y584288D01*
X440422Y584259D01*
X440578Y584226D01*
X440733Y584189D01*
X440887Y584149D01*
X441040Y584104D01*
X441192Y584056D01*
X441343Y584005D01*
X441492Y583949D01*
X441640Y583890D01*
X441786Y583827D01*
X441931Y583761D01*
X442074Y583691D01*
X442216Y583618D01*
X442355Y583541D01*
X442493Y583461D01*
X442629Y583377D01*
X442762Y583290D01*
X442894Y583200D01*
X443023Y583107D01*
X443149Y583010D01*
X443274Y582911D01*
X443396Y582808D01*
X443515Y582703D01*
X443632Y582594D01*
X443746Y582483D01*
X443857Y582369D01*
X443966Y582252D01*
X444071Y582133D01*
X444174Y582011D01*
X444273Y581886D01*
X444370Y581760D01*
X444463Y581631D01*
X444553Y581499D01*
X444640Y581366D01*
X444724Y581230D01*
X444804Y581092D01*
X444881Y580953D01*
X444954Y580811D01*
X445024Y580668D01*
X445090Y580523D01*
X445153Y580377D01*
X445212Y580229D01*
X445268Y580080D01*
X445319Y579929D01*
X445367Y579777D01*
X445412Y579624D01*
X445452Y579470D01*
X445489Y579315D01*
X445522Y579159D01*
X445551Y579003D01*
X445577Y578845D01*
X445598Y578688D01*
X445616Y578529D01*
X445629Y578371D01*
X445639Y578211D01*
X445645Y578052D01*
X445647Y577893D01*
X445645Y577734D01*
X445639Y577575D01*
X445629Y577415D01*
X445616Y577257D01*
X445598Y577098D01*
X445577Y576941D01*
X445551Y576783D01*
X445522Y576627D01*
X445489Y576471D01*
X445452Y576316D01*
X445412Y576162D01*
X445367Y576009D01*
X445319Y575857D01*
X445268Y575706D01*
X445212Y575557D01*
X445153Y575409D01*
X445090Y575263D01*
X445024Y575118D01*
X444954Y574975D01*
X444881Y574833D01*
X444804Y574694D01*
X444724Y574556D01*
X444640Y574420D01*
X444553Y574287D01*
X444463Y574155D01*
X444370Y574026D01*
X444273Y573900D01*
X444174Y573775D01*
X444071Y573653D01*
X443966Y573534D01*
X443857Y573417D01*
X443746Y573303D01*
X443632Y573192D01*
X443515Y573083D01*
X443396Y572978D01*
X443274Y572875D01*
X443149Y572776D01*
X443023Y572679D01*
X442894Y572586D01*
X442762Y572496D01*
X442629Y572409D01*
X442493Y572325D01*
X442355Y572245D01*
X442216Y572168D01*
X442074Y572095D01*
X441931Y572025D01*
X441786Y571959D01*
X441640Y571896D01*
X441492Y571837D01*
X441343Y571781D01*
X441192Y571730D01*
X441040Y571682D01*
X440887Y571637D01*
X440733Y571597D01*
X440578Y571560D01*
X440422Y571527D01*
X440266Y571498D01*
X440108Y571472D01*
X439951Y571451D01*
X439792Y571433D01*
X439634Y571420D01*
X439474Y571410D01*
X439315Y571404D01*
X439156Y571402D01*
X432665Y571402D01*
X440455Y571402D02*
X445647Y561016D01*
X453480Y567507D02*
X453480Y577893D01*
X453482Y578052D01*
X453488Y578211D01*
X453498Y578371D01*
X453511Y578529D01*
X453529Y578688D01*
X453550Y578845D01*
X453576Y579003D01*
X453605Y579159D01*
X453638Y579315D01*
X453675Y579470D01*
X453715Y579624D01*
X453760Y579777D01*
X453808Y579929D01*
X453859Y580080D01*
X453915Y580229D01*
X453974Y580377D01*
X454037Y580523D01*
X454103Y580668D01*
X454173Y580811D01*
X454246Y580953D01*
X454323Y581092D01*
X454403Y581230D01*
X454487Y581366D01*
X454574Y581499D01*
X454664Y581631D01*
X454757Y581760D01*
X454854Y581886D01*
X454953Y582011D01*
X455056Y582133D01*
X455161Y582252D01*
X455270Y582369D01*
X455381Y582483D01*
X455495Y582594D01*
X455612Y582703D01*
X455731Y582808D01*
X455853Y582911D01*
X455978Y583010D01*
X456104Y583107D01*
X456233Y583200D01*
X456365Y583290D01*
X456498Y583377D01*
X456634Y583461D01*
X456772Y583541D01*
X456911Y583618D01*
X457053Y583691D01*
X457196Y583761D01*
X457341Y583827D01*
X457487Y583890D01*
X457635Y583949D01*
X457784Y584005D01*
X457935Y584056D01*
X458087Y584104D01*
X458240Y584149D01*
X458394Y584189D01*
X458549Y584226D01*
X458705Y584259D01*
X458861Y584288D01*
X459019Y584314D01*
X459176Y584335D01*
X459335Y584353D01*
X459493Y584366D01*
X459653Y584376D01*
X459812Y584382D01*
X459971Y584384D01*
X460130Y584382D01*
X460289Y584376D01*
X460449Y584366D01*
X460607Y584353D01*
X460766Y584335D01*
X460923Y584314D01*
X461081Y584288D01*
X461237Y584259D01*
X461393Y584226D01*
X461548Y584189D01*
X461702Y584149D01*
X461855Y584104D01*
X462007Y584056D01*
X462158Y584005D01*
X462307Y583949D01*
X462455Y583890D01*
X462601Y583827D01*
X462746Y583761D01*
X462889Y583691D01*
X463031Y583618D01*
X463170Y583541D01*
X463308Y583461D01*
X463444Y583377D01*
X463577Y583290D01*
X463709Y583200D01*
X463838Y583107D01*
X463964Y583010D01*
X464089Y582911D01*
X464211Y582808D01*
X464330Y582703D01*
X464447Y582594D01*
X464561Y582483D01*
X464672Y582369D01*
X464781Y582252D01*
X464886Y582133D01*
X464989Y582011D01*
X465088Y581886D01*
X465185Y581760D01*
X465278Y581631D01*
X465368Y581499D01*
X465455Y581366D01*
X465539Y581230D01*
X465619Y581092D01*
X465696Y580953D01*
X465769Y580811D01*
X465839Y580668D01*
X465905Y580523D01*
X465968Y580377D01*
X466027Y580229D01*
X466083Y580080D01*
X466134Y579929D01*
X466182Y579777D01*
X466227Y579624D01*
X466267Y579470D01*
X466304Y579315D01*
X466337Y579159D01*
X466366Y579003D01*
X466392Y578845D01*
X466413Y578688D01*
X466431Y578529D01*
X466444Y578371D01*
X466454Y578211D01*
X466460Y578052D01*
X466462Y577893D01*
X466462Y567507D01*
X466460Y567348D01*
X466454Y567189D01*
X466444Y567029D01*
X466431Y566871D01*
X466413Y566712D01*
X466392Y566555D01*
X466366Y566397D01*
X466337Y566241D01*
X466304Y566085D01*
X466267Y565930D01*
X466227Y565776D01*
X466182Y565623D01*
X466134Y565471D01*
X466083Y565320D01*
X466027Y565171D01*
X465968Y565023D01*
X465905Y564877D01*
X465839Y564732D01*
X465769Y564589D01*
X465696Y564447D01*
X465619Y564308D01*
X465539Y564170D01*
X465455Y564034D01*
X465368Y563901D01*
X465278Y563769D01*
X465185Y563640D01*
X465088Y563514D01*
X464989Y563389D01*
X464886Y563267D01*
X464781Y563148D01*
X464672Y563031D01*
X464561Y562917D01*
X464447Y562806D01*
X464330Y562697D01*
X464211Y562592D01*
X464089Y562489D01*
X463964Y562390D01*
X463838Y562293D01*
X463709Y562200D01*
X463577Y562110D01*
X463444Y562023D01*
X463308Y561939D01*
X463170Y561859D01*
X463031Y561782D01*
X462889Y561709D01*
X462746Y561639D01*
X462601Y561573D01*
X462455Y561510D01*
X462307Y561451D01*
X462158Y561395D01*
X462007Y561344D01*
X461855Y561296D01*
X461702Y561251D01*
X461548Y561211D01*
X461393Y561174D01*
X461237Y561141D01*
X461081Y561112D01*
X460923Y561086D01*
X460766Y561065D01*
X460607Y561047D01*
X460449Y561034D01*
X460289Y561024D01*
X460130Y561018D01*
X459971Y561016D01*
X459812Y561018D01*
X459653Y561024D01*
X459493Y561034D01*
X459335Y561047D01*
X459176Y561065D01*
X459019Y561086D01*
X458861Y561112D01*
X458705Y561141D01*
X458549Y561174D01*
X458394Y561211D01*
X458240Y561251D01*
X458087Y561296D01*
X457935Y561344D01*
X457784Y561395D01*
X457635Y561451D01*
X457487Y561510D01*
X457341Y561573D01*
X457196Y561639D01*
X457053Y561709D01*
X456911Y561782D01*
X456772Y561859D01*
X456634Y561939D01*
X456498Y562023D01*
X456365Y562110D01*
X456233Y562200D01*
X456104Y562293D01*
X455978Y562390D01*
X455853Y562489D01*
X455731Y562592D01*
X455612Y562697D01*
X455495Y562806D01*
X455381Y562917D01*
X455270Y563031D01*
X455161Y563148D01*
X455056Y563267D01*
X454953Y563389D01*
X454854Y563514D01*
X454757Y563640D01*
X454664Y563769D01*
X454574Y563901D01*
X454487Y564034D01*
X454403Y564170D01*
X454323Y564308D01*
X454246Y564447D01*
X454173Y564589D01*
X454103Y564732D01*
X454037Y564877D01*
X453974Y565023D01*
X453915Y565171D01*
X453859Y565320D01*
X453808Y565471D01*
X453760Y565623D01*
X453715Y565776D01*
X453675Y565930D01*
X453638Y566085D01*
X453605Y566241D01*
X453576Y566397D01*
X453550Y566555D01*
X453529Y566712D01*
X453511Y566871D01*
X453498Y567029D01*
X453488Y567189D01*
X453482Y567348D01*
X453480Y567507D01*
X473061Y561016D02*
X480850Y584384D01*
X488639Y561016D01*
X486692Y566858D02*
X475008Y566858D01*
X495934Y561016D02*
X495934Y584384D01*
X502425Y584384D01*
X502584Y584382D01*
X502743Y584376D01*
X502903Y584366D01*
X503061Y584353D01*
X503220Y584335D01*
X503377Y584314D01*
X503535Y584288D01*
X503691Y584259D01*
X503847Y584226D01*
X504002Y584189D01*
X504156Y584149D01*
X504309Y584104D01*
X504461Y584056D01*
X504612Y584005D01*
X504761Y583949D01*
X504909Y583890D01*
X505055Y583827D01*
X505200Y583761D01*
X505343Y583691D01*
X505485Y583618D01*
X505624Y583541D01*
X505762Y583461D01*
X505898Y583377D01*
X506031Y583290D01*
X506163Y583200D01*
X506292Y583107D01*
X506418Y583010D01*
X506543Y582911D01*
X506665Y582808D01*
X506784Y582703D01*
X506901Y582594D01*
X507015Y582483D01*
X507126Y582369D01*
X507235Y582252D01*
X507340Y582133D01*
X507443Y582011D01*
X507542Y581886D01*
X507639Y581760D01*
X507732Y581631D01*
X507822Y581499D01*
X507909Y581366D01*
X507993Y581230D01*
X508073Y581092D01*
X508150Y580953D01*
X508223Y580811D01*
X508293Y580668D01*
X508359Y580523D01*
X508422Y580377D01*
X508481Y580229D01*
X508537Y580080D01*
X508588Y579929D01*
X508636Y579777D01*
X508681Y579624D01*
X508721Y579470D01*
X508758Y579315D01*
X508791Y579159D01*
X508820Y579003D01*
X508846Y578845D01*
X508867Y578688D01*
X508885Y578529D01*
X508898Y578371D01*
X508908Y578211D01*
X508914Y578052D01*
X508916Y577893D01*
X508916Y567507D01*
X508914Y567348D01*
X508908Y567189D01*
X508898Y567029D01*
X508885Y566871D01*
X508867Y566712D01*
X508846Y566555D01*
X508820Y566397D01*
X508791Y566241D01*
X508758Y566085D01*
X508721Y565930D01*
X508681Y565776D01*
X508636Y565623D01*
X508588Y565471D01*
X508537Y565320D01*
X508481Y565171D01*
X508422Y565023D01*
X508359Y564877D01*
X508293Y564732D01*
X508223Y564589D01*
X508150Y564447D01*
X508073Y564308D01*
X507993Y564170D01*
X507909Y564034D01*
X507822Y563901D01*
X507732Y563769D01*
X507639Y563640D01*
X507542Y563514D01*
X507443Y563389D01*
X507340Y563267D01*
X507235Y563148D01*
X507126Y563031D01*
X507015Y562917D01*
X506901Y562806D01*
X506784Y562697D01*
X506665Y562592D01*
X506543Y562489D01*
X506418Y562390D01*
X506292Y562293D01*
X506163Y562200D01*
X506031Y562110D01*
X505898Y562023D01*
X505762Y561939D01*
X505624Y561859D01*
X505485Y561782D01*
X505343Y561709D01*
X505200Y561639D01*
X505055Y561573D01*
X504909Y561510D01*
X504761Y561451D01*
X504612Y561395D01*
X504461Y561344D01*
X504309Y561295D01*
X504156Y561251D01*
X504002Y561211D01*
X503847Y561174D01*
X503691Y561141D01*
X503535Y561112D01*
X503377Y561086D01*
X503220Y561065D01*
X503061Y561047D01*
X502902Y561034D01*
X502743Y561024D01*
X502584Y561018D01*
X502425Y561016D01*
X495934Y561016D01*
X524602Y561016D02*
X524745Y561018D01*
X524888Y561024D01*
X525031Y561034D01*
X525173Y561048D01*
X525315Y561065D01*
X525457Y561087D01*
X525598Y561112D01*
X525738Y561142D01*
X525877Y561175D01*
X526015Y561212D01*
X526152Y561253D01*
X526288Y561297D01*
X526423Y561346D01*
X526556Y561398D01*
X526688Y561453D01*
X526818Y561513D01*
X526947Y561576D01*
X527074Y561642D01*
X527199Y561712D01*
X527321Y561785D01*
X527442Y561862D01*
X527561Y561942D01*
X527677Y562025D01*
X527792Y562111D01*
X527903Y562200D01*
X528013Y562293D01*
X528119Y562388D01*
X528223Y562487D01*
X528324Y562588D01*
X528423Y562692D01*
X528518Y562798D01*
X528611Y562908D01*
X528700Y563019D01*
X528786Y563134D01*
X528869Y563250D01*
X528949Y563369D01*
X529026Y563490D01*
X529099Y563613D01*
X529169Y563737D01*
X529235Y563864D01*
X529298Y563993D01*
X529358Y564123D01*
X529413Y564255D01*
X529465Y564388D01*
X529514Y564523D01*
X529558Y564659D01*
X529599Y564796D01*
X529636Y564934D01*
X529669Y565073D01*
X529699Y565213D01*
X529724Y565354D01*
X529746Y565496D01*
X529763Y565638D01*
X529777Y565780D01*
X529787Y565923D01*
X529793Y566066D01*
X529795Y566209D01*
X524602Y561016D02*
X524340Y561019D01*
X524077Y561029D01*
X523815Y561044D01*
X523554Y561066D01*
X523293Y561094D01*
X523033Y561129D01*
X522773Y561170D01*
X522515Y561216D01*
X522258Y561269D01*
X522002Y561329D01*
X521748Y561394D01*
X521495Y561465D01*
X521245Y561542D01*
X520996Y561626D01*
X520749Y561715D01*
X520504Y561810D01*
X520262Y561911D01*
X520022Y562018D01*
X519785Y562130D01*
X519551Y562248D01*
X519319Y562372D01*
X519091Y562501D01*
X518865Y562636D01*
X518643Y562776D01*
X518424Y562921D01*
X518209Y563071D01*
X517998Y563227D01*
X517790Y563387D01*
X517586Y563553D01*
X517387Y563723D01*
X517191Y563898D01*
X517000Y564077D01*
X516813Y564262D01*
X517461Y579191D02*
X517463Y579334D01*
X517469Y579477D01*
X517479Y579620D01*
X517493Y579762D01*
X517510Y579904D01*
X517532Y580046D01*
X517557Y580187D01*
X517587Y580327D01*
X517620Y580466D01*
X517657Y580604D01*
X517698Y580741D01*
X517742Y580877D01*
X517791Y581012D01*
X517843Y581145D01*
X517898Y581277D01*
X517958Y581407D01*
X518021Y581536D01*
X518087Y581663D01*
X518157Y581788D01*
X518230Y581910D01*
X518307Y582031D01*
X518387Y582150D01*
X518470Y582266D01*
X518556Y582381D01*
X518645Y582492D01*
X518738Y582602D01*
X518833Y582708D01*
X518932Y582812D01*
X519033Y582913D01*
X519137Y583012D01*
X519243Y583107D01*
X519353Y583200D01*
X519464Y583289D01*
X519579Y583375D01*
X519695Y583459D01*
X519814Y583538D01*
X519935Y583615D01*
X520058Y583688D01*
X520182Y583758D01*
X520309Y583824D01*
X520438Y583887D01*
X520568Y583947D01*
X520700Y584002D01*
X520833Y584054D01*
X520968Y584103D01*
X521104Y584147D01*
X521241Y584188D01*
X521379Y584225D01*
X521518Y584258D01*
X521658Y584288D01*
X521799Y584313D01*
X521941Y584335D01*
X522083Y584352D01*
X522225Y584366D01*
X522368Y584376D01*
X522511Y584382D01*
X522654Y584384D01*
X522886Y584381D01*
X523118Y584373D01*
X523350Y584359D01*
X523581Y584340D01*
X523812Y584315D01*
X524042Y584285D01*
X524271Y584249D01*
X524499Y584208D01*
X524727Y584161D01*
X524953Y584109D01*
X525178Y584051D01*
X525401Y583988D01*
X525623Y583920D01*
X525843Y583847D01*
X526061Y583768D01*
X526278Y583685D01*
X526492Y583596D01*
X526704Y583502D01*
X526914Y583403D01*
X527122Y583299D01*
X527326Y583190D01*
X527529Y583076D01*
X527728Y582957D01*
X527925Y582834D01*
X528118Y582706D01*
X528309Y582574D01*
X528496Y582437D01*
X520058Y574647D02*
X519935Y574722D01*
X519814Y574800D01*
X519695Y574882D01*
X519579Y574966D01*
X519465Y575054D01*
X519353Y575145D01*
X519243Y575239D01*
X519137Y575336D01*
X519033Y575436D01*
X518932Y575538D01*
X518833Y575644D01*
X518738Y575752D01*
X518645Y575862D01*
X518556Y575975D01*
X518470Y576091D01*
X518386Y576208D01*
X518307Y576328D01*
X518230Y576450D01*
X518157Y576574D01*
X518087Y576700D01*
X518021Y576828D01*
X517958Y576958D01*
X517899Y577089D01*
X517843Y577222D01*
X517791Y577357D01*
X517743Y577493D01*
X517698Y577630D01*
X517658Y577768D01*
X517621Y577907D01*
X517587Y578047D01*
X517558Y578188D01*
X517533Y578330D01*
X517511Y578473D01*
X517493Y578616D01*
X517480Y578759D01*
X517470Y578903D01*
X517464Y579047D01*
X517462Y579191D01*
X527199Y570753D02*
X527322Y570678D01*
X527443Y570600D01*
X527562Y570518D01*
X527678Y570434D01*
X527792Y570346D01*
X527904Y570255D01*
X528013Y570161D01*
X528120Y570064D01*
X528224Y569964D01*
X528325Y569862D01*
X528424Y569756D01*
X528519Y569648D01*
X528612Y569538D01*
X528701Y569425D01*
X528787Y569310D01*
X528870Y569192D01*
X528950Y569072D01*
X529027Y568950D01*
X529100Y568826D01*
X529170Y568700D01*
X529236Y568572D01*
X529299Y568442D01*
X529358Y568311D01*
X529414Y568178D01*
X529466Y568043D01*
X529514Y567907D01*
X529559Y567770D01*
X529599Y567632D01*
X529636Y567493D01*
X529670Y567353D01*
X529699Y567212D01*
X529724Y567070D01*
X529746Y566927D01*
X529764Y566784D01*
X529777Y566641D01*
X529787Y566497D01*
X529793Y566353D01*
X529795Y566209D01*
X527198Y570753D02*
X520058Y574647D01*
X542094Y584384D02*
X542094Y561016D01*
X535603Y584384D02*
X548586Y584384D01*
X555811Y561016D02*
X566196Y561016D01*
X555811Y561016D02*
X555811Y584384D01*
X566196Y584384D01*
X563600Y573998D02*
X555811Y573998D01*
X573945Y584384D02*
X573945Y561016D01*
X573945Y584384D02*
X580436Y584384D01*
X580595Y584382D01*
X580754Y584376D01*
X580914Y584366D01*
X581072Y584353D01*
X581231Y584335D01*
X581388Y584314D01*
X581546Y584288D01*
X581702Y584259D01*
X581858Y584226D01*
X582013Y584189D01*
X582167Y584149D01*
X582320Y584104D01*
X582472Y584056D01*
X582623Y584005D01*
X582772Y583949D01*
X582920Y583890D01*
X583066Y583827D01*
X583211Y583761D01*
X583354Y583691D01*
X583496Y583618D01*
X583635Y583541D01*
X583773Y583461D01*
X583909Y583377D01*
X584042Y583290D01*
X584174Y583200D01*
X584303Y583107D01*
X584429Y583010D01*
X584554Y582911D01*
X584676Y582808D01*
X584795Y582703D01*
X584912Y582594D01*
X585026Y582483D01*
X585137Y582369D01*
X585246Y582252D01*
X585351Y582133D01*
X585454Y582011D01*
X585553Y581886D01*
X585650Y581760D01*
X585743Y581631D01*
X585833Y581499D01*
X585920Y581366D01*
X586004Y581230D01*
X586084Y581092D01*
X586161Y580953D01*
X586234Y580811D01*
X586304Y580668D01*
X586370Y580523D01*
X586433Y580377D01*
X586492Y580229D01*
X586548Y580080D01*
X586599Y579929D01*
X586647Y579777D01*
X586692Y579624D01*
X586732Y579470D01*
X586769Y579315D01*
X586802Y579159D01*
X586831Y579003D01*
X586857Y578845D01*
X586878Y578688D01*
X586896Y578529D01*
X586909Y578371D01*
X586919Y578211D01*
X586925Y578052D01*
X586927Y577893D01*
X586925Y577734D01*
X586919Y577575D01*
X586909Y577415D01*
X586896Y577257D01*
X586878Y577098D01*
X586857Y576941D01*
X586831Y576783D01*
X586802Y576627D01*
X586769Y576471D01*
X586732Y576316D01*
X586692Y576162D01*
X586647Y576009D01*
X586599Y575857D01*
X586548Y575706D01*
X586492Y575557D01*
X586433Y575409D01*
X586370Y575263D01*
X586304Y575118D01*
X586234Y574975D01*
X586161Y574833D01*
X586084Y574694D01*
X586004Y574556D01*
X585920Y574420D01*
X585833Y574287D01*
X585743Y574155D01*
X585650Y574026D01*
X585553Y573900D01*
X585454Y573775D01*
X585351Y573653D01*
X585246Y573534D01*
X585137Y573417D01*
X585026Y573303D01*
X584912Y573192D01*
X584795Y573083D01*
X584676Y572978D01*
X584554Y572875D01*
X584429Y572776D01*
X584303Y572679D01*
X584174Y572586D01*
X584042Y572496D01*
X583909Y572409D01*
X583773Y572325D01*
X583635Y572245D01*
X583496Y572168D01*
X583354Y572095D01*
X583211Y572025D01*
X583066Y571959D01*
X582920Y571896D01*
X582772Y571837D01*
X582623Y571781D01*
X582472Y571730D01*
X582320Y571682D01*
X582167Y571637D01*
X582013Y571597D01*
X581858Y571560D01*
X581702Y571527D01*
X581546Y571498D01*
X581388Y571472D01*
X581231Y571451D01*
X581072Y571433D01*
X580914Y571420D01*
X580754Y571410D01*
X580595Y571404D01*
X580436Y571402D01*
X573945Y571402D01*
X581734Y571402D02*
X586927Y561016D01*
X291016Y44384D02*
X291016Y21016D01*
X291016Y44384D02*
X297507Y44384D01*
X297666Y44382D01*
X297825Y44376D01*
X297985Y44366D01*
X298143Y44353D01*
X298302Y44335D01*
X298459Y44314D01*
X298617Y44288D01*
X298773Y44259D01*
X298929Y44226D01*
X299084Y44189D01*
X299238Y44149D01*
X299391Y44104D01*
X299543Y44056D01*
X299694Y44005D01*
X299843Y43949D01*
X299991Y43890D01*
X300137Y43827D01*
X300282Y43761D01*
X300425Y43691D01*
X300567Y43618D01*
X300706Y43541D01*
X300844Y43461D01*
X300980Y43377D01*
X301113Y43290D01*
X301245Y43200D01*
X301374Y43107D01*
X301500Y43010D01*
X301625Y42911D01*
X301747Y42808D01*
X301866Y42703D01*
X301983Y42594D01*
X302097Y42483D01*
X302208Y42369D01*
X302317Y42252D01*
X302422Y42133D01*
X302525Y42011D01*
X302624Y41886D01*
X302721Y41760D01*
X302814Y41631D01*
X302904Y41499D01*
X302991Y41366D01*
X303075Y41230D01*
X303155Y41092D01*
X303232Y40953D01*
X303305Y40811D01*
X303375Y40668D01*
X303441Y40523D01*
X303504Y40377D01*
X303563Y40229D01*
X303619Y40080D01*
X303670Y39929D01*
X303718Y39777D01*
X303763Y39624D01*
X303803Y39470D01*
X303840Y39315D01*
X303873Y39159D01*
X303902Y39003D01*
X303928Y38845D01*
X303949Y38688D01*
X303967Y38529D01*
X303980Y38371D01*
X303990Y38211D01*
X303996Y38052D01*
X303998Y37893D01*
X303996Y37734D01*
X303990Y37575D01*
X303980Y37415D01*
X303967Y37257D01*
X303949Y37098D01*
X303928Y36941D01*
X303902Y36783D01*
X303873Y36627D01*
X303840Y36471D01*
X303803Y36316D01*
X303763Y36162D01*
X303718Y36009D01*
X303670Y35857D01*
X303619Y35706D01*
X303563Y35557D01*
X303504Y35409D01*
X303441Y35263D01*
X303375Y35118D01*
X303305Y34975D01*
X303232Y34833D01*
X303155Y34694D01*
X303075Y34556D01*
X302991Y34420D01*
X302904Y34287D01*
X302814Y34155D01*
X302721Y34026D01*
X302624Y33900D01*
X302525Y33775D01*
X302422Y33653D01*
X302317Y33534D01*
X302208Y33417D01*
X302097Y33303D01*
X301983Y33192D01*
X301866Y33083D01*
X301747Y32978D01*
X301625Y32875D01*
X301500Y32776D01*
X301374Y32679D01*
X301245Y32586D01*
X301113Y32496D01*
X300980Y32409D01*
X300844Y32325D01*
X300706Y32245D01*
X300567Y32168D01*
X300425Y32095D01*
X300282Y32025D01*
X300137Y31959D01*
X299991Y31896D01*
X299843Y31837D01*
X299694Y31781D01*
X299543Y31730D01*
X299391Y31682D01*
X299238Y31637D01*
X299084Y31597D01*
X298929Y31560D01*
X298773Y31527D01*
X298617Y31498D01*
X298459Y31472D01*
X298302Y31451D01*
X298143Y31433D01*
X297985Y31420D01*
X297825Y31410D01*
X297666Y31404D01*
X297507Y31402D01*
X291016Y31402D01*
X310958Y31402D02*
X310958Y26209D01*
X310957Y31402D02*
X310959Y31545D01*
X310965Y31688D01*
X310975Y31831D01*
X310989Y31973D01*
X311006Y32115D01*
X311028Y32257D01*
X311053Y32398D01*
X311083Y32538D01*
X311116Y32677D01*
X311153Y32815D01*
X311194Y32952D01*
X311238Y33088D01*
X311287Y33223D01*
X311339Y33356D01*
X311394Y33488D01*
X311454Y33618D01*
X311517Y33747D01*
X311583Y33874D01*
X311653Y33999D01*
X311726Y34121D01*
X311803Y34242D01*
X311883Y34361D01*
X311966Y34477D01*
X312052Y34592D01*
X312141Y34703D01*
X312234Y34813D01*
X312329Y34919D01*
X312428Y35023D01*
X312529Y35124D01*
X312633Y35223D01*
X312739Y35318D01*
X312849Y35411D01*
X312960Y35500D01*
X313075Y35586D01*
X313191Y35669D01*
X313310Y35749D01*
X313431Y35826D01*
X313554Y35899D01*
X313678Y35969D01*
X313805Y36035D01*
X313934Y36098D01*
X314064Y36158D01*
X314196Y36213D01*
X314329Y36265D01*
X314464Y36314D01*
X314600Y36358D01*
X314737Y36399D01*
X314875Y36436D01*
X315014Y36469D01*
X315154Y36499D01*
X315295Y36524D01*
X315437Y36546D01*
X315579Y36563D01*
X315721Y36577D01*
X315864Y36587D01*
X316007Y36593D01*
X316150Y36595D01*
X316293Y36593D01*
X316436Y36587D01*
X316579Y36577D01*
X316721Y36563D01*
X316863Y36546D01*
X317005Y36524D01*
X317146Y36499D01*
X317286Y36469D01*
X317425Y36436D01*
X317563Y36399D01*
X317700Y36358D01*
X317836Y36314D01*
X317971Y36265D01*
X318104Y36213D01*
X318236Y36158D01*
X318366Y36098D01*
X318495Y36035D01*
X318622Y35969D01*
X318747Y35899D01*
X318869Y35826D01*
X318990Y35749D01*
X319109Y35669D01*
X319225Y35586D01*
X319340Y35500D01*
X319451Y35411D01*
X319561Y35318D01*
X319667Y35223D01*
X319771Y35124D01*
X319872Y35023D01*
X319971Y34919D01*
X320066Y34813D01*
X320159Y34703D01*
X320248Y34592D01*
X320334Y34477D01*
X320417Y34361D01*
X320497Y34242D01*
X320574Y34121D01*
X320647Y33999D01*
X320717Y33874D01*
X320783Y33747D01*
X320846Y33618D01*
X320906Y33488D01*
X320961Y33356D01*
X321013Y33223D01*
X321062Y33088D01*
X321106Y32952D01*
X321147Y32815D01*
X321184Y32677D01*
X321217Y32538D01*
X321247Y32398D01*
X321272Y32257D01*
X321294Y32115D01*
X321311Y31973D01*
X321325Y31831D01*
X321335Y31688D01*
X321341Y31545D01*
X321343Y31402D01*
X321343Y26209D01*
X321341Y26066D01*
X321335Y25923D01*
X321325Y25780D01*
X321311Y25638D01*
X321294Y25496D01*
X321272Y25354D01*
X321247Y25213D01*
X321217Y25073D01*
X321184Y24934D01*
X321147Y24796D01*
X321106Y24659D01*
X321062Y24523D01*
X321013Y24388D01*
X320961Y24255D01*
X320906Y24123D01*
X320846Y23993D01*
X320783Y23864D01*
X320717Y23737D01*
X320647Y23612D01*
X320574Y23490D01*
X320497Y23369D01*
X320417Y23250D01*
X320334Y23134D01*
X320248Y23019D01*
X320159Y22908D01*
X320066Y22798D01*
X319971Y22692D01*
X319872Y22588D01*
X319771Y22487D01*
X319667Y22388D01*
X319561Y22293D01*
X319451Y22200D01*
X319340Y22111D01*
X319225Y22025D01*
X319109Y21942D01*
X318990Y21862D01*
X318869Y21785D01*
X318746Y21712D01*
X318622Y21642D01*
X318495Y21576D01*
X318366Y21513D01*
X318236Y21453D01*
X318104Y21398D01*
X317971Y21346D01*
X317836Y21297D01*
X317700Y21253D01*
X317563Y21212D01*
X317425Y21175D01*
X317286Y21142D01*
X317146Y21112D01*
X317005Y21087D01*
X316863Y21065D01*
X316721Y21048D01*
X316579Y21034D01*
X316436Y21024D01*
X316293Y21018D01*
X316150Y21016D01*
X316007Y21018D01*
X315864Y21024D01*
X315721Y21034D01*
X315579Y21048D01*
X315437Y21065D01*
X315295Y21087D01*
X315154Y21112D01*
X315014Y21142D01*
X314875Y21175D01*
X314737Y21212D01*
X314600Y21253D01*
X314464Y21297D01*
X314329Y21346D01*
X314196Y21398D01*
X314064Y21453D01*
X313934Y21513D01*
X313805Y21576D01*
X313678Y21642D01*
X313553Y21712D01*
X313431Y21785D01*
X313310Y21862D01*
X313191Y21942D01*
X313075Y22025D01*
X312960Y22111D01*
X312849Y22200D01*
X312739Y22293D01*
X312633Y22388D01*
X312529Y22487D01*
X312428Y22588D01*
X312329Y22692D01*
X312234Y22798D01*
X312141Y22908D01*
X312052Y23019D01*
X311966Y23134D01*
X311883Y23250D01*
X311803Y23369D01*
X311726Y23490D01*
X311653Y23613D01*
X311583Y23737D01*
X311517Y23864D01*
X311454Y23993D01*
X311394Y24123D01*
X311339Y24255D01*
X311287Y24388D01*
X311238Y24523D01*
X311194Y24659D01*
X311153Y24796D01*
X311116Y24934D01*
X311083Y25073D01*
X311053Y25213D01*
X311028Y25354D01*
X311006Y25496D01*
X310989Y25638D01*
X310975Y25780D01*
X310965Y25923D01*
X310959Y26066D01*
X310957Y26209D01*
X328544Y36595D02*
X332439Y21016D01*
X336333Y31402D01*
X340228Y21016D01*
X344123Y36595D01*
X355218Y21016D02*
X361709Y21016D01*
X355218Y21016D02*
X355096Y21018D01*
X354973Y21024D01*
X354851Y21033D01*
X354730Y21047D01*
X354609Y21064D01*
X354488Y21085D01*
X354368Y21110D01*
X354249Y21138D01*
X354131Y21171D01*
X354014Y21207D01*
X353899Y21246D01*
X353784Y21290D01*
X353671Y21336D01*
X353560Y21387D01*
X353450Y21441D01*
X353342Y21498D01*
X353235Y21558D01*
X353131Y21622D01*
X353029Y21690D01*
X352929Y21760D01*
X352831Y21833D01*
X352735Y21910D01*
X352642Y21989D01*
X352552Y22072D01*
X352464Y22157D01*
X352379Y22245D01*
X352296Y22335D01*
X352217Y22428D01*
X352140Y22524D01*
X352067Y22622D01*
X351997Y22722D01*
X351929Y22824D01*
X351865Y22928D01*
X351805Y23035D01*
X351748Y23143D01*
X351694Y23253D01*
X351643Y23364D01*
X351597Y23477D01*
X351553Y23592D01*
X351514Y23707D01*
X351478Y23824D01*
X351445Y23942D01*
X351417Y24061D01*
X351392Y24181D01*
X351371Y24302D01*
X351354Y24423D01*
X351340Y24544D01*
X351331Y24666D01*
X351325Y24789D01*
X351323Y24911D01*
X351323Y31402D01*
X351325Y31545D01*
X351331Y31688D01*
X351341Y31831D01*
X351355Y31973D01*
X351372Y32115D01*
X351394Y32257D01*
X351419Y32398D01*
X351449Y32538D01*
X351482Y32677D01*
X351519Y32815D01*
X351560Y32952D01*
X351604Y33088D01*
X351653Y33223D01*
X351705Y33356D01*
X351760Y33488D01*
X351820Y33618D01*
X351883Y33747D01*
X351949Y33874D01*
X352019Y33999D01*
X352092Y34121D01*
X352169Y34242D01*
X352249Y34361D01*
X352332Y34477D01*
X352418Y34592D01*
X352507Y34703D01*
X352600Y34813D01*
X352695Y34919D01*
X352794Y35023D01*
X352895Y35124D01*
X352999Y35223D01*
X353105Y35318D01*
X353215Y35411D01*
X353326Y35500D01*
X353441Y35586D01*
X353557Y35669D01*
X353676Y35749D01*
X353797Y35826D01*
X353920Y35899D01*
X354044Y35969D01*
X354171Y36035D01*
X354300Y36098D01*
X354430Y36158D01*
X354562Y36213D01*
X354695Y36265D01*
X354830Y36314D01*
X354966Y36358D01*
X355103Y36399D01*
X355241Y36436D01*
X355380Y36469D01*
X355520Y36499D01*
X355661Y36524D01*
X355803Y36546D01*
X355945Y36563D01*
X356087Y36577D01*
X356230Y36587D01*
X356373Y36593D01*
X356516Y36595D01*
X356659Y36593D01*
X356802Y36587D01*
X356945Y36577D01*
X357087Y36563D01*
X357229Y36546D01*
X357371Y36524D01*
X357512Y36499D01*
X357652Y36469D01*
X357791Y36436D01*
X357929Y36399D01*
X358066Y36358D01*
X358202Y36314D01*
X358337Y36265D01*
X358470Y36213D01*
X358602Y36158D01*
X358732Y36098D01*
X358861Y36035D01*
X358988Y35969D01*
X359113Y35899D01*
X359235Y35826D01*
X359356Y35749D01*
X359475Y35669D01*
X359591Y35586D01*
X359706Y35500D01*
X359817Y35411D01*
X359927Y35318D01*
X360033Y35223D01*
X360137Y35124D01*
X360238Y35023D01*
X360337Y34919D01*
X360432Y34813D01*
X360525Y34703D01*
X360614Y34592D01*
X360700Y34477D01*
X360783Y34361D01*
X360863Y34242D01*
X360940Y34121D01*
X361013Y33999D01*
X361083Y33874D01*
X361149Y33747D01*
X361212Y33618D01*
X361272Y33488D01*
X361327Y33356D01*
X361379Y33223D01*
X361428Y33088D01*
X361472Y32952D01*
X361513Y32815D01*
X361550Y32677D01*
X361583Y32538D01*
X361613Y32398D01*
X361638Y32257D01*
X361660Y32115D01*
X361677Y31973D01*
X361691Y31831D01*
X361701Y31688D01*
X361707Y31545D01*
X361709Y31402D01*
X361709Y28805D01*
X351323Y28805D01*
X370178Y21016D02*
X370178Y36595D01*
X377967Y36595D01*
X377967Y33998D01*
X395958Y44384D02*
X395958Y21016D01*
X395958Y44384D02*
X402449Y44384D01*
X402608Y44382D01*
X402767Y44376D01*
X402927Y44366D01*
X403085Y44353D01*
X403244Y44335D01*
X403401Y44314D01*
X403559Y44288D01*
X403715Y44259D01*
X403871Y44226D01*
X404026Y44189D01*
X404180Y44149D01*
X404333Y44104D01*
X404485Y44056D01*
X404636Y44005D01*
X404785Y43949D01*
X404933Y43890D01*
X405079Y43827D01*
X405224Y43761D01*
X405367Y43691D01*
X405509Y43618D01*
X405648Y43541D01*
X405786Y43461D01*
X405922Y43377D01*
X406055Y43290D01*
X406187Y43200D01*
X406316Y43107D01*
X406442Y43010D01*
X406567Y42911D01*
X406689Y42808D01*
X406808Y42703D01*
X406925Y42594D01*
X407039Y42483D01*
X407150Y42369D01*
X407259Y42252D01*
X407364Y42133D01*
X407467Y42011D01*
X407566Y41886D01*
X407663Y41760D01*
X407756Y41631D01*
X407846Y41499D01*
X407933Y41366D01*
X408017Y41230D01*
X408097Y41092D01*
X408174Y40953D01*
X408247Y40811D01*
X408317Y40668D01*
X408383Y40523D01*
X408446Y40377D01*
X408505Y40229D01*
X408561Y40080D01*
X408612Y39929D01*
X408660Y39777D01*
X408705Y39624D01*
X408745Y39470D01*
X408782Y39315D01*
X408815Y39159D01*
X408844Y39003D01*
X408870Y38845D01*
X408891Y38688D01*
X408909Y38529D01*
X408922Y38371D01*
X408932Y38211D01*
X408938Y38052D01*
X408940Y37893D01*
X408940Y27507D01*
X408938Y27348D01*
X408932Y27189D01*
X408922Y27029D01*
X408909Y26871D01*
X408891Y26712D01*
X408870Y26555D01*
X408844Y26397D01*
X408815Y26241D01*
X408782Y26085D01*
X408745Y25930D01*
X408705Y25776D01*
X408660Y25623D01*
X408612Y25471D01*
X408561Y25320D01*
X408505Y25171D01*
X408446Y25023D01*
X408383Y24877D01*
X408317Y24732D01*
X408247Y24589D01*
X408174Y24447D01*
X408097Y24308D01*
X408017Y24170D01*
X407933Y24034D01*
X407846Y23901D01*
X407756Y23769D01*
X407663Y23640D01*
X407566Y23514D01*
X407467Y23389D01*
X407364Y23267D01*
X407259Y23148D01*
X407150Y23031D01*
X407039Y22917D01*
X406925Y22806D01*
X406808Y22697D01*
X406689Y22592D01*
X406567Y22489D01*
X406442Y22390D01*
X406316Y22293D01*
X406187Y22200D01*
X406055Y22110D01*
X405922Y22023D01*
X405786Y21939D01*
X405648Y21859D01*
X405509Y21782D01*
X405367Y21709D01*
X405224Y21639D01*
X405079Y21573D01*
X404933Y21510D01*
X404785Y21451D01*
X404636Y21395D01*
X404485Y21344D01*
X404333Y21295D01*
X404180Y21251D01*
X404026Y21211D01*
X403871Y21174D01*
X403715Y21141D01*
X403559Y21112D01*
X403401Y21086D01*
X403244Y21065D01*
X403085Y21047D01*
X402926Y21034D01*
X402767Y21024D01*
X402608Y21018D01*
X402449Y21016D01*
X395958Y21016D01*
X417760Y21016D02*
X417760Y36595D01*
X417111Y43086D02*
X417111Y44384D01*
X418409Y44384D01*
X418409Y43086D01*
X417111Y43086D01*
X427738Y30104D02*
X434229Y27507D01*
X427738Y30104D02*
X427632Y30148D01*
X427527Y30197D01*
X427424Y30249D01*
X427323Y30304D01*
X427223Y30363D01*
X427126Y30425D01*
X427031Y30490D01*
X426939Y30559D01*
X426848Y30631D01*
X426761Y30705D01*
X426675Y30783D01*
X426593Y30864D01*
X426513Y30947D01*
X426437Y31033D01*
X426363Y31122D01*
X426292Y31213D01*
X426225Y31307D01*
X426161Y31403D01*
X426100Y31501D01*
X426042Y31600D01*
X425988Y31702D01*
X425938Y31806D01*
X425891Y31911D01*
X425847Y32018D01*
X425808Y32127D01*
X425772Y32236D01*
X425740Y32347D01*
X425711Y32459D01*
X425687Y32571D01*
X425666Y32685D01*
X425650Y32799D01*
X425637Y32914D01*
X425628Y33029D01*
X425623Y33144D01*
X425622Y33259D01*
X425625Y33374D01*
X425632Y33490D01*
X425643Y33604D01*
X425658Y33719D01*
X425677Y33832D01*
X425699Y33946D01*
X425726Y34058D01*
X425756Y34169D01*
X425790Y34279D01*
X425828Y34388D01*
X425869Y34496D01*
X425915Y34602D01*
X425964Y34706D01*
X426016Y34809D01*
X426072Y34910D01*
X426131Y35009D01*
X426194Y35106D01*
X426260Y35200D01*
X426329Y35293D01*
X426401Y35383D01*
X426476Y35470D01*
X426555Y35555D01*
X426636Y35637D01*
X426720Y35716D01*
X426806Y35792D01*
X426895Y35865D01*
X426987Y35935D01*
X427081Y36002D01*
X427177Y36066D01*
X427275Y36126D01*
X427375Y36183D01*
X427477Y36237D01*
X427581Y36287D01*
X427687Y36333D01*
X427794Y36376D01*
X427903Y36415D01*
X428012Y36450D01*
X428123Y36482D01*
X428235Y36510D01*
X428348Y36534D01*
X428462Y36554D01*
X428576Y36570D01*
X428690Y36582D01*
X428805Y36590D01*
X428921Y36594D01*
X429036Y36595D01*
X429036Y36594D02*
X429391Y36585D01*
X429745Y36567D01*
X430098Y36541D01*
X430451Y36506D01*
X430803Y36463D01*
X431154Y36411D01*
X431503Y36351D01*
X431851Y36282D01*
X432197Y36205D01*
X432541Y36120D01*
X432883Y36027D01*
X433222Y35925D01*
X433559Y35815D01*
X433894Y35698D01*
X434225Y35572D01*
X434553Y35438D01*
X434878Y35296D01*
X434229Y27507D02*
X434335Y27463D01*
X434440Y27414D01*
X434543Y27362D01*
X434644Y27307D01*
X434744Y27248D01*
X434841Y27186D01*
X434936Y27121D01*
X435028Y27052D01*
X435119Y26980D01*
X435206Y26906D01*
X435292Y26828D01*
X435374Y26747D01*
X435454Y26664D01*
X435530Y26578D01*
X435604Y26489D01*
X435675Y26398D01*
X435742Y26304D01*
X435806Y26208D01*
X435867Y26110D01*
X435925Y26011D01*
X435979Y25909D01*
X436029Y25805D01*
X436076Y25700D01*
X436120Y25593D01*
X436159Y25484D01*
X436195Y25375D01*
X436227Y25264D01*
X436256Y25152D01*
X436280Y25040D01*
X436301Y24926D01*
X436317Y24812D01*
X436330Y24697D01*
X436339Y24582D01*
X436344Y24467D01*
X436345Y24352D01*
X436342Y24237D01*
X436335Y24121D01*
X436324Y24007D01*
X436309Y23892D01*
X436290Y23779D01*
X436268Y23665D01*
X436241Y23553D01*
X436211Y23442D01*
X436177Y23332D01*
X436139Y23223D01*
X436098Y23115D01*
X436052Y23009D01*
X436003Y22905D01*
X435951Y22802D01*
X435895Y22701D01*
X435836Y22602D01*
X435773Y22505D01*
X435707Y22411D01*
X435638Y22318D01*
X435566Y22228D01*
X435491Y22141D01*
X435412Y22056D01*
X435331Y21974D01*
X435247Y21895D01*
X435161Y21819D01*
X435072Y21746D01*
X434980Y21676D01*
X434886Y21609D01*
X434790Y21545D01*
X434692Y21485D01*
X434592Y21428D01*
X434490Y21374D01*
X434386Y21324D01*
X434280Y21278D01*
X434173Y21235D01*
X434064Y21196D01*
X433955Y21161D01*
X433844Y21129D01*
X433732Y21101D01*
X433619Y21077D01*
X433505Y21057D01*
X433391Y21041D01*
X433277Y21029D01*
X433162Y21021D01*
X433046Y21017D01*
X432931Y21016D01*
X432410Y21030D01*
X431890Y21056D01*
X431371Y21094D01*
X430852Y21144D01*
X430335Y21207D01*
X429820Y21282D01*
X429307Y21369D01*
X428795Y21468D01*
X428287Y21580D01*
X427781Y21703D01*
X427278Y21838D01*
X426778Y21985D01*
X426282Y22144D01*
X425790Y22314D01*
X442316Y36595D02*
X450105Y36595D01*
X444912Y44384D02*
X444912Y24911D01*
X444914Y24789D01*
X444920Y24666D01*
X444929Y24544D01*
X444943Y24423D01*
X444960Y24302D01*
X444981Y24181D01*
X445006Y24061D01*
X445034Y23942D01*
X445067Y23824D01*
X445103Y23707D01*
X445142Y23592D01*
X445186Y23477D01*
X445232Y23364D01*
X445283Y23253D01*
X445337Y23143D01*
X445394Y23035D01*
X445454Y22928D01*
X445518Y22824D01*
X445586Y22722D01*
X445656Y22622D01*
X445729Y22524D01*
X445806Y22428D01*
X445885Y22335D01*
X445968Y22245D01*
X446053Y22157D01*
X446141Y22072D01*
X446231Y21989D01*
X446324Y21910D01*
X446420Y21833D01*
X446518Y21760D01*
X446618Y21690D01*
X446720Y21622D01*
X446824Y21558D01*
X446931Y21498D01*
X447039Y21441D01*
X447149Y21387D01*
X447260Y21336D01*
X447373Y21290D01*
X447488Y21246D01*
X447603Y21207D01*
X447720Y21171D01*
X447838Y21138D01*
X447957Y21110D01*
X448077Y21085D01*
X448198Y21064D01*
X448319Y21047D01*
X448440Y21033D01*
X448562Y21024D01*
X448685Y21018D01*
X448807Y21016D01*
X450105Y21016D01*
X457869Y21016D02*
X457869Y36595D01*
X465658Y36595D01*
X465658Y33998D01*
X472045Y36595D02*
X472045Y21016D01*
X471396Y43086D02*
X471396Y44384D01*
X472694Y44384D01*
X472694Y43086D01*
X471396Y43086D01*
X480822Y44384D02*
X480822Y21016D01*
X487313Y21016D01*
X487435Y21018D01*
X487558Y21024D01*
X487680Y21033D01*
X487801Y21047D01*
X487922Y21064D01*
X488043Y21085D01*
X488163Y21110D01*
X488282Y21138D01*
X488400Y21171D01*
X488517Y21207D01*
X488632Y21246D01*
X488747Y21290D01*
X488860Y21336D01*
X488971Y21387D01*
X489081Y21441D01*
X489189Y21498D01*
X489296Y21558D01*
X489400Y21622D01*
X489502Y21690D01*
X489602Y21760D01*
X489700Y21833D01*
X489796Y21910D01*
X489889Y21989D01*
X489979Y22072D01*
X490067Y22157D01*
X490152Y22245D01*
X490235Y22335D01*
X490314Y22428D01*
X490391Y22524D01*
X490464Y22622D01*
X490534Y22722D01*
X490602Y22824D01*
X490666Y22928D01*
X490726Y23035D01*
X490783Y23143D01*
X490837Y23253D01*
X490888Y23364D01*
X490934Y23477D01*
X490978Y23592D01*
X491017Y23707D01*
X491053Y23824D01*
X491086Y23942D01*
X491114Y24061D01*
X491139Y24181D01*
X491160Y24302D01*
X491177Y24423D01*
X491191Y24544D01*
X491200Y24666D01*
X491206Y24789D01*
X491208Y24911D01*
X491208Y32700D01*
X491206Y32822D01*
X491200Y32945D01*
X491191Y33067D01*
X491177Y33188D01*
X491160Y33309D01*
X491139Y33430D01*
X491114Y33550D01*
X491086Y33669D01*
X491053Y33787D01*
X491017Y33904D01*
X490978Y34019D01*
X490934Y34134D01*
X490888Y34247D01*
X490837Y34358D01*
X490783Y34468D01*
X490726Y34576D01*
X490666Y34683D01*
X490602Y34787D01*
X490534Y34889D01*
X490464Y34989D01*
X490391Y35087D01*
X490314Y35183D01*
X490235Y35276D01*
X490152Y35366D01*
X490067Y35454D01*
X489979Y35539D01*
X489889Y35622D01*
X489796Y35701D01*
X489700Y35778D01*
X489602Y35851D01*
X489502Y35921D01*
X489400Y35989D01*
X489296Y36053D01*
X489189Y36113D01*
X489081Y36170D01*
X488971Y36224D01*
X488860Y36275D01*
X488747Y36321D01*
X488632Y36365D01*
X488517Y36404D01*
X488400Y36440D01*
X488282Y36473D01*
X488163Y36501D01*
X488043Y36526D01*
X487922Y36547D01*
X487801Y36564D01*
X487680Y36578D01*
X487558Y36587D01*
X487435Y36593D01*
X487313Y36595D01*
X480822Y36595D01*
X499562Y36595D02*
X499562Y24911D01*
X499564Y24789D01*
X499570Y24666D01*
X499579Y24544D01*
X499593Y24423D01*
X499610Y24302D01*
X499631Y24181D01*
X499656Y24061D01*
X499684Y23942D01*
X499717Y23824D01*
X499753Y23707D01*
X499792Y23592D01*
X499836Y23477D01*
X499882Y23364D01*
X499933Y23253D01*
X499987Y23143D01*
X500044Y23035D01*
X500104Y22928D01*
X500168Y22824D01*
X500236Y22722D01*
X500306Y22622D01*
X500379Y22524D01*
X500456Y22428D01*
X500535Y22335D01*
X500618Y22245D01*
X500703Y22157D01*
X500791Y22072D01*
X500881Y21989D01*
X500974Y21910D01*
X501070Y21833D01*
X501168Y21760D01*
X501268Y21690D01*
X501370Y21622D01*
X501474Y21558D01*
X501581Y21498D01*
X501689Y21441D01*
X501799Y21387D01*
X501910Y21336D01*
X502023Y21290D01*
X502138Y21246D01*
X502253Y21207D01*
X502370Y21171D01*
X502488Y21138D01*
X502607Y21110D01*
X502727Y21085D01*
X502848Y21064D01*
X502969Y21047D01*
X503090Y21033D01*
X503212Y21024D01*
X503335Y21018D01*
X503457Y21016D01*
X509948Y21016D01*
X509948Y36595D01*
X516783Y36595D02*
X524573Y36595D01*
X519380Y44384D02*
X519380Y24911D01*
X519382Y24789D01*
X519388Y24666D01*
X519397Y24544D01*
X519411Y24423D01*
X519428Y24302D01*
X519449Y24181D01*
X519474Y24061D01*
X519502Y23942D01*
X519535Y23824D01*
X519571Y23707D01*
X519610Y23592D01*
X519654Y23477D01*
X519700Y23364D01*
X519751Y23253D01*
X519805Y23143D01*
X519862Y23035D01*
X519922Y22928D01*
X519986Y22824D01*
X520054Y22722D01*
X520124Y22622D01*
X520197Y22524D01*
X520274Y22428D01*
X520353Y22335D01*
X520436Y22245D01*
X520521Y22157D01*
X520609Y22072D01*
X520699Y21989D01*
X520792Y21910D01*
X520888Y21833D01*
X520986Y21760D01*
X521086Y21690D01*
X521188Y21622D01*
X521292Y21558D01*
X521399Y21498D01*
X521507Y21441D01*
X521617Y21387D01*
X521728Y21336D01*
X521841Y21290D01*
X521956Y21246D01*
X522071Y21207D01*
X522188Y21171D01*
X522306Y21138D01*
X522425Y21110D01*
X522545Y21085D01*
X522666Y21064D01*
X522787Y21047D01*
X522908Y21033D01*
X523030Y21024D01*
X523153Y21018D01*
X523275Y21016D01*
X524573Y21016D01*
X531897Y21016D02*
X531897Y36595D01*
X531248Y43086D02*
X531248Y44384D01*
X532546Y44384D01*
X532546Y43086D01*
X531248Y43086D01*
X539928Y31402D02*
X539928Y26209D01*
X539927Y31402D02*
X539929Y31545D01*
X539935Y31688D01*
X539945Y31831D01*
X539959Y31973D01*
X539976Y32115D01*
X539998Y32257D01*
X540023Y32398D01*
X540053Y32538D01*
X540086Y32677D01*
X540123Y32815D01*
X540164Y32952D01*
X540208Y33088D01*
X540257Y33223D01*
X540309Y33356D01*
X540364Y33488D01*
X540424Y33618D01*
X540487Y33747D01*
X540553Y33874D01*
X540623Y33999D01*
X540696Y34121D01*
X540773Y34242D01*
X540853Y34361D01*
X540936Y34477D01*
X541022Y34592D01*
X541111Y34703D01*
X541204Y34813D01*
X541299Y34919D01*
X541398Y35023D01*
X541499Y35124D01*
X541603Y35223D01*
X541709Y35318D01*
X541819Y35411D01*
X541930Y35500D01*
X542045Y35586D01*
X542161Y35669D01*
X542280Y35749D01*
X542401Y35826D01*
X542524Y35899D01*
X542648Y35969D01*
X542775Y36035D01*
X542904Y36098D01*
X543034Y36158D01*
X543166Y36213D01*
X543299Y36265D01*
X543434Y36314D01*
X543570Y36358D01*
X543707Y36399D01*
X543845Y36436D01*
X543984Y36469D01*
X544124Y36499D01*
X544265Y36524D01*
X544407Y36546D01*
X544549Y36563D01*
X544691Y36577D01*
X544834Y36587D01*
X544977Y36593D01*
X545120Y36595D01*
X545263Y36593D01*
X545406Y36587D01*
X545549Y36577D01*
X545691Y36563D01*
X545833Y36546D01*
X545975Y36524D01*
X546116Y36499D01*
X546256Y36469D01*
X546395Y36436D01*
X546533Y36399D01*
X546670Y36358D01*
X546806Y36314D01*
X546941Y36265D01*
X547074Y36213D01*
X547206Y36158D01*
X547336Y36098D01*
X547465Y36035D01*
X547592Y35969D01*
X547717Y35899D01*
X547839Y35826D01*
X547960Y35749D01*
X548079Y35669D01*
X548195Y35586D01*
X548310Y35500D01*
X548421Y35411D01*
X548531Y35318D01*
X548637Y35223D01*
X548741Y35124D01*
X548842Y35023D01*
X548941Y34919D01*
X549036Y34813D01*
X549129Y34703D01*
X549218Y34592D01*
X549304Y34477D01*
X549387Y34361D01*
X549467Y34242D01*
X549544Y34121D01*
X549617Y33999D01*
X549687Y33874D01*
X549753Y33747D01*
X549816Y33618D01*
X549876Y33488D01*
X549931Y33356D01*
X549983Y33223D01*
X550032Y33088D01*
X550076Y32952D01*
X550117Y32815D01*
X550154Y32677D01*
X550187Y32538D01*
X550217Y32398D01*
X550242Y32257D01*
X550264Y32115D01*
X550281Y31973D01*
X550295Y31831D01*
X550305Y31688D01*
X550311Y31545D01*
X550313Y31402D01*
X550313Y26209D01*
X550311Y26066D01*
X550305Y25923D01*
X550295Y25780D01*
X550281Y25638D01*
X550264Y25496D01*
X550242Y25354D01*
X550217Y25213D01*
X550187Y25073D01*
X550154Y24934D01*
X550117Y24796D01*
X550076Y24659D01*
X550032Y24523D01*
X549983Y24388D01*
X549931Y24255D01*
X549876Y24123D01*
X549816Y23993D01*
X549753Y23864D01*
X549687Y23737D01*
X549617Y23612D01*
X549544Y23490D01*
X549467Y23369D01*
X549387Y23250D01*
X549304Y23134D01*
X549218Y23019D01*
X549129Y22908D01*
X549036Y22798D01*
X548941Y22692D01*
X548842Y22588D01*
X548741Y22487D01*
X548637Y22388D01*
X548531Y22293D01*
X548421Y22200D01*
X548310Y22111D01*
X548195Y22025D01*
X548079Y21942D01*
X547960Y21862D01*
X547839Y21785D01*
X547716Y21712D01*
X547592Y21642D01*
X547465Y21576D01*
X547336Y21513D01*
X547206Y21453D01*
X547074Y21398D01*
X546941Y21346D01*
X546806Y21297D01*
X546670Y21253D01*
X546533Y21212D01*
X546395Y21175D01*
X546256Y21142D01*
X546116Y21112D01*
X545975Y21087D01*
X545833Y21065D01*
X545691Y21048D01*
X545549Y21034D01*
X545406Y21024D01*
X545263Y21018D01*
X545120Y21016D01*
X544977Y21018D01*
X544834Y21024D01*
X544691Y21034D01*
X544549Y21048D01*
X544407Y21065D01*
X544265Y21087D01*
X544124Y21112D01*
X543984Y21142D01*
X543845Y21175D01*
X543707Y21212D01*
X543570Y21253D01*
X543434Y21297D01*
X543299Y21346D01*
X543166Y21398D01*
X543034Y21453D01*
X542904Y21513D01*
X542775Y21576D01*
X542648Y21642D01*
X542524Y21712D01*
X542401Y21785D01*
X542280Y21862D01*
X542161Y21942D01*
X542045Y22025D01*
X541930Y22111D01*
X541819Y22200D01*
X541709Y22293D01*
X541603Y22388D01*
X541499Y22487D01*
X541398Y22588D01*
X541299Y22692D01*
X541204Y22798D01*
X541111Y22908D01*
X541022Y23019D01*
X540936Y23134D01*
X540853Y23250D01*
X540773Y23369D01*
X540696Y23490D01*
X540623Y23613D01*
X540553Y23737D01*
X540487Y23864D01*
X540424Y23993D01*
X540364Y24123D01*
X540309Y24255D01*
X540257Y24388D01*
X540208Y24523D01*
X540164Y24659D01*
X540123Y24796D01*
X540086Y24934D01*
X540053Y25073D01*
X540023Y25213D01*
X539998Y25354D01*
X539976Y25496D01*
X539959Y25638D01*
X539945Y25780D01*
X539935Y25923D01*
X539929Y26066D01*
X539927Y26209D01*
X558718Y21016D02*
X558718Y36595D01*
X565210Y36595D01*
X565332Y36593D01*
X565455Y36587D01*
X565577Y36578D01*
X565698Y36564D01*
X565819Y36547D01*
X565940Y36526D01*
X566060Y36501D01*
X566179Y36473D01*
X566297Y36440D01*
X566414Y36404D01*
X566529Y36365D01*
X566644Y36321D01*
X566757Y36275D01*
X566868Y36224D01*
X566978Y36170D01*
X567086Y36113D01*
X567193Y36053D01*
X567297Y35989D01*
X567399Y35921D01*
X567499Y35851D01*
X567597Y35778D01*
X567693Y35701D01*
X567786Y35622D01*
X567876Y35539D01*
X567964Y35454D01*
X568049Y35366D01*
X568132Y35276D01*
X568211Y35183D01*
X568288Y35087D01*
X568361Y34989D01*
X568431Y34889D01*
X568499Y34787D01*
X568563Y34683D01*
X568623Y34576D01*
X568680Y34468D01*
X568734Y34358D01*
X568785Y34247D01*
X568831Y34134D01*
X568875Y34019D01*
X568914Y33904D01*
X568950Y33787D01*
X568983Y33669D01*
X569011Y33550D01*
X569036Y33430D01*
X569057Y33309D01*
X569074Y33188D01*
X569088Y33067D01*
X569097Y32945D01*
X569103Y32822D01*
X569105Y32700D01*
X569104Y32700D02*
X569104Y21016D01*
X589582Y33998D02*
X596073Y33998D01*
X596232Y33996D01*
X596391Y33990D01*
X596551Y33980D01*
X596709Y33967D01*
X596868Y33949D01*
X597025Y33928D01*
X597183Y33902D01*
X597339Y33873D01*
X597495Y33840D01*
X597650Y33803D01*
X597804Y33763D01*
X597957Y33718D01*
X598109Y33670D01*
X598260Y33619D01*
X598409Y33563D01*
X598557Y33504D01*
X598703Y33441D01*
X598848Y33375D01*
X598991Y33305D01*
X599133Y33232D01*
X599272Y33155D01*
X599410Y33075D01*
X599546Y32991D01*
X599679Y32904D01*
X599811Y32814D01*
X599940Y32721D01*
X600066Y32624D01*
X600191Y32525D01*
X600313Y32422D01*
X600432Y32317D01*
X600549Y32208D01*
X600663Y32097D01*
X600774Y31983D01*
X600883Y31866D01*
X600988Y31747D01*
X601091Y31625D01*
X601190Y31500D01*
X601287Y31374D01*
X601380Y31245D01*
X601470Y31113D01*
X601557Y30980D01*
X601641Y30844D01*
X601721Y30706D01*
X601798Y30567D01*
X601871Y30425D01*
X601941Y30282D01*
X602007Y30137D01*
X602070Y29991D01*
X602129Y29843D01*
X602185Y29694D01*
X602236Y29543D01*
X602284Y29391D01*
X602329Y29238D01*
X602369Y29084D01*
X602406Y28929D01*
X602439Y28773D01*
X602468Y28617D01*
X602494Y28459D01*
X602515Y28302D01*
X602533Y28143D01*
X602546Y27985D01*
X602556Y27825D01*
X602562Y27666D01*
X602564Y27507D01*
X602562Y27348D01*
X602556Y27189D01*
X602546Y27029D01*
X602533Y26871D01*
X602515Y26712D01*
X602494Y26555D01*
X602468Y26397D01*
X602439Y26241D01*
X602406Y26085D01*
X602369Y25930D01*
X602329Y25776D01*
X602284Y25623D01*
X602236Y25471D01*
X602185Y25320D01*
X602129Y25171D01*
X602070Y25023D01*
X602007Y24877D01*
X601941Y24732D01*
X601871Y24589D01*
X601798Y24447D01*
X601721Y24308D01*
X601641Y24170D01*
X601557Y24034D01*
X601470Y23901D01*
X601380Y23769D01*
X601287Y23640D01*
X601190Y23514D01*
X601091Y23389D01*
X600988Y23267D01*
X600883Y23148D01*
X600774Y23031D01*
X600663Y22917D01*
X600549Y22806D01*
X600432Y22697D01*
X600313Y22592D01*
X600191Y22489D01*
X600066Y22390D01*
X599940Y22293D01*
X599811Y22200D01*
X599679Y22110D01*
X599546Y22023D01*
X599410Y21939D01*
X599272Y21859D01*
X599133Y21782D01*
X598991Y21709D01*
X598848Y21639D01*
X598703Y21573D01*
X598557Y21510D01*
X598409Y21451D01*
X598260Y21395D01*
X598109Y21344D01*
X597957Y21296D01*
X597804Y21251D01*
X597650Y21211D01*
X597495Y21174D01*
X597339Y21141D01*
X597183Y21112D01*
X597025Y21086D01*
X596868Y21065D01*
X596709Y21047D01*
X596551Y21034D01*
X596391Y21024D01*
X596232Y21018D01*
X596073Y21016D01*
X589582Y21016D01*
X589582Y44384D01*
X596073Y44384D01*
X596216Y44382D01*
X596359Y44376D01*
X596502Y44366D01*
X596644Y44352D01*
X596786Y44335D01*
X596928Y44313D01*
X597069Y44288D01*
X597209Y44258D01*
X597348Y44225D01*
X597486Y44188D01*
X597623Y44147D01*
X597759Y44103D01*
X597894Y44054D01*
X598027Y44002D01*
X598159Y43947D01*
X598289Y43887D01*
X598418Y43824D01*
X598545Y43758D01*
X598670Y43688D01*
X598792Y43615D01*
X598913Y43538D01*
X599032Y43458D01*
X599148Y43375D01*
X599263Y43289D01*
X599374Y43200D01*
X599484Y43107D01*
X599590Y43012D01*
X599694Y42913D01*
X599795Y42812D01*
X599894Y42708D01*
X599989Y42602D01*
X600082Y42492D01*
X600171Y42381D01*
X600257Y42266D01*
X600340Y42150D01*
X600420Y42031D01*
X600497Y41910D01*
X600570Y41787D01*
X600640Y41663D01*
X600706Y41536D01*
X600769Y41407D01*
X600829Y41277D01*
X600884Y41145D01*
X600936Y41012D01*
X600985Y40877D01*
X601029Y40741D01*
X601070Y40604D01*
X601107Y40466D01*
X601140Y40327D01*
X601170Y40187D01*
X601195Y40046D01*
X601217Y39904D01*
X601234Y39762D01*
X601248Y39620D01*
X601258Y39477D01*
X601264Y39334D01*
X601266Y39191D01*
X601264Y39048D01*
X601258Y38905D01*
X601248Y38762D01*
X601234Y38620D01*
X601217Y38478D01*
X601195Y38336D01*
X601170Y38195D01*
X601140Y38055D01*
X601107Y37916D01*
X601070Y37778D01*
X601029Y37641D01*
X600985Y37505D01*
X600936Y37370D01*
X600884Y37237D01*
X600829Y37105D01*
X600769Y36975D01*
X600706Y36846D01*
X600640Y36719D01*
X600570Y36594D01*
X600497Y36472D01*
X600420Y36351D01*
X600340Y36232D01*
X600257Y36116D01*
X600171Y36001D01*
X600082Y35890D01*
X599989Y35780D01*
X599894Y35674D01*
X599795Y35570D01*
X599694Y35469D01*
X599590Y35370D01*
X599484Y35275D01*
X599374Y35182D01*
X599263Y35093D01*
X599148Y35007D01*
X599032Y34924D01*
X598913Y34844D01*
X598792Y34767D01*
X598670Y34694D01*
X598545Y34624D01*
X598418Y34558D01*
X598289Y34495D01*
X598159Y34435D01*
X598027Y34380D01*
X597894Y34328D01*
X597759Y34279D01*
X597623Y34235D01*
X597486Y34194D01*
X597348Y34157D01*
X597209Y34124D01*
X597069Y34094D01*
X596928Y34069D01*
X596786Y34047D01*
X596644Y34030D01*
X596502Y34016D01*
X596359Y34006D01*
X596216Y34000D01*
X596073Y33998D01*
X609523Y31402D02*
X609523Y26209D01*
X609523Y31402D02*
X609525Y31545D01*
X609531Y31688D01*
X609541Y31831D01*
X609555Y31973D01*
X609572Y32115D01*
X609594Y32257D01*
X609619Y32398D01*
X609649Y32538D01*
X609682Y32677D01*
X609719Y32815D01*
X609760Y32952D01*
X609804Y33088D01*
X609853Y33223D01*
X609905Y33356D01*
X609960Y33488D01*
X610020Y33618D01*
X610083Y33747D01*
X610149Y33874D01*
X610219Y33999D01*
X610292Y34121D01*
X610369Y34242D01*
X610449Y34361D01*
X610532Y34477D01*
X610618Y34592D01*
X610707Y34703D01*
X610800Y34813D01*
X610895Y34919D01*
X610994Y35023D01*
X611095Y35124D01*
X611199Y35223D01*
X611305Y35318D01*
X611415Y35411D01*
X611526Y35500D01*
X611641Y35586D01*
X611757Y35669D01*
X611876Y35749D01*
X611997Y35826D01*
X612120Y35899D01*
X612244Y35969D01*
X612371Y36035D01*
X612500Y36098D01*
X612630Y36158D01*
X612762Y36213D01*
X612895Y36265D01*
X613030Y36314D01*
X613166Y36358D01*
X613303Y36399D01*
X613441Y36436D01*
X613580Y36469D01*
X613720Y36499D01*
X613861Y36524D01*
X614003Y36546D01*
X614145Y36563D01*
X614287Y36577D01*
X614430Y36587D01*
X614573Y36593D01*
X614716Y36595D01*
X614859Y36593D01*
X615002Y36587D01*
X615145Y36577D01*
X615287Y36563D01*
X615429Y36546D01*
X615571Y36524D01*
X615712Y36499D01*
X615852Y36469D01*
X615991Y36436D01*
X616129Y36399D01*
X616266Y36358D01*
X616402Y36314D01*
X616537Y36265D01*
X616670Y36213D01*
X616802Y36158D01*
X616932Y36098D01*
X617061Y36035D01*
X617188Y35969D01*
X617313Y35899D01*
X617435Y35826D01*
X617556Y35749D01*
X617675Y35669D01*
X617791Y35586D01*
X617906Y35500D01*
X618017Y35411D01*
X618127Y35318D01*
X618233Y35223D01*
X618337Y35124D01*
X618438Y35023D01*
X618537Y34919D01*
X618632Y34813D01*
X618725Y34703D01*
X618814Y34592D01*
X618900Y34477D01*
X618983Y34361D01*
X619063Y34242D01*
X619140Y34121D01*
X619213Y33999D01*
X619283Y33874D01*
X619349Y33747D01*
X619412Y33618D01*
X619472Y33488D01*
X619527Y33356D01*
X619579Y33223D01*
X619628Y33088D01*
X619672Y32952D01*
X619713Y32815D01*
X619750Y32677D01*
X619783Y32538D01*
X619813Y32398D01*
X619838Y32257D01*
X619860Y32115D01*
X619877Y31973D01*
X619891Y31831D01*
X619901Y31688D01*
X619907Y31545D01*
X619909Y31402D01*
X619909Y26209D01*
X619907Y26066D01*
X619901Y25923D01*
X619891Y25780D01*
X619877Y25638D01*
X619860Y25496D01*
X619838Y25354D01*
X619813Y25213D01*
X619783Y25073D01*
X619750Y24934D01*
X619713Y24796D01*
X619672Y24659D01*
X619628Y24523D01*
X619579Y24388D01*
X619527Y24255D01*
X619472Y24123D01*
X619412Y23993D01*
X619349Y23864D01*
X619283Y23737D01*
X619213Y23612D01*
X619140Y23490D01*
X619063Y23369D01*
X618983Y23250D01*
X618900Y23134D01*
X618814Y23019D01*
X618725Y22908D01*
X618632Y22798D01*
X618537Y22692D01*
X618438Y22588D01*
X618337Y22487D01*
X618233Y22388D01*
X618127Y22293D01*
X618017Y22200D01*
X617906Y22111D01*
X617791Y22025D01*
X617675Y21942D01*
X617556Y21862D01*
X617435Y21785D01*
X617312Y21712D01*
X617188Y21642D01*
X617061Y21576D01*
X616932Y21513D01*
X616802Y21453D01*
X616670Y21398D01*
X616537Y21346D01*
X616402Y21297D01*
X616266Y21253D01*
X616129Y21212D01*
X615991Y21175D01*
X615852Y21142D01*
X615712Y21112D01*
X615571Y21087D01*
X615429Y21065D01*
X615287Y21048D01*
X615145Y21034D01*
X615002Y21024D01*
X614859Y21018D01*
X614716Y21016D01*
X614573Y21018D01*
X614430Y21024D01*
X614287Y21034D01*
X614145Y21048D01*
X614003Y21065D01*
X613861Y21087D01*
X613720Y21112D01*
X613580Y21142D01*
X613441Y21175D01*
X613303Y21212D01*
X613166Y21253D01*
X613030Y21297D01*
X612895Y21346D01*
X612762Y21398D01*
X612630Y21453D01*
X612500Y21513D01*
X612371Y21576D01*
X612244Y21642D01*
X612120Y21712D01*
X611997Y21785D01*
X611876Y21862D01*
X611757Y21942D01*
X611641Y22025D01*
X611526Y22111D01*
X611415Y22200D01*
X611305Y22293D01*
X611199Y22388D01*
X611095Y22487D01*
X610994Y22588D01*
X610895Y22692D01*
X610800Y22798D01*
X610707Y22908D01*
X610618Y23019D01*
X610532Y23134D01*
X610449Y23250D01*
X610369Y23369D01*
X610292Y23490D01*
X610219Y23613D01*
X610149Y23737D01*
X610083Y23864D01*
X610020Y23993D01*
X609960Y24123D01*
X609905Y24255D01*
X609853Y24388D01*
X609804Y24523D01*
X609760Y24659D01*
X609719Y24796D01*
X609682Y24934D01*
X609649Y25073D01*
X609619Y25213D01*
X609594Y25354D01*
X609572Y25496D01*
X609555Y25638D01*
X609541Y25780D01*
X609531Y25923D01*
X609525Y26066D01*
X609523Y26209D01*
X632111Y30104D02*
X637953Y30104D01*
X632111Y30104D02*
X631978Y30102D01*
X631844Y30096D01*
X631711Y30086D01*
X631579Y30073D01*
X631446Y30055D01*
X631315Y30034D01*
X631184Y30008D01*
X631053Y29979D01*
X630924Y29946D01*
X630796Y29910D01*
X630669Y29869D01*
X630543Y29825D01*
X630418Y29777D01*
X630295Y29725D01*
X630174Y29670D01*
X630054Y29612D01*
X629936Y29550D01*
X629820Y29484D01*
X629706Y29415D01*
X629593Y29343D01*
X629483Y29267D01*
X629376Y29189D01*
X629270Y29107D01*
X629168Y29022D01*
X629067Y28934D01*
X628969Y28843D01*
X628874Y28749D01*
X628782Y28653D01*
X628693Y28554D01*
X628606Y28452D01*
X628523Y28348D01*
X628443Y28242D01*
X628366Y28133D01*
X628292Y28022D01*
X628221Y27909D01*
X628154Y27793D01*
X628090Y27676D01*
X628029Y27557D01*
X627973Y27437D01*
X627919Y27314D01*
X627870Y27190D01*
X627824Y27065D01*
X627781Y26939D01*
X627743Y26811D01*
X627708Y26682D01*
X627677Y26553D01*
X627649Y26422D01*
X627626Y26291D01*
X627607Y26159D01*
X627591Y26026D01*
X627579Y25893D01*
X627571Y25760D01*
X627567Y25627D01*
X627567Y25493D01*
X627571Y25360D01*
X627579Y25227D01*
X627591Y25094D01*
X627607Y24961D01*
X627626Y24829D01*
X627649Y24698D01*
X627677Y24567D01*
X627708Y24438D01*
X627743Y24309D01*
X627781Y24181D01*
X627824Y24055D01*
X627870Y23930D01*
X627919Y23806D01*
X627973Y23683D01*
X628029Y23563D01*
X628090Y23444D01*
X628154Y23327D01*
X628221Y23211D01*
X628292Y23098D01*
X628366Y22987D01*
X628443Y22878D01*
X628523Y22772D01*
X628606Y22668D01*
X628693Y22566D01*
X628782Y22467D01*
X628874Y22371D01*
X628969Y22277D01*
X629067Y22186D01*
X629168Y22098D01*
X629270Y22013D01*
X629376Y21931D01*
X629483Y21853D01*
X629593Y21777D01*
X629706Y21705D01*
X629820Y21636D01*
X629936Y21570D01*
X630054Y21508D01*
X630174Y21450D01*
X630295Y21395D01*
X630418Y21343D01*
X630543Y21295D01*
X630669Y21251D01*
X630796Y21210D01*
X630924Y21174D01*
X631053Y21141D01*
X631184Y21112D01*
X631315Y21086D01*
X631446Y21065D01*
X631579Y21047D01*
X631711Y21034D01*
X631844Y21024D01*
X631978Y21018D01*
X632111Y21016D01*
X637953Y21016D01*
X637953Y32700D01*
X637951Y32822D01*
X637945Y32945D01*
X637936Y33067D01*
X637922Y33188D01*
X637905Y33309D01*
X637884Y33430D01*
X637859Y33550D01*
X637831Y33669D01*
X637798Y33787D01*
X637762Y33904D01*
X637723Y34019D01*
X637679Y34134D01*
X637633Y34247D01*
X637582Y34358D01*
X637528Y34468D01*
X637471Y34576D01*
X637411Y34683D01*
X637347Y34787D01*
X637279Y34889D01*
X637209Y34989D01*
X637136Y35087D01*
X637059Y35183D01*
X636980Y35276D01*
X636897Y35366D01*
X636812Y35454D01*
X636724Y35539D01*
X636634Y35622D01*
X636541Y35701D01*
X636445Y35778D01*
X636347Y35851D01*
X636247Y35921D01*
X636145Y35989D01*
X636041Y36053D01*
X635934Y36113D01*
X635826Y36170D01*
X635716Y36224D01*
X635605Y36275D01*
X635492Y36321D01*
X635377Y36365D01*
X635262Y36404D01*
X635145Y36440D01*
X635027Y36473D01*
X634908Y36501D01*
X634788Y36526D01*
X634667Y36547D01*
X634546Y36564D01*
X634425Y36578D01*
X634303Y36587D01*
X634180Y36593D01*
X634058Y36595D01*
X628866Y36595D01*
X647169Y36595D02*
X647169Y21016D01*
X647169Y36595D02*
X654958Y36595D01*
X654958Y33998D01*
X671359Y44384D02*
X671359Y21016D01*
X664868Y21016D01*
X664746Y21018D01*
X664623Y21024D01*
X664501Y21033D01*
X664380Y21047D01*
X664259Y21064D01*
X664138Y21085D01*
X664018Y21110D01*
X663899Y21138D01*
X663781Y21171D01*
X663664Y21207D01*
X663549Y21246D01*
X663434Y21290D01*
X663321Y21336D01*
X663210Y21387D01*
X663100Y21441D01*
X662992Y21498D01*
X662885Y21558D01*
X662781Y21622D01*
X662679Y21690D01*
X662579Y21760D01*
X662481Y21833D01*
X662385Y21910D01*
X662292Y21989D01*
X662202Y22072D01*
X662114Y22157D01*
X662029Y22245D01*
X661946Y22335D01*
X661867Y22428D01*
X661790Y22524D01*
X661717Y22622D01*
X661647Y22722D01*
X661579Y22824D01*
X661515Y22928D01*
X661455Y23035D01*
X661398Y23143D01*
X661344Y23253D01*
X661293Y23364D01*
X661247Y23477D01*
X661203Y23592D01*
X661164Y23707D01*
X661128Y23824D01*
X661095Y23942D01*
X661067Y24061D01*
X661042Y24181D01*
X661021Y24302D01*
X661004Y24423D01*
X660990Y24544D01*
X660981Y24666D01*
X660975Y24789D01*
X660973Y24911D01*
X660973Y32700D01*
X660975Y32822D01*
X660981Y32945D01*
X660990Y33067D01*
X661004Y33188D01*
X661021Y33309D01*
X661042Y33430D01*
X661067Y33550D01*
X661095Y33669D01*
X661128Y33787D01*
X661164Y33904D01*
X661203Y34019D01*
X661247Y34134D01*
X661293Y34247D01*
X661344Y34358D01*
X661398Y34468D01*
X661455Y34576D01*
X661515Y34683D01*
X661579Y34787D01*
X661647Y34889D01*
X661717Y34989D01*
X661790Y35087D01*
X661867Y35183D01*
X661946Y35276D01*
X662029Y35366D01*
X662114Y35454D01*
X662202Y35539D01*
X662292Y35622D01*
X662385Y35701D01*
X662481Y35778D01*
X662579Y35851D01*
X662679Y35921D01*
X662781Y35989D01*
X662885Y36053D01*
X662992Y36113D01*
X663100Y36170D01*
X663210Y36224D01*
X663321Y36275D01*
X663434Y36321D01*
X663549Y36365D01*
X663664Y36404D01*
X663781Y36440D01*
X663899Y36473D01*
X664018Y36501D01*
X664138Y36526D01*
X664259Y36547D01*
X664380Y36564D01*
X664501Y36578D01*
X664623Y36587D01*
X664746Y36593D01*
X664868Y36595D01*
X671359Y36595D01*
D10*
X57018Y103138D02*
X40762Y103138D01*
X57018Y101332D02*
X57018Y104945D01*
X40762Y104945D02*
X40762Y101332D01*
X40762Y111649D02*
X57018Y111649D01*
X57018Y120680D02*
X40762Y111649D01*
X40762Y120680D02*
X57018Y120680D01*
X57018Y128533D02*
X40762Y128533D01*
X40762Y133049D01*
X40764Y133182D01*
X40770Y133314D01*
X40780Y133446D01*
X40793Y133578D01*
X40811Y133710D01*
X40832Y133840D01*
X40857Y133971D01*
X40886Y134100D01*
X40919Y134228D01*
X40955Y134356D01*
X40995Y134482D01*
X41039Y134607D01*
X41087Y134731D01*
X41138Y134853D01*
X41193Y134974D01*
X41251Y135093D01*
X41313Y135211D01*
X41378Y135326D01*
X41447Y135440D01*
X41518Y135551D01*
X41594Y135660D01*
X41672Y135767D01*
X41753Y135872D01*
X41838Y135974D01*
X41925Y136074D01*
X42015Y136171D01*
X42108Y136266D01*
X42204Y136357D01*
X42302Y136446D01*
X42403Y136532D01*
X42507Y136615D01*
X42613Y136695D01*
X42721Y136771D01*
X42831Y136845D01*
X42944Y136915D01*
X43058Y136982D01*
X43175Y137045D01*
X43293Y137105D01*
X43413Y137162D01*
X43535Y137215D01*
X43658Y137264D01*
X43782Y137310D01*
X43908Y137352D01*
X44035Y137390D01*
X44163Y137425D01*
X44292Y137456D01*
X44421Y137483D01*
X44552Y137506D01*
X44683Y137526D01*
X44815Y137541D01*
X44947Y137553D01*
X45079Y137561D01*
X45212Y137565D01*
X45344Y137565D01*
X45477Y137561D01*
X45609Y137553D01*
X45741Y137541D01*
X45873Y137526D01*
X46004Y137506D01*
X46135Y137483D01*
X46264Y137456D01*
X46393Y137425D01*
X46521Y137390D01*
X46648Y137352D01*
X46774Y137310D01*
X46898Y137264D01*
X47021Y137215D01*
X47143Y137162D01*
X47263Y137105D01*
X47381Y137045D01*
X47498Y136982D01*
X47612Y136915D01*
X47725Y136845D01*
X47835Y136771D01*
X47943Y136695D01*
X48049Y136615D01*
X48153Y136532D01*
X48254Y136446D01*
X48352Y136357D01*
X48448Y136266D01*
X48541Y136171D01*
X48631Y136074D01*
X48718Y135974D01*
X48803Y135872D01*
X48884Y135767D01*
X48962Y135660D01*
X49038Y135551D01*
X49109Y135440D01*
X49178Y135326D01*
X49243Y135211D01*
X49305Y135093D01*
X49363Y134974D01*
X49418Y134853D01*
X49469Y134731D01*
X49517Y134607D01*
X49561Y134482D01*
X49601Y134356D01*
X49637Y134228D01*
X49670Y134100D01*
X49699Y133971D01*
X49724Y133840D01*
X49745Y133710D01*
X49763Y133578D01*
X49776Y133446D01*
X49786Y133314D01*
X49792Y133182D01*
X49794Y133049D01*
X49793Y133049D02*
X49793Y128533D01*
X52502Y143953D02*
X40762Y143953D01*
X52502Y143953D02*
X52635Y143955D01*
X52767Y143961D01*
X52899Y143971D01*
X53031Y143984D01*
X53163Y144002D01*
X53293Y144023D01*
X53424Y144048D01*
X53553Y144077D01*
X53681Y144110D01*
X53809Y144146D01*
X53935Y144186D01*
X54060Y144230D01*
X54184Y144278D01*
X54306Y144329D01*
X54427Y144384D01*
X54546Y144442D01*
X54664Y144504D01*
X54779Y144569D01*
X54893Y144638D01*
X55004Y144709D01*
X55113Y144785D01*
X55220Y144863D01*
X55325Y144944D01*
X55427Y145029D01*
X55527Y145116D01*
X55624Y145206D01*
X55719Y145299D01*
X55810Y145395D01*
X55899Y145493D01*
X55985Y145594D01*
X56068Y145698D01*
X56148Y145804D01*
X56224Y145912D01*
X56298Y146022D01*
X56368Y146135D01*
X56435Y146249D01*
X56498Y146366D01*
X56558Y146484D01*
X56615Y146604D01*
X56668Y146726D01*
X56717Y146849D01*
X56763Y146973D01*
X56805Y147099D01*
X56843Y147226D01*
X56878Y147354D01*
X56909Y147483D01*
X56936Y147612D01*
X56959Y147743D01*
X56979Y147874D01*
X56994Y148006D01*
X57006Y148138D01*
X57014Y148270D01*
X57018Y148403D01*
X57018Y148535D01*
X57014Y148668D01*
X57006Y148800D01*
X56994Y148932D01*
X56979Y149064D01*
X56959Y149195D01*
X56936Y149326D01*
X56909Y149455D01*
X56878Y149584D01*
X56843Y149712D01*
X56805Y149839D01*
X56763Y149965D01*
X56717Y150089D01*
X56668Y150212D01*
X56615Y150334D01*
X56558Y150454D01*
X56498Y150572D01*
X56435Y150689D01*
X56368Y150803D01*
X56298Y150916D01*
X56224Y151026D01*
X56148Y151134D01*
X56068Y151240D01*
X55985Y151344D01*
X55899Y151445D01*
X55810Y151543D01*
X55719Y151639D01*
X55624Y151732D01*
X55527Y151822D01*
X55427Y151909D01*
X55325Y151994D01*
X55220Y152075D01*
X55113Y152153D01*
X55004Y152229D01*
X54893Y152300D01*
X54779Y152369D01*
X54664Y152434D01*
X54546Y152496D01*
X54427Y152554D01*
X54306Y152609D01*
X54184Y152660D01*
X54060Y152708D01*
X53935Y152752D01*
X53809Y152792D01*
X53681Y152828D01*
X53553Y152861D01*
X53424Y152890D01*
X53293Y152915D01*
X53163Y152936D01*
X53031Y152954D01*
X52899Y152967D01*
X52767Y152977D01*
X52635Y152983D01*
X52502Y152985D01*
X52502Y152984D02*
X40762Y152984D01*
X40762Y163579D02*
X57018Y163579D01*
X40762Y159064D02*
X40762Y168095D01*
X50696Y182128D02*
X50696Y192966D01*
X44374Y208041D02*
X40762Y212557D01*
X57018Y212557D01*
X57018Y217072D02*
X57018Y208041D01*
X40762Y228640D02*
X40764Y228765D01*
X40770Y228890D01*
X40779Y229015D01*
X40793Y229139D01*
X40810Y229263D01*
X40831Y229387D01*
X40856Y229509D01*
X40885Y229631D01*
X40917Y229752D01*
X40953Y229872D01*
X40993Y229991D01*
X41036Y230108D01*
X41083Y230224D01*
X41134Y230339D01*
X41188Y230451D01*
X41246Y230563D01*
X41306Y230672D01*
X41371Y230779D01*
X41438Y230885D01*
X41509Y230988D01*
X41583Y231089D01*
X41660Y231188D01*
X41740Y231284D01*
X41823Y231378D01*
X41908Y231469D01*
X41997Y231558D01*
X42088Y231643D01*
X42182Y231726D01*
X42278Y231806D01*
X42377Y231883D01*
X42478Y231957D01*
X42581Y232028D01*
X42687Y232095D01*
X42794Y232160D01*
X42903Y232220D01*
X43015Y232278D01*
X43127Y232332D01*
X43242Y232383D01*
X43358Y232430D01*
X43475Y232473D01*
X43594Y232513D01*
X43714Y232549D01*
X43835Y232581D01*
X43957Y232610D01*
X44079Y232635D01*
X44203Y232656D01*
X44327Y232673D01*
X44451Y232687D01*
X44576Y232696D01*
X44701Y232702D01*
X44826Y232704D01*
X40762Y228640D02*
X40764Y228497D01*
X40770Y228355D01*
X40780Y228212D01*
X40793Y228070D01*
X40811Y227929D01*
X40832Y227787D01*
X40857Y227647D01*
X40886Y227507D01*
X40919Y227368D01*
X40956Y227230D01*
X40996Y227093D01*
X41040Y226958D01*
X41088Y226823D01*
X41140Y226690D01*
X41195Y226558D01*
X41254Y226428D01*
X41316Y226300D01*
X41382Y226173D01*
X41451Y226048D01*
X41523Y225925D01*
X41599Y225804D01*
X41678Y225686D01*
X41761Y225569D01*
X41846Y225455D01*
X41935Y225343D01*
X42026Y225234D01*
X42121Y225127D01*
X42218Y225022D01*
X42319Y224921D01*
X42422Y224822D01*
X42527Y224726D01*
X42636Y224633D01*
X42747Y224543D01*
X42860Y224456D01*
X42975Y224372D01*
X43093Y224292D01*
X43213Y224214D01*
X43335Y224140D01*
X43459Y224070D01*
X43585Y224002D01*
X43713Y223939D01*
X43842Y223878D01*
X43973Y223821D01*
X44105Y223768D01*
X44239Y223719D01*
X44374Y223673D01*
X47987Y231349D02*
X47895Y231443D01*
X47801Y231533D01*
X47704Y231621D01*
X47604Y231706D01*
X47502Y231788D01*
X47397Y231866D01*
X47290Y231942D01*
X47181Y232014D01*
X47070Y232083D01*
X46956Y232149D01*
X46841Y232211D01*
X46724Y232270D01*
X46605Y232325D01*
X46485Y232376D01*
X46363Y232424D01*
X46240Y232469D01*
X46116Y232509D01*
X45990Y232546D01*
X45863Y232579D01*
X45736Y232608D01*
X45607Y232634D01*
X45478Y232655D01*
X45348Y232673D01*
X45218Y232686D01*
X45088Y232696D01*
X44957Y232702D01*
X44826Y232704D01*
X47987Y231349D02*
X57018Y223673D01*
X57018Y232704D01*
X57018Y243819D02*
X40762Y238401D01*
X40762Y249238D02*
X57018Y243819D01*
X317430Y218520D02*
X317588Y218518D01*
X317747Y218512D01*
X317905Y218502D01*
X318062Y218488D01*
X318220Y218471D01*
X318376Y218449D01*
X318533Y218424D01*
X318688Y218394D01*
X318843Y218361D01*
X318997Y218324D01*
X319150Y218283D01*
X319302Y218238D01*
X319452Y218189D01*
X319602Y218137D01*
X319750Y218081D01*
X319897Y218021D01*
X320042Y217958D01*
X320185Y217891D01*
X320327Y217821D01*
X320467Y217747D01*
X320605Y217669D01*
X320741Y217588D01*
X320875Y217504D01*
X321007Y217417D01*
X321137Y217326D01*
X321264Y217232D01*
X321389Y217135D01*
X321512Y217034D01*
X321632Y216931D01*
X321749Y216825D01*
X321864Y216716D01*
X321976Y216604D01*
X322085Y216489D01*
X322191Y216372D01*
X322294Y216252D01*
X322395Y216129D01*
X322492Y216004D01*
X322586Y215877D01*
X322677Y215747D01*
X322764Y215615D01*
X322848Y215481D01*
X322929Y215345D01*
X323007Y215207D01*
X323081Y215067D01*
X323151Y214925D01*
X323218Y214782D01*
X323281Y214637D01*
X323341Y214490D01*
X323397Y214342D01*
X323449Y214192D01*
X323498Y214042D01*
X323543Y213890D01*
X323584Y213737D01*
X323621Y213583D01*
X323654Y213428D01*
X323684Y213273D01*
X323709Y213116D01*
X323731Y212960D01*
X323748Y212802D01*
X323762Y212645D01*
X323772Y212487D01*
X323778Y212328D01*
X323780Y212170D01*
X323780Y184230D02*
X323778Y184072D01*
X323772Y183913D01*
X323762Y183755D01*
X323748Y183598D01*
X323731Y183440D01*
X323709Y183284D01*
X323684Y183127D01*
X323654Y182972D01*
X323621Y182817D01*
X323584Y182663D01*
X323543Y182510D01*
X323498Y182358D01*
X323449Y182208D01*
X323397Y182058D01*
X323341Y181910D01*
X323281Y181763D01*
X323218Y181618D01*
X323151Y181475D01*
X323081Y181333D01*
X323007Y181193D01*
X322929Y181055D01*
X322848Y180919D01*
X322764Y180785D01*
X322677Y180653D01*
X322586Y180523D01*
X322492Y180396D01*
X322395Y180271D01*
X322294Y180148D01*
X322191Y180028D01*
X322085Y179911D01*
X321976Y179796D01*
X321864Y179684D01*
X321749Y179575D01*
X321632Y179469D01*
X321512Y179366D01*
X321389Y179265D01*
X321264Y179168D01*
X321137Y179074D01*
X321007Y178983D01*
X320875Y178896D01*
X320741Y178812D01*
X320605Y178731D01*
X320467Y178653D01*
X320327Y178579D01*
X320185Y178509D01*
X320042Y178442D01*
X319897Y178379D01*
X319750Y178319D01*
X319602Y178263D01*
X319452Y178211D01*
X319302Y178162D01*
X319150Y178117D01*
X318997Y178076D01*
X318843Y178039D01*
X318688Y178006D01*
X318533Y177976D01*
X318376Y177951D01*
X318220Y177929D01*
X318062Y177912D01*
X317905Y177898D01*
X317747Y177888D01*
X317588Y177882D01*
X317430Y177880D01*
X243770Y177880D02*
X243612Y177882D01*
X243453Y177888D01*
X243295Y177898D01*
X243138Y177912D01*
X242980Y177929D01*
X242824Y177951D01*
X242667Y177976D01*
X242512Y178006D01*
X242357Y178039D01*
X242203Y178076D01*
X242050Y178117D01*
X241898Y178162D01*
X241748Y178211D01*
X241598Y178263D01*
X241450Y178319D01*
X241303Y178379D01*
X241158Y178442D01*
X241015Y178509D01*
X240873Y178579D01*
X240733Y178653D01*
X240595Y178731D01*
X240459Y178812D01*
X240325Y178896D01*
X240193Y178983D01*
X240063Y179074D01*
X239936Y179168D01*
X239811Y179265D01*
X239688Y179366D01*
X239568Y179469D01*
X239451Y179575D01*
X239336Y179684D01*
X239224Y179796D01*
X239115Y179911D01*
X239009Y180028D01*
X238906Y180148D01*
X238805Y180271D01*
X238708Y180396D01*
X238614Y180523D01*
X238523Y180653D01*
X238436Y180785D01*
X238352Y180919D01*
X238271Y181055D01*
X238193Y181193D01*
X238119Y181333D01*
X238049Y181475D01*
X237982Y181618D01*
X237919Y181763D01*
X237859Y181910D01*
X237803Y182058D01*
X237751Y182208D01*
X237702Y182358D01*
X237657Y182510D01*
X237616Y182663D01*
X237579Y182817D01*
X237546Y182972D01*
X237516Y183127D01*
X237491Y183284D01*
X237469Y183440D01*
X237452Y183598D01*
X237438Y183755D01*
X237428Y183913D01*
X237422Y184072D01*
X237420Y184230D01*
X237420Y212170D02*
X237422Y212328D01*
X237428Y212487D01*
X237438Y212645D01*
X237452Y212802D01*
X237469Y212960D01*
X237491Y213116D01*
X237516Y213273D01*
X237546Y213428D01*
X237579Y213583D01*
X237616Y213737D01*
X237657Y213890D01*
X237702Y214042D01*
X237751Y214192D01*
X237803Y214342D01*
X237859Y214490D01*
X237919Y214637D01*
X237982Y214782D01*
X238049Y214925D01*
X238119Y215067D01*
X238193Y215207D01*
X238271Y215345D01*
X238352Y215481D01*
X238436Y215615D01*
X238523Y215747D01*
X238614Y215877D01*
X238708Y216004D01*
X238805Y216129D01*
X238906Y216252D01*
X239009Y216372D01*
X239115Y216489D01*
X239224Y216604D01*
X239336Y216716D01*
X239451Y216825D01*
X239568Y216931D01*
X239688Y217034D01*
X239811Y217135D01*
X239936Y217232D01*
X240063Y217326D01*
X240193Y217417D01*
X240325Y217504D01*
X240459Y217588D01*
X240595Y217669D01*
X240733Y217747D01*
X240873Y217821D01*
X241015Y217891D01*
X241158Y217958D01*
X241303Y218021D01*
X241450Y218081D01*
X241598Y218137D01*
X241748Y218189D01*
X241898Y218238D01*
X242050Y218283D01*
X242203Y218324D01*
X242357Y218361D01*
X242512Y218394D01*
X242667Y218424D01*
X242824Y218449D01*
X242980Y218471D01*
X243138Y218488D01*
X243295Y218502D01*
X243453Y218512D01*
X243612Y218518D01*
X243770Y218520D01*
X317430Y218520D01*
X237420Y212170D02*
X237420Y184230D01*
X243770Y177880D02*
X317430Y177880D01*
X323780Y184230D02*
X323780Y212170D01*
D12*
X239579Y164291D02*
X239579Y148289D01*
X239579Y164291D02*
X246691Y164291D01*
X246691Y157179D02*
X239579Y157179D01*
X252572Y148289D02*
X257017Y148289D01*
X257149Y148291D01*
X257280Y148297D01*
X257412Y148307D01*
X257543Y148320D01*
X257673Y148338D01*
X257803Y148359D01*
X257933Y148384D01*
X258061Y148413D01*
X258189Y148446D01*
X258315Y148483D01*
X258441Y148523D01*
X258565Y148567D01*
X258688Y148615D01*
X258809Y148666D01*
X258929Y148721D01*
X259047Y148779D01*
X259163Y148841D01*
X259277Y148907D01*
X259390Y148975D01*
X259500Y149047D01*
X259608Y149122D01*
X259714Y149201D01*
X259818Y149282D01*
X259919Y149367D01*
X260017Y149454D01*
X260113Y149545D01*
X260206Y149638D01*
X260297Y149734D01*
X260384Y149832D01*
X260469Y149933D01*
X260550Y150037D01*
X260629Y150143D01*
X260704Y150251D01*
X260776Y150361D01*
X260844Y150474D01*
X260910Y150588D01*
X260972Y150704D01*
X261030Y150822D01*
X261085Y150942D01*
X261136Y151063D01*
X261184Y151186D01*
X261228Y151310D01*
X261268Y151436D01*
X261305Y151562D01*
X261338Y151690D01*
X261367Y151818D01*
X261392Y151948D01*
X261413Y152078D01*
X261431Y152208D01*
X261444Y152339D01*
X261454Y152471D01*
X261460Y152602D01*
X261462Y152734D01*
X261460Y152866D01*
X261454Y152997D01*
X261444Y153129D01*
X261431Y153260D01*
X261413Y153390D01*
X261392Y153520D01*
X261367Y153650D01*
X261338Y153778D01*
X261305Y153906D01*
X261268Y154032D01*
X261228Y154158D01*
X261184Y154282D01*
X261136Y154405D01*
X261085Y154526D01*
X261030Y154646D01*
X260972Y154764D01*
X260910Y154880D01*
X260844Y154994D01*
X260776Y155107D01*
X260704Y155217D01*
X260629Y155325D01*
X260550Y155431D01*
X260469Y155535D01*
X260384Y155636D01*
X260297Y155734D01*
X260206Y155830D01*
X260113Y155923D01*
X260017Y156014D01*
X259919Y156101D01*
X259818Y156186D01*
X259714Y156267D01*
X259608Y156346D01*
X259500Y156421D01*
X259390Y156493D01*
X259277Y156561D01*
X259163Y156627D01*
X259047Y156689D01*
X258929Y156747D01*
X258809Y156802D01*
X258688Y156853D01*
X258565Y156901D01*
X258441Y156945D01*
X258315Y156985D01*
X258189Y157022D01*
X258061Y157055D01*
X257933Y157084D01*
X257803Y157109D01*
X257673Y157130D01*
X257543Y157148D01*
X257412Y157161D01*
X257280Y157171D01*
X257149Y157177D01*
X257017Y157179D01*
X257906Y164291D02*
X252572Y164291D01*
X257906Y164291D02*
X258024Y164289D01*
X258141Y164283D01*
X258258Y164274D01*
X258375Y164260D01*
X258491Y164243D01*
X258607Y164221D01*
X258722Y164196D01*
X258836Y164167D01*
X258949Y164135D01*
X259061Y164098D01*
X259171Y164058D01*
X259280Y164015D01*
X259388Y163967D01*
X259494Y163917D01*
X259598Y163862D01*
X259701Y163805D01*
X259801Y163744D01*
X259900Y163679D01*
X259996Y163612D01*
X260090Y163541D01*
X260182Y163467D01*
X260271Y163391D01*
X260357Y163311D01*
X260441Y163229D01*
X260522Y163143D01*
X260600Y163056D01*
X260676Y162965D01*
X260748Y162872D01*
X260817Y162777D01*
X260883Y162680D01*
X260946Y162580D01*
X261005Y162479D01*
X261061Y162376D01*
X261113Y162270D01*
X261162Y162163D01*
X261208Y162055D01*
X261250Y161945D01*
X261288Y161834D01*
X261322Y161721D01*
X261353Y161608D01*
X261380Y161493D01*
X261403Y161378D01*
X261423Y161262D01*
X261438Y161146D01*
X261450Y161029D01*
X261458Y160911D01*
X261462Y160794D01*
X261462Y160676D01*
X261458Y160559D01*
X261450Y160441D01*
X261438Y160324D01*
X261423Y160208D01*
X261403Y160092D01*
X261380Y159977D01*
X261353Y159862D01*
X261322Y159749D01*
X261288Y159636D01*
X261250Y159525D01*
X261208Y159415D01*
X261162Y159307D01*
X261113Y159200D01*
X261061Y159094D01*
X261005Y158991D01*
X260946Y158890D01*
X260883Y158790D01*
X260817Y158693D01*
X260748Y158598D01*
X260676Y158505D01*
X260600Y158414D01*
X260522Y158327D01*
X260441Y158241D01*
X260357Y158159D01*
X260271Y158079D01*
X260182Y158003D01*
X260090Y157929D01*
X259996Y157858D01*
X259900Y157791D01*
X259801Y157726D01*
X259701Y157665D01*
X259598Y157608D01*
X259494Y157553D01*
X259388Y157503D01*
X259280Y157455D01*
X259171Y157412D01*
X259061Y157372D01*
X258949Y157335D01*
X258836Y157303D01*
X258722Y157274D01*
X258607Y157249D01*
X258491Y157227D01*
X258375Y157210D01*
X258258Y157196D01*
X258141Y157187D01*
X258024Y157181D01*
X257906Y157179D01*
X254350Y157179D01*
D13*
X71100Y332200D02*
X71100Y459200D01*
X95600Y487200D02*
X127600Y487200D01*
X152100Y459200D02*
X152100Y332200D01*
X71100Y332200D01*
X111600Y324700D02*
X111600Y314700D01*
X106600Y319700D02*
X116600Y319700D01*
X71100Y459200D02*
X95600Y487200D01*
X127600Y487200D02*
X152100Y459200D01*
X111600Y494700D02*
X111600Y504700D01*
X722500Y500500D02*
X849500Y500500D01*
X877500Y476000D02*
X877500Y444000D01*
X849500Y419500D02*
X722500Y419500D01*
X722500Y500500D01*
X715000Y460000D02*
X705000Y460000D01*
X710000Y465000D02*
X710000Y455000D01*
X849500Y500500D02*
X877500Y476000D01*
X877500Y444000D02*
X849500Y419500D01*
X885000Y460000D02*
X895000Y460000D01*
X849500Y340500D02*
X722500Y340500D01*
X877500Y316000D02*
X877500Y284000D01*
X849500Y259500D02*
X722500Y259500D01*
X722500Y340500D01*
X715000Y300000D02*
X705000Y300000D01*
X710000Y305000D02*
X710000Y295000D01*
X849500Y340500D02*
X877500Y316000D01*
X877500Y284000D02*
X849500Y259500D01*
X885000Y300000D02*
X895000Y300000D01*
X849500Y180500D02*
X722500Y180500D01*
X877500Y156000D02*
X877500Y124000D01*
X849500Y99500D02*
X722500Y99500D01*
X722500Y180500D01*
X715000Y140000D02*
X705000Y140000D01*
X710000Y145000D02*
X710000Y135000D01*
X849500Y180500D02*
X877500Y156000D01*
X877500Y124000D02*
X849500Y99500D01*
X885000Y140000D02*
X895000Y140000D01*
X151700Y122300D02*
X151700Y249300D01*
X127200Y94300D02*
X95200Y94300D01*
X70700Y122300D02*
X70700Y249300D01*
X151700Y249300D01*
X111200Y256800D02*
X111200Y266800D01*
X116200Y261800D02*
X106200Y261800D01*
X151700Y122300D02*
X127200Y94300D01*
X95200Y94300D02*
X70700Y122300D01*
X111200Y86800D02*
X111200Y76800D01*
D14*
X656200Y400500D02*
X656324Y400367D01*
X656452Y400237D01*
X656582Y400110D01*
X656716Y399986D01*
X656852Y399865D01*
X656992Y399748D01*
X657134Y399635D01*
X657279Y399525D01*
X657427Y399418D01*
X657577Y399315D01*
X657730Y399216D01*
X657885Y399121D01*
X658042Y399029D01*
X658202Y398942D01*
X658364Y398858D01*
X658527Y398778D01*
X658693Y398702D01*
X658860Y398631D01*
X659030Y398563D01*
X659200Y398500D01*
X659372Y398441D01*
X659546Y398386D01*
X659721Y398335D01*
X659897Y398289D01*
X660074Y398247D01*
X660252Y398209D01*
X660432Y398176D01*
X660611Y398147D01*
X660792Y398123D01*
X660973Y398103D01*
X661154Y398087D01*
X661336Y398076D01*
X661518Y398069D01*
X661700Y398067D01*
X661882Y398069D01*
X662064Y398076D01*
X662246Y398087D01*
X662427Y398103D01*
X662608Y398123D01*
X662789Y398147D01*
X662968Y398176D01*
X663148Y398209D01*
X663326Y398247D01*
X663503Y398289D01*
X663679Y398335D01*
X663854Y398386D01*
X664028Y398441D01*
X664200Y398500D01*
X664370Y398563D01*
X664540Y398631D01*
X664707Y398702D01*
X664873Y398778D01*
X665036Y398858D01*
X665198Y398942D01*
X665358Y399029D01*
X665515Y399121D01*
X665670Y399216D01*
X665823Y399315D01*
X665973Y399418D01*
X666121Y399525D01*
X666266Y399635D01*
X666408Y399748D01*
X666548Y399865D01*
X666684Y399986D01*
X666818Y400110D01*
X666948Y400237D01*
X667076Y400367D01*
X667200Y400500D01*
X667200Y410500D02*
X667076Y410633D01*
X666948Y410763D01*
X666818Y410890D01*
X666684Y411014D01*
X666548Y411135D01*
X666408Y411252D01*
X666266Y411365D01*
X666121Y411475D01*
X665973Y411582D01*
X665823Y411685D01*
X665670Y411784D01*
X665515Y411879D01*
X665358Y411971D01*
X665198Y412058D01*
X665036Y412142D01*
X664873Y412222D01*
X664707Y412298D01*
X664540Y412369D01*
X664370Y412437D01*
X664200Y412500D01*
X664028Y412559D01*
X663854Y412614D01*
X663679Y412665D01*
X663503Y412711D01*
X663326Y412753D01*
X663148Y412791D01*
X662968Y412824D01*
X662789Y412853D01*
X662608Y412877D01*
X662427Y412897D01*
X662246Y412913D01*
X662064Y412924D01*
X661882Y412931D01*
X661700Y412933D01*
X661518Y412931D01*
X661336Y412924D01*
X661154Y412913D01*
X660973Y412897D01*
X660792Y412877D01*
X660611Y412853D01*
X660432Y412824D01*
X660252Y412791D01*
X660074Y412753D01*
X659897Y412711D01*
X659721Y412665D01*
X659546Y412614D01*
X659372Y412559D01*
X659200Y412500D01*
X659030Y412437D01*
X658860Y412369D01*
X658693Y412298D01*
X658527Y412222D01*
X658364Y412142D01*
X658202Y412058D01*
X658042Y411971D01*
X657885Y411879D01*
X657730Y411784D01*
X657577Y411685D01*
X657427Y411582D01*
X657279Y411475D01*
X657134Y411365D01*
X656992Y411252D01*
X656852Y411135D01*
X656716Y411014D01*
X656582Y410890D01*
X656452Y410763D01*
X656324Y410633D01*
X656200Y410500D01*
D15*
X661700Y405500D03*
D16*
X666950Y399750D03*
D10*
X620721Y421915D02*
X620721Y438171D01*
X620721Y421915D02*
X627946Y421915D01*
X634269Y421915D02*
X641493Y421915D01*
X634269Y421915D02*
X634269Y438171D01*
X641493Y438171D01*
X639687Y430946D02*
X634269Y430946D01*
X647786Y438171D02*
X647786Y421915D01*
X647786Y438171D02*
X652301Y438171D01*
X652301Y438172D02*
X652432Y438170D01*
X652564Y438164D01*
X652695Y438155D01*
X652825Y438141D01*
X652956Y438124D01*
X653085Y438103D01*
X653214Y438079D01*
X653342Y438050D01*
X653470Y438018D01*
X653596Y437982D01*
X653721Y437943D01*
X653846Y437900D01*
X653968Y437853D01*
X654090Y437803D01*
X654210Y437749D01*
X654328Y437692D01*
X654444Y437631D01*
X654559Y437567D01*
X654672Y437500D01*
X654783Y437429D01*
X654891Y437355D01*
X654998Y437278D01*
X655102Y437198D01*
X655204Y437115D01*
X655303Y437030D01*
X655400Y436941D01*
X655494Y436849D01*
X655586Y436755D01*
X655675Y436658D01*
X655760Y436559D01*
X655843Y436457D01*
X655923Y436353D01*
X656000Y436246D01*
X656074Y436138D01*
X656145Y436027D01*
X656212Y435914D01*
X656276Y435799D01*
X656337Y435683D01*
X656394Y435565D01*
X656448Y435445D01*
X656498Y435323D01*
X656545Y435201D01*
X656588Y435076D01*
X656627Y434951D01*
X656663Y434825D01*
X656695Y434697D01*
X656724Y434569D01*
X656748Y434440D01*
X656769Y434311D01*
X656786Y434180D01*
X656800Y434050D01*
X656809Y433919D01*
X656815Y433787D01*
X656817Y433656D01*
X656817Y426431D01*
X656815Y426300D01*
X656809Y426168D01*
X656800Y426037D01*
X656786Y425907D01*
X656769Y425776D01*
X656748Y425647D01*
X656724Y425518D01*
X656695Y425390D01*
X656663Y425262D01*
X656627Y425136D01*
X656588Y425011D01*
X656545Y424886D01*
X656498Y424764D01*
X656448Y424642D01*
X656394Y424522D01*
X656337Y424404D01*
X656276Y424288D01*
X656212Y424173D01*
X656145Y424060D01*
X656074Y423949D01*
X656000Y423841D01*
X655923Y423734D01*
X655843Y423630D01*
X655760Y423528D01*
X655675Y423429D01*
X655586Y423332D01*
X655494Y423238D01*
X655400Y423146D01*
X655303Y423057D01*
X655204Y422972D01*
X655102Y422889D01*
X654998Y422809D01*
X654891Y422732D01*
X654783Y422658D01*
X654672Y422587D01*
X654559Y422520D01*
X654444Y422456D01*
X654328Y422395D01*
X654210Y422338D01*
X654090Y422284D01*
X653968Y422234D01*
X653846Y422187D01*
X653721Y422144D01*
X653596Y422105D01*
X653470Y422069D01*
X653342Y422037D01*
X653214Y422008D01*
X653085Y421984D01*
X652955Y421963D01*
X652825Y421946D01*
X652695Y421932D01*
X652564Y421923D01*
X652432Y421917D01*
X652301Y421915D01*
X647786Y421915D01*
X663938Y434559D02*
X668454Y438171D01*
X668454Y421915D01*
X672969Y421915D02*
X663938Y421915D01*
D14*
X663700Y280500D02*
X663576Y280367D01*
X663448Y280237D01*
X663318Y280110D01*
X663184Y279986D01*
X663048Y279865D01*
X662908Y279748D01*
X662766Y279635D01*
X662621Y279525D01*
X662473Y279418D01*
X662323Y279315D01*
X662170Y279216D01*
X662015Y279121D01*
X661858Y279029D01*
X661698Y278942D01*
X661536Y278858D01*
X661373Y278778D01*
X661207Y278702D01*
X661040Y278631D01*
X660870Y278563D01*
X660700Y278500D01*
X660528Y278441D01*
X660354Y278386D01*
X660179Y278335D01*
X660003Y278289D01*
X659826Y278247D01*
X659648Y278209D01*
X659468Y278176D01*
X659289Y278147D01*
X659108Y278123D01*
X658927Y278103D01*
X658746Y278087D01*
X658564Y278076D01*
X658382Y278069D01*
X658200Y278067D01*
X658018Y278069D01*
X657836Y278076D01*
X657654Y278087D01*
X657473Y278103D01*
X657292Y278123D01*
X657111Y278147D01*
X656932Y278176D01*
X656752Y278209D01*
X656574Y278247D01*
X656397Y278289D01*
X656221Y278335D01*
X656046Y278386D01*
X655872Y278441D01*
X655700Y278500D01*
X655530Y278563D01*
X655360Y278631D01*
X655193Y278702D01*
X655027Y278778D01*
X654864Y278858D01*
X654702Y278942D01*
X654542Y279029D01*
X654385Y279121D01*
X654230Y279216D01*
X654077Y279315D01*
X653927Y279418D01*
X653779Y279525D01*
X653634Y279635D01*
X653492Y279748D01*
X653352Y279865D01*
X653216Y279986D01*
X653082Y280110D01*
X652952Y280237D01*
X652824Y280367D01*
X652700Y280500D01*
X652700Y290500D02*
X652824Y290633D01*
X652952Y290763D01*
X653082Y290890D01*
X653216Y291014D01*
X653352Y291135D01*
X653492Y291252D01*
X653634Y291365D01*
X653779Y291475D01*
X653927Y291582D01*
X654077Y291685D01*
X654230Y291784D01*
X654385Y291879D01*
X654542Y291971D01*
X654702Y292058D01*
X654864Y292142D01*
X655027Y292222D01*
X655193Y292298D01*
X655360Y292369D01*
X655530Y292437D01*
X655700Y292500D01*
X655872Y292559D01*
X656046Y292614D01*
X656221Y292665D01*
X656397Y292711D01*
X656574Y292753D01*
X656752Y292791D01*
X656932Y292824D01*
X657111Y292853D01*
X657292Y292877D01*
X657473Y292897D01*
X657654Y292913D01*
X657836Y292924D01*
X658018Y292931D01*
X658200Y292933D01*
X658382Y292931D01*
X658564Y292924D01*
X658746Y292913D01*
X658927Y292897D01*
X659108Y292877D01*
X659289Y292853D01*
X659468Y292824D01*
X659648Y292791D01*
X659826Y292753D01*
X660003Y292711D01*
X660179Y292665D01*
X660354Y292614D01*
X660528Y292559D01*
X660700Y292500D01*
X660870Y292437D01*
X661040Y292369D01*
X661207Y292298D01*
X661373Y292222D01*
X661536Y292142D01*
X661698Y292058D01*
X661858Y291971D01*
X662015Y291879D01*
X662170Y291784D01*
X662323Y291685D01*
X662473Y291582D01*
X662621Y291475D01*
X662766Y291365D01*
X662908Y291252D01*
X663048Y291135D01*
X663184Y291014D01*
X663318Y290890D01*
X663448Y290763D01*
X663576Y290633D01*
X663700Y290500D01*
D15*
X658200Y285500D03*
D16*
X663450Y279750D03*
D10*
X615898Y298962D02*
X615898Y315218D01*
X615898Y298962D02*
X623123Y298962D01*
X629445Y298962D02*
X636670Y298962D01*
X629445Y298962D02*
X629445Y315218D01*
X636670Y315218D01*
X634864Y307993D02*
X629445Y307993D01*
X642963Y315218D02*
X642963Y298962D01*
X642963Y315218D02*
X647478Y315218D01*
X647609Y315216D01*
X647741Y315210D01*
X647872Y315201D01*
X648002Y315187D01*
X648133Y315170D01*
X648262Y315149D01*
X648391Y315125D01*
X648519Y315096D01*
X648647Y315064D01*
X648773Y315028D01*
X648898Y314989D01*
X649023Y314946D01*
X649145Y314899D01*
X649267Y314849D01*
X649387Y314795D01*
X649505Y314738D01*
X649621Y314677D01*
X649736Y314613D01*
X649849Y314546D01*
X649960Y314475D01*
X650068Y314401D01*
X650175Y314324D01*
X650279Y314244D01*
X650381Y314161D01*
X650480Y314076D01*
X650577Y313987D01*
X650671Y313895D01*
X650763Y313801D01*
X650852Y313704D01*
X650937Y313605D01*
X651020Y313503D01*
X651100Y313399D01*
X651177Y313292D01*
X651251Y313184D01*
X651322Y313073D01*
X651389Y312960D01*
X651453Y312845D01*
X651514Y312729D01*
X651571Y312611D01*
X651625Y312491D01*
X651675Y312369D01*
X651722Y312247D01*
X651765Y312122D01*
X651804Y311997D01*
X651840Y311871D01*
X651872Y311743D01*
X651901Y311615D01*
X651925Y311486D01*
X651946Y311357D01*
X651963Y311226D01*
X651977Y311096D01*
X651986Y310965D01*
X651992Y310833D01*
X651994Y310702D01*
X651994Y303478D01*
X651992Y303347D01*
X651986Y303215D01*
X651977Y303084D01*
X651963Y302954D01*
X651946Y302823D01*
X651925Y302694D01*
X651901Y302565D01*
X651872Y302437D01*
X651840Y302309D01*
X651804Y302183D01*
X651765Y302058D01*
X651722Y301933D01*
X651675Y301811D01*
X651625Y301689D01*
X651571Y301569D01*
X651514Y301451D01*
X651453Y301335D01*
X651389Y301220D01*
X651322Y301107D01*
X651251Y300996D01*
X651177Y300888D01*
X651100Y300781D01*
X651020Y300677D01*
X650937Y300575D01*
X650852Y300476D01*
X650763Y300379D01*
X650671Y300285D01*
X650577Y300193D01*
X650480Y300104D01*
X650381Y300019D01*
X650279Y299936D01*
X650175Y299856D01*
X650068Y299779D01*
X649960Y299705D01*
X649849Y299634D01*
X649736Y299567D01*
X649621Y299503D01*
X649505Y299442D01*
X649387Y299385D01*
X649267Y299331D01*
X649145Y299281D01*
X649023Y299234D01*
X648898Y299191D01*
X648773Y299152D01*
X648647Y299116D01*
X648519Y299084D01*
X648391Y299055D01*
X648262Y299031D01*
X648132Y299010D01*
X648002Y298993D01*
X647872Y298979D01*
X647741Y298970D01*
X647609Y298964D01*
X647478Y298962D01*
X642963Y298962D01*
X664082Y315218D02*
X664207Y315216D01*
X664332Y315210D01*
X664457Y315201D01*
X664581Y315187D01*
X664705Y315170D01*
X664829Y315149D01*
X664951Y315124D01*
X665073Y315095D01*
X665194Y315063D01*
X665314Y315027D01*
X665433Y314987D01*
X665550Y314944D01*
X665666Y314897D01*
X665781Y314846D01*
X665893Y314792D01*
X666005Y314734D01*
X666114Y314674D01*
X666221Y314609D01*
X666327Y314542D01*
X666430Y314471D01*
X666531Y314397D01*
X666630Y314320D01*
X666726Y314240D01*
X666820Y314157D01*
X666911Y314072D01*
X667000Y313983D01*
X667085Y313892D01*
X667168Y313798D01*
X667248Y313702D01*
X667325Y313603D01*
X667399Y313502D01*
X667470Y313399D01*
X667537Y313293D01*
X667602Y313186D01*
X667662Y313077D01*
X667720Y312965D01*
X667774Y312853D01*
X667825Y312738D01*
X667872Y312622D01*
X667915Y312505D01*
X667955Y312386D01*
X667991Y312266D01*
X668023Y312145D01*
X668052Y312023D01*
X668077Y311901D01*
X668098Y311777D01*
X668115Y311653D01*
X668129Y311529D01*
X668138Y311404D01*
X668144Y311279D01*
X668146Y311154D01*
X664082Y315218D02*
X663939Y315216D01*
X663797Y315210D01*
X663654Y315200D01*
X663512Y315187D01*
X663371Y315169D01*
X663229Y315148D01*
X663089Y315123D01*
X662949Y315094D01*
X662810Y315061D01*
X662672Y315024D01*
X662535Y314984D01*
X662400Y314940D01*
X662265Y314892D01*
X662132Y314840D01*
X662000Y314785D01*
X661870Y314726D01*
X661742Y314664D01*
X661615Y314598D01*
X661490Y314529D01*
X661367Y314457D01*
X661247Y314381D01*
X661128Y314302D01*
X661011Y314219D01*
X660897Y314134D01*
X660785Y314045D01*
X660676Y313954D01*
X660569Y313859D01*
X660464Y313762D01*
X660363Y313661D01*
X660264Y313558D01*
X660168Y313453D01*
X660075Y313344D01*
X659985Y313233D01*
X659898Y313120D01*
X659814Y313005D01*
X659734Y312887D01*
X659656Y312767D01*
X659582Y312645D01*
X659512Y312521D01*
X659444Y312395D01*
X659381Y312267D01*
X659320Y312138D01*
X659263Y312007D01*
X659210Y311875D01*
X659161Y311741D01*
X659115Y311606D01*
X666791Y307993D02*
X666885Y308085D01*
X666975Y308179D01*
X667063Y308276D01*
X667148Y308376D01*
X667230Y308478D01*
X667309Y308583D01*
X667384Y308690D01*
X667456Y308799D01*
X667525Y308910D01*
X667591Y309024D01*
X667653Y309139D01*
X667712Y309256D01*
X667767Y309375D01*
X667818Y309495D01*
X667866Y309617D01*
X667911Y309740D01*
X667951Y309864D01*
X667988Y309990D01*
X668021Y310117D01*
X668050Y310244D01*
X668076Y310373D01*
X668097Y310502D01*
X668115Y310632D01*
X668128Y310762D01*
X668138Y310892D01*
X668144Y311023D01*
X668146Y311154D01*
X666791Y307993D02*
X659115Y298962D01*
X668146Y298962D01*
D14*
X660200Y140500D02*
X660076Y140367D01*
X659948Y140237D01*
X659818Y140110D01*
X659684Y139986D01*
X659548Y139865D01*
X659408Y139748D01*
X659266Y139635D01*
X659121Y139525D01*
X658973Y139418D01*
X658823Y139315D01*
X658670Y139216D01*
X658515Y139121D01*
X658358Y139029D01*
X658198Y138942D01*
X658036Y138858D01*
X657873Y138778D01*
X657707Y138702D01*
X657540Y138631D01*
X657370Y138563D01*
X657200Y138500D01*
X657028Y138441D01*
X656854Y138386D01*
X656679Y138335D01*
X656503Y138289D01*
X656326Y138247D01*
X656148Y138209D01*
X655968Y138176D01*
X655789Y138147D01*
X655608Y138123D01*
X655427Y138103D01*
X655246Y138087D01*
X655064Y138076D01*
X654882Y138069D01*
X654700Y138067D01*
X654518Y138069D01*
X654336Y138076D01*
X654154Y138087D01*
X653973Y138103D01*
X653792Y138123D01*
X653611Y138147D01*
X653432Y138176D01*
X653252Y138209D01*
X653074Y138247D01*
X652897Y138289D01*
X652721Y138335D01*
X652546Y138386D01*
X652372Y138441D01*
X652200Y138500D01*
X652030Y138563D01*
X651860Y138631D01*
X651693Y138702D01*
X651527Y138778D01*
X651364Y138858D01*
X651202Y138942D01*
X651042Y139029D01*
X650885Y139121D01*
X650730Y139216D01*
X650577Y139315D01*
X650427Y139418D01*
X650279Y139525D01*
X650134Y139635D01*
X649992Y139748D01*
X649852Y139865D01*
X649716Y139986D01*
X649582Y140110D01*
X649452Y140237D01*
X649324Y140367D01*
X649200Y140500D01*
X649200Y150500D02*
X649324Y150633D01*
X649452Y150763D01*
X649582Y150890D01*
X649716Y151014D01*
X649852Y151135D01*
X649992Y151252D01*
X650134Y151365D01*
X650279Y151475D01*
X650427Y151582D01*
X650577Y151685D01*
X650730Y151784D01*
X650885Y151879D01*
X651042Y151971D01*
X651202Y152058D01*
X651364Y152142D01*
X651527Y152222D01*
X651693Y152298D01*
X651860Y152369D01*
X652030Y152437D01*
X652200Y152500D01*
X652372Y152559D01*
X652546Y152614D01*
X652721Y152665D01*
X652897Y152711D01*
X653074Y152753D01*
X653252Y152791D01*
X653432Y152824D01*
X653611Y152853D01*
X653792Y152877D01*
X653973Y152897D01*
X654154Y152913D01*
X654336Y152924D01*
X654518Y152931D01*
X654700Y152933D01*
X654882Y152931D01*
X655064Y152924D01*
X655246Y152913D01*
X655427Y152897D01*
X655608Y152877D01*
X655789Y152853D01*
X655968Y152824D01*
X656148Y152791D01*
X656326Y152753D01*
X656503Y152711D01*
X656679Y152665D01*
X656854Y152614D01*
X657028Y152559D01*
X657200Y152500D01*
X657370Y152437D01*
X657540Y152369D01*
X657707Y152298D01*
X657873Y152222D01*
X658036Y152142D01*
X658198Y152058D01*
X658358Y151971D01*
X658515Y151879D01*
X658670Y151784D01*
X658823Y151685D01*
X658973Y151582D01*
X659121Y151475D01*
X659266Y151365D01*
X659408Y151252D01*
X659548Y151135D01*
X659684Y151014D01*
X659818Y150890D01*
X659948Y150763D01*
X660076Y150633D01*
X660200Y150500D01*
D15*
X654700Y145500D03*
D16*
X659950Y139750D03*
D10*
X623192Y158962D02*
X623192Y175218D01*
X623192Y158962D02*
X630417Y158962D01*
X636739Y158962D02*
X643964Y158962D01*
X636739Y158962D02*
X636739Y175218D01*
X643964Y175218D01*
X642158Y167993D02*
X636739Y167993D01*
X650256Y175218D02*
X650256Y158962D01*
X650256Y175218D02*
X654772Y175218D01*
X654903Y175216D01*
X655035Y175210D01*
X655166Y175201D01*
X655296Y175187D01*
X655427Y175170D01*
X655556Y175149D01*
X655685Y175125D01*
X655813Y175096D01*
X655941Y175064D01*
X656067Y175028D01*
X656192Y174989D01*
X656317Y174946D01*
X656439Y174899D01*
X656561Y174849D01*
X656681Y174795D01*
X656799Y174738D01*
X656915Y174677D01*
X657030Y174613D01*
X657143Y174546D01*
X657254Y174475D01*
X657362Y174401D01*
X657469Y174324D01*
X657573Y174244D01*
X657675Y174161D01*
X657774Y174076D01*
X657871Y173987D01*
X657965Y173895D01*
X658057Y173801D01*
X658146Y173704D01*
X658231Y173605D01*
X658314Y173503D01*
X658394Y173399D01*
X658471Y173292D01*
X658545Y173184D01*
X658616Y173073D01*
X658683Y172960D01*
X658747Y172845D01*
X658808Y172729D01*
X658865Y172611D01*
X658919Y172491D01*
X658969Y172369D01*
X659016Y172247D01*
X659059Y172122D01*
X659098Y171997D01*
X659134Y171871D01*
X659166Y171743D01*
X659195Y171615D01*
X659219Y171486D01*
X659240Y171357D01*
X659257Y171226D01*
X659271Y171096D01*
X659280Y170965D01*
X659286Y170833D01*
X659288Y170702D01*
X659287Y170702D02*
X659287Y163478D01*
X659288Y163478D02*
X659286Y163347D01*
X659280Y163215D01*
X659271Y163084D01*
X659257Y162954D01*
X659240Y162823D01*
X659219Y162694D01*
X659195Y162565D01*
X659166Y162437D01*
X659134Y162309D01*
X659098Y162183D01*
X659059Y162058D01*
X659016Y161933D01*
X658969Y161811D01*
X658919Y161689D01*
X658865Y161569D01*
X658808Y161451D01*
X658747Y161335D01*
X658683Y161220D01*
X658616Y161107D01*
X658545Y160996D01*
X658471Y160888D01*
X658394Y160781D01*
X658314Y160677D01*
X658231Y160575D01*
X658146Y160476D01*
X658057Y160379D01*
X657965Y160285D01*
X657871Y160193D01*
X657774Y160104D01*
X657675Y160019D01*
X657573Y159936D01*
X657469Y159856D01*
X657362Y159779D01*
X657254Y159705D01*
X657143Y159634D01*
X657030Y159567D01*
X656915Y159503D01*
X656799Y159442D01*
X656681Y159385D01*
X656561Y159331D01*
X656439Y159281D01*
X656317Y159234D01*
X656192Y159191D01*
X656067Y159152D01*
X655941Y159116D01*
X655813Y159084D01*
X655685Y159055D01*
X655556Y159031D01*
X655426Y159010D01*
X655296Y158993D01*
X655166Y158979D01*
X655035Y158970D01*
X654903Y158964D01*
X654772Y158962D01*
X650256Y158962D01*
X666409Y158962D02*
X670924Y158962D01*
X671057Y158964D01*
X671189Y158970D01*
X671321Y158980D01*
X671453Y158993D01*
X671585Y159011D01*
X671715Y159032D01*
X671846Y159057D01*
X671975Y159086D01*
X672103Y159119D01*
X672231Y159155D01*
X672357Y159195D01*
X672482Y159239D01*
X672606Y159287D01*
X672728Y159338D01*
X672849Y159393D01*
X672968Y159451D01*
X673086Y159513D01*
X673201Y159578D01*
X673315Y159647D01*
X673426Y159718D01*
X673535Y159794D01*
X673642Y159872D01*
X673747Y159953D01*
X673849Y160038D01*
X673949Y160125D01*
X674046Y160215D01*
X674141Y160308D01*
X674232Y160404D01*
X674321Y160502D01*
X674407Y160603D01*
X674490Y160707D01*
X674570Y160813D01*
X674646Y160921D01*
X674720Y161031D01*
X674790Y161144D01*
X674857Y161258D01*
X674920Y161375D01*
X674980Y161493D01*
X675037Y161613D01*
X675090Y161735D01*
X675139Y161858D01*
X675185Y161982D01*
X675227Y162108D01*
X675265Y162235D01*
X675300Y162363D01*
X675331Y162492D01*
X675358Y162621D01*
X675381Y162752D01*
X675401Y162883D01*
X675416Y163015D01*
X675428Y163147D01*
X675436Y163279D01*
X675440Y163412D01*
X675440Y163544D01*
X675436Y163677D01*
X675428Y163809D01*
X675416Y163941D01*
X675401Y164073D01*
X675381Y164204D01*
X675358Y164335D01*
X675331Y164464D01*
X675300Y164593D01*
X675265Y164721D01*
X675227Y164848D01*
X675185Y164974D01*
X675139Y165098D01*
X675090Y165221D01*
X675037Y165343D01*
X674980Y165463D01*
X674920Y165581D01*
X674857Y165698D01*
X674790Y165812D01*
X674720Y165925D01*
X674646Y166035D01*
X674570Y166143D01*
X674490Y166249D01*
X674407Y166353D01*
X674321Y166454D01*
X674232Y166552D01*
X674141Y166648D01*
X674046Y166741D01*
X673949Y166831D01*
X673849Y166918D01*
X673747Y167003D01*
X673642Y167084D01*
X673535Y167162D01*
X673426Y167238D01*
X673315Y167309D01*
X673201Y167378D01*
X673086Y167443D01*
X672968Y167505D01*
X672849Y167563D01*
X672728Y167618D01*
X672606Y167669D01*
X672482Y167717D01*
X672357Y167761D01*
X672231Y167801D01*
X672103Y167837D01*
X671975Y167870D01*
X671846Y167899D01*
X671715Y167924D01*
X671585Y167945D01*
X671453Y167963D01*
X671321Y167976D01*
X671189Y167986D01*
X671057Y167992D01*
X670924Y167994D01*
X671827Y175218D02*
X666409Y175218D01*
X671827Y175218D02*
X671946Y175216D01*
X672066Y175210D01*
X672185Y175200D01*
X672303Y175186D01*
X672422Y175169D01*
X672539Y175147D01*
X672656Y175122D01*
X672771Y175092D01*
X672886Y175059D01*
X673000Y175022D01*
X673112Y174982D01*
X673223Y174937D01*
X673332Y174889D01*
X673440Y174838D01*
X673546Y174783D01*
X673650Y174724D01*
X673752Y174662D01*
X673852Y174597D01*
X673950Y174528D01*
X674046Y174456D01*
X674139Y174381D01*
X674229Y174304D01*
X674317Y174223D01*
X674402Y174139D01*
X674484Y174052D01*
X674564Y173963D01*
X674640Y173871D01*
X674714Y173777D01*
X674784Y173680D01*
X674851Y173582D01*
X674915Y173481D01*
X674975Y173377D01*
X675032Y173272D01*
X675085Y173165D01*
X675135Y173057D01*
X675181Y172947D01*
X675223Y172835D01*
X675262Y172722D01*
X675297Y172608D01*
X675328Y172493D01*
X675356Y172376D01*
X675379Y172259D01*
X675399Y172142D01*
X675415Y172023D01*
X675427Y171904D01*
X675435Y171785D01*
X675439Y171666D01*
X675439Y171546D01*
X675435Y171427D01*
X675427Y171308D01*
X675415Y171189D01*
X675399Y171070D01*
X675379Y170953D01*
X675356Y170836D01*
X675328Y170719D01*
X675297Y170604D01*
X675262Y170490D01*
X675223Y170377D01*
X675181Y170265D01*
X675135Y170155D01*
X675085Y170047D01*
X675032Y169940D01*
X674975Y169835D01*
X674915Y169731D01*
X674851Y169630D01*
X674784Y169532D01*
X674714Y169435D01*
X674640Y169341D01*
X674564Y169249D01*
X674484Y169160D01*
X674402Y169073D01*
X674317Y168989D01*
X674229Y168908D01*
X674139Y168831D01*
X674046Y168756D01*
X673950Y168684D01*
X673852Y168615D01*
X673752Y168550D01*
X673650Y168488D01*
X673546Y168429D01*
X673440Y168374D01*
X673332Y168323D01*
X673223Y168275D01*
X673112Y168230D01*
X673000Y168190D01*
X672886Y168153D01*
X672771Y168120D01*
X672656Y168090D01*
X672539Y168065D01*
X672422Y168043D01*
X672303Y168026D01*
X672185Y168012D01*
X672066Y168002D01*
X671946Y167996D01*
X671827Y167994D01*
X671827Y167993D02*
X668215Y167993D01*
X521392Y419314D02*
X521392Y435570D01*
X525907Y435570D01*
X526040Y435568D01*
X526172Y435562D01*
X526304Y435552D01*
X526436Y435539D01*
X526568Y435521D01*
X526698Y435500D01*
X526829Y435475D01*
X526958Y435446D01*
X527086Y435413D01*
X527214Y435377D01*
X527340Y435337D01*
X527465Y435293D01*
X527589Y435245D01*
X527711Y435194D01*
X527832Y435139D01*
X527951Y435081D01*
X528069Y435019D01*
X528184Y434954D01*
X528298Y434885D01*
X528409Y434814D01*
X528518Y434738D01*
X528625Y434660D01*
X528730Y434579D01*
X528832Y434494D01*
X528932Y434407D01*
X529029Y434317D01*
X529124Y434224D01*
X529215Y434128D01*
X529304Y434030D01*
X529390Y433929D01*
X529473Y433825D01*
X529553Y433719D01*
X529629Y433611D01*
X529703Y433501D01*
X529773Y433388D01*
X529840Y433274D01*
X529903Y433157D01*
X529963Y433039D01*
X530020Y432919D01*
X530073Y432797D01*
X530122Y432674D01*
X530168Y432550D01*
X530210Y432424D01*
X530248Y432297D01*
X530283Y432169D01*
X530314Y432040D01*
X530341Y431911D01*
X530364Y431780D01*
X530384Y431649D01*
X530399Y431517D01*
X530411Y431385D01*
X530419Y431253D01*
X530423Y431120D01*
X530423Y430988D01*
X530419Y430855D01*
X530411Y430723D01*
X530399Y430591D01*
X530384Y430459D01*
X530364Y430328D01*
X530341Y430197D01*
X530314Y430068D01*
X530283Y429939D01*
X530248Y429811D01*
X530210Y429684D01*
X530168Y429558D01*
X530122Y429434D01*
X530073Y429311D01*
X530020Y429189D01*
X529963Y429069D01*
X529903Y428951D01*
X529840Y428834D01*
X529773Y428720D01*
X529703Y428607D01*
X529629Y428497D01*
X529553Y428389D01*
X529473Y428283D01*
X529390Y428179D01*
X529304Y428078D01*
X529215Y427980D01*
X529124Y427884D01*
X529029Y427791D01*
X528932Y427701D01*
X528832Y427614D01*
X528730Y427529D01*
X528625Y427448D01*
X528518Y427370D01*
X528409Y427294D01*
X528298Y427223D01*
X528184Y427154D01*
X528069Y427089D01*
X527951Y427027D01*
X527832Y426969D01*
X527711Y426914D01*
X527589Y426863D01*
X527465Y426815D01*
X527340Y426771D01*
X527214Y426731D01*
X527086Y426695D01*
X526958Y426662D01*
X526829Y426633D01*
X526698Y426608D01*
X526568Y426587D01*
X526436Y426569D01*
X526304Y426556D01*
X526172Y426546D01*
X526040Y426540D01*
X525907Y426538D01*
X525907Y426539D02*
X521392Y426539D01*
X526810Y426539D02*
X530423Y419314D01*
X536931Y431957D02*
X541447Y435570D01*
X541447Y419314D01*
X545962Y419314D02*
X536931Y419314D01*
X521954Y314917D02*
X521954Y298661D01*
X521954Y314917D02*
X526470Y314917D01*
X526470Y314918D02*
X526603Y314916D01*
X526735Y314910D01*
X526867Y314900D01*
X526999Y314887D01*
X527131Y314869D01*
X527261Y314848D01*
X527392Y314823D01*
X527521Y314794D01*
X527649Y314761D01*
X527777Y314725D01*
X527903Y314685D01*
X528028Y314641D01*
X528152Y314593D01*
X528274Y314542D01*
X528395Y314487D01*
X528514Y314429D01*
X528632Y314367D01*
X528747Y314302D01*
X528861Y314233D01*
X528972Y314162D01*
X529081Y314086D01*
X529188Y314008D01*
X529293Y313927D01*
X529395Y313842D01*
X529495Y313755D01*
X529592Y313665D01*
X529687Y313572D01*
X529778Y313476D01*
X529867Y313378D01*
X529953Y313277D01*
X530036Y313173D01*
X530116Y313067D01*
X530192Y312959D01*
X530266Y312849D01*
X530336Y312736D01*
X530403Y312622D01*
X530466Y312505D01*
X530526Y312387D01*
X530583Y312267D01*
X530636Y312145D01*
X530685Y312022D01*
X530731Y311898D01*
X530773Y311772D01*
X530811Y311645D01*
X530846Y311517D01*
X530877Y311388D01*
X530904Y311259D01*
X530927Y311128D01*
X530947Y310997D01*
X530962Y310865D01*
X530974Y310733D01*
X530982Y310601D01*
X530986Y310468D01*
X530986Y310336D01*
X530982Y310203D01*
X530974Y310071D01*
X530962Y309939D01*
X530947Y309807D01*
X530927Y309676D01*
X530904Y309545D01*
X530877Y309416D01*
X530846Y309287D01*
X530811Y309159D01*
X530773Y309032D01*
X530731Y308906D01*
X530685Y308782D01*
X530636Y308659D01*
X530583Y308537D01*
X530526Y308417D01*
X530466Y308299D01*
X530403Y308182D01*
X530336Y308068D01*
X530266Y307955D01*
X530192Y307845D01*
X530116Y307737D01*
X530036Y307631D01*
X529953Y307527D01*
X529867Y307426D01*
X529778Y307328D01*
X529687Y307232D01*
X529592Y307139D01*
X529495Y307049D01*
X529395Y306962D01*
X529293Y306877D01*
X529188Y306796D01*
X529081Y306718D01*
X528972Y306642D01*
X528861Y306571D01*
X528747Y306502D01*
X528632Y306437D01*
X528514Y306375D01*
X528395Y306317D01*
X528274Y306262D01*
X528152Y306211D01*
X528028Y306163D01*
X527903Y306119D01*
X527777Y306079D01*
X527649Y306043D01*
X527521Y306010D01*
X527392Y305981D01*
X527261Y305956D01*
X527131Y305935D01*
X526999Y305917D01*
X526867Y305904D01*
X526735Y305894D01*
X526603Y305888D01*
X526470Y305886D01*
X521954Y305886D01*
X527373Y305886D02*
X530985Y298661D01*
X546525Y310853D02*
X546523Y310978D01*
X546517Y311103D01*
X546508Y311228D01*
X546494Y311352D01*
X546477Y311476D01*
X546456Y311600D01*
X546431Y311722D01*
X546402Y311844D01*
X546370Y311965D01*
X546334Y312085D01*
X546294Y312204D01*
X546251Y312321D01*
X546204Y312437D01*
X546153Y312552D01*
X546099Y312664D01*
X546041Y312776D01*
X545981Y312885D01*
X545916Y312992D01*
X545849Y313098D01*
X545778Y313201D01*
X545704Y313302D01*
X545627Y313401D01*
X545547Y313497D01*
X545464Y313591D01*
X545379Y313682D01*
X545290Y313771D01*
X545199Y313856D01*
X545105Y313939D01*
X545009Y314019D01*
X544910Y314096D01*
X544809Y314170D01*
X544706Y314241D01*
X544600Y314308D01*
X544493Y314373D01*
X544384Y314433D01*
X544272Y314491D01*
X544160Y314545D01*
X544045Y314596D01*
X543929Y314643D01*
X543812Y314686D01*
X543693Y314726D01*
X543573Y314762D01*
X543452Y314794D01*
X543330Y314823D01*
X543208Y314848D01*
X543084Y314869D01*
X542960Y314886D01*
X542836Y314900D01*
X542711Y314909D01*
X542586Y314915D01*
X542461Y314917D01*
X542318Y314915D01*
X542176Y314909D01*
X542033Y314899D01*
X541891Y314886D01*
X541750Y314868D01*
X541608Y314847D01*
X541468Y314822D01*
X541328Y314793D01*
X541189Y314760D01*
X541051Y314723D01*
X540914Y314683D01*
X540779Y314639D01*
X540644Y314591D01*
X540511Y314539D01*
X540379Y314484D01*
X540249Y314425D01*
X540121Y314363D01*
X539994Y314297D01*
X539869Y314228D01*
X539746Y314156D01*
X539626Y314080D01*
X539507Y314001D01*
X539390Y313918D01*
X539276Y313833D01*
X539164Y313744D01*
X539055Y313653D01*
X538948Y313558D01*
X538843Y313461D01*
X538742Y313360D01*
X538643Y313257D01*
X538547Y313152D01*
X538454Y313043D01*
X538364Y312932D01*
X538277Y312819D01*
X538193Y312704D01*
X538113Y312586D01*
X538035Y312466D01*
X537961Y312344D01*
X537891Y312220D01*
X537823Y312094D01*
X537760Y311966D01*
X537699Y311837D01*
X537642Y311706D01*
X537589Y311574D01*
X537540Y311440D01*
X537494Y311305D01*
X545170Y307692D02*
X545264Y307784D01*
X545354Y307878D01*
X545442Y307975D01*
X545527Y308075D01*
X545609Y308177D01*
X545688Y308282D01*
X545763Y308389D01*
X545835Y308498D01*
X545904Y308609D01*
X545970Y308723D01*
X546032Y308838D01*
X546091Y308955D01*
X546146Y309074D01*
X546197Y309194D01*
X546245Y309316D01*
X546290Y309439D01*
X546330Y309563D01*
X546367Y309689D01*
X546400Y309816D01*
X546429Y309943D01*
X546455Y310072D01*
X546476Y310201D01*
X546494Y310331D01*
X546507Y310461D01*
X546517Y310591D01*
X546523Y310722D01*
X546525Y310853D01*
X545170Y307692D02*
X537494Y298661D01*
X546525Y298661D01*
X526304Y175315D02*
X526304Y159059D01*
X526304Y175315D02*
X530819Y175315D01*
X530952Y175313D01*
X531084Y175307D01*
X531216Y175297D01*
X531348Y175284D01*
X531480Y175266D01*
X531610Y175245D01*
X531741Y175220D01*
X531870Y175191D01*
X531998Y175158D01*
X532126Y175122D01*
X532252Y175082D01*
X532377Y175038D01*
X532501Y174990D01*
X532623Y174939D01*
X532744Y174884D01*
X532863Y174826D01*
X532981Y174764D01*
X533096Y174699D01*
X533210Y174630D01*
X533321Y174559D01*
X533430Y174483D01*
X533537Y174405D01*
X533642Y174324D01*
X533744Y174239D01*
X533844Y174152D01*
X533941Y174062D01*
X534036Y173969D01*
X534127Y173873D01*
X534216Y173775D01*
X534302Y173674D01*
X534385Y173570D01*
X534465Y173464D01*
X534541Y173356D01*
X534615Y173246D01*
X534685Y173133D01*
X534752Y173019D01*
X534815Y172902D01*
X534875Y172784D01*
X534932Y172664D01*
X534985Y172542D01*
X535034Y172419D01*
X535080Y172295D01*
X535122Y172169D01*
X535160Y172042D01*
X535195Y171914D01*
X535226Y171785D01*
X535253Y171656D01*
X535276Y171525D01*
X535296Y171394D01*
X535311Y171262D01*
X535323Y171130D01*
X535331Y170998D01*
X535335Y170865D01*
X535335Y170733D01*
X535331Y170600D01*
X535323Y170468D01*
X535311Y170336D01*
X535296Y170204D01*
X535276Y170073D01*
X535253Y169942D01*
X535226Y169813D01*
X535195Y169684D01*
X535160Y169556D01*
X535122Y169429D01*
X535080Y169303D01*
X535034Y169179D01*
X534985Y169056D01*
X534932Y168934D01*
X534875Y168814D01*
X534815Y168696D01*
X534752Y168579D01*
X534685Y168465D01*
X534615Y168352D01*
X534541Y168242D01*
X534465Y168134D01*
X534385Y168028D01*
X534302Y167924D01*
X534216Y167823D01*
X534127Y167725D01*
X534036Y167629D01*
X533941Y167536D01*
X533844Y167446D01*
X533744Y167359D01*
X533642Y167274D01*
X533537Y167193D01*
X533430Y167115D01*
X533321Y167039D01*
X533210Y166968D01*
X533096Y166899D01*
X532981Y166834D01*
X532863Y166772D01*
X532744Y166714D01*
X532623Y166659D01*
X532501Y166608D01*
X532377Y166560D01*
X532252Y166516D01*
X532126Y166476D01*
X531998Y166440D01*
X531870Y166407D01*
X531741Y166378D01*
X531610Y166353D01*
X531480Y166332D01*
X531348Y166314D01*
X531216Y166301D01*
X531084Y166291D01*
X530952Y166285D01*
X530819Y166283D01*
X526304Y166283D01*
X531723Y166283D02*
X535335Y159059D01*
X541844Y159059D02*
X546359Y159059D01*
X546359Y159058D02*
X546492Y159060D01*
X546624Y159066D01*
X546756Y159076D01*
X546888Y159089D01*
X547020Y159107D01*
X547150Y159128D01*
X547281Y159153D01*
X547410Y159182D01*
X547538Y159215D01*
X547666Y159251D01*
X547792Y159291D01*
X547917Y159335D01*
X548041Y159383D01*
X548163Y159434D01*
X548284Y159489D01*
X548403Y159547D01*
X548521Y159609D01*
X548636Y159674D01*
X548750Y159743D01*
X548861Y159814D01*
X548970Y159890D01*
X549077Y159968D01*
X549182Y160049D01*
X549284Y160134D01*
X549384Y160221D01*
X549481Y160311D01*
X549576Y160404D01*
X549667Y160500D01*
X549756Y160598D01*
X549842Y160699D01*
X549925Y160803D01*
X550005Y160909D01*
X550081Y161017D01*
X550155Y161127D01*
X550225Y161240D01*
X550292Y161354D01*
X550355Y161471D01*
X550415Y161589D01*
X550472Y161709D01*
X550525Y161831D01*
X550574Y161954D01*
X550620Y162078D01*
X550662Y162204D01*
X550700Y162331D01*
X550735Y162459D01*
X550766Y162588D01*
X550793Y162717D01*
X550816Y162848D01*
X550836Y162979D01*
X550851Y163111D01*
X550863Y163243D01*
X550871Y163375D01*
X550875Y163508D01*
X550875Y163640D01*
X550871Y163773D01*
X550863Y163905D01*
X550851Y164037D01*
X550836Y164169D01*
X550816Y164300D01*
X550793Y164431D01*
X550766Y164560D01*
X550735Y164689D01*
X550700Y164817D01*
X550662Y164944D01*
X550620Y165070D01*
X550574Y165194D01*
X550525Y165317D01*
X550472Y165439D01*
X550415Y165559D01*
X550355Y165677D01*
X550292Y165794D01*
X550225Y165908D01*
X550155Y166021D01*
X550081Y166131D01*
X550005Y166239D01*
X549925Y166345D01*
X549842Y166449D01*
X549756Y166550D01*
X549667Y166648D01*
X549576Y166744D01*
X549481Y166837D01*
X549384Y166927D01*
X549284Y167014D01*
X549182Y167099D01*
X549077Y167180D01*
X548970Y167258D01*
X548861Y167334D01*
X548750Y167405D01*
X548636Y167474D01*
X548521Y167539D01*
X548403Y167601D01*
X548284Y167659D01*
X548163Y167714D01*
X548041Y167765D01*
X547917Y167813D01*
X547792Y167857D01*
X547666Y167897D01*
X547538Y167933D01*
X547410Y167966D01*
X547281Y167995D01*
X547150Y168020D01*
X547020Y168041D01*
X546888Y168059D01*
X546756Y168072D01*
X546624Y168082D01*
X546492Y168088D01*
X546359Y168090D01*
X547262Y175315D02*
X541844Y175315D01*
X547262Y175314D02*
X547381Y175312D01*
X547501Y175306D01*
X547620Y175296D01*
X547738Y175282D01*
X547857Y175265D01*
X547974Y175243D01*
X548091Y175218D01*
X548206Y175188D01*
X548321Y175155D01*
X548435Y175118D01*
X548547Y175078D01*
X548658Y175033D01*
X548767Y174985D01*
X548875Y174934D01*
X548981Y174879D01*
X549085Y174820D01*
X549187Y174758D01*
X549287Y174693D01*
X549385Y174624D01*
X549481Y174552D01*
X549574Y174477D01*
X549664Y174400D01*
X549752Y174319D01*
X549837Y174235D01*
X549919Y174148D01*
X549999Y174059D01*
X550075Y173967D01*
X550149Y173873D01*
X550219Y173776D01*
X550286Y173678D01*
X550350Y173577D01*
X550410Y173473D01*
X550467Y173368D01*
X550520Y173261D01*
X550570Y173153D01*
X550616Y173043D01*
X550658Y172931D01*
X550697Y172818D01*
X550732Y172704D01*
X550763Y172589D01*
X550791Y172472D01*
X550814Y172355D01*
X550834Y172238D01*
X550850Y172119D01*
X550862Y172000D01*
X550870Y171881D01*
X550874Y171762D01*
X550874Y171642D01*
X550870Y171523D01*
X550862Y171404D01*
X550850Y171285D01*
X550834Y171166D01*
X550814Y171049D01*
X550791Y170932D01*
X550763Y170815D01*
X550732Y170700D01*
X550697Y170586D01*
X550658Y170473D01*
X550616Y170361D01*
X550570Y170251D01*
X550520Y170143D01*
X550467Y170036D01*
X550410Y169931D01*
X550350Y169827D01*
X550286Y169726D01*
X550219Y169628D01*
X550149Y169531D01*
X550075Y169437D01*
X549999Y169345D01*
X549919Y169256D01*
X549837Y169169D01*
X549752Y169085D01*
X549664Y169004D01*
X549574Y168927D01*
X549481Y168852D01*
X549385Y168780D01*
X549287Y168711D01*
X549187Y168646D01*
X549085Y168584D01*
X548981Y168525D01*
X548875Y168470D01*
X548767Y168419D01*
X548658Y168371D01*
X548547Y168326D01*
X548435Y168286D01*
X548321Y168249D01*
X548206Y168216D01*
X548091Y168186D01*
X547974Y168161D01*
X547857Y168139D01*
X547738Y168122D01*
X547620Y168108D01*
X547501Y168098D01*
X547381Y168092D01*
X547262Y168090D01*
X543650Y168090D01*
X393504Y390000D02*
X383344Y390000D01*
X380804Y390000D01*
X383344Y390000D02*
X383344Y396350D01*
X383344Y390000D02*
X383344Y383650D01*
X383344Y390000D02*
X390964Y396350D01*
X390964Y395080D02*
X383344Y390000D01*
X390964Y393810D01*
X390964Y392540D02*
X383344Y390000D01*
X390964Y391270D01*
X390964Y383650D02*
X383344Y390000D01*
X390964Y384920D01*
X390964Y386190D02*
X383344Y390000D01*
X390964Y387460D01*
X390964Y388730D02*
X383344Y390000D01*
X390964Y396350D02*
X390964Y383650D01*
X397314Y374760D02*
X452686Y374760D01*
X452686Y378316D01*
X452686Y405240D02*
X397314Y405240D01*
X397314Y401684D01*
X397314Y378316D02*
X397314Y374760D01*
X452686Y401684D02*
X452686Y405240D01*
X393504Y290000D02*
X383344Y290000D01*
X380804Y290000D01*
X383344Y290000D02*
X383344Y296350D01*
X383344Y290000D02*
X383344Y283650D01*
X383344Y290000D02*
X390964Y296350D01*
X390964Y295080D02*
X383344Y290000D01*
X390964Y293810D01*
X390964Y292540D02*
X383344Y290000D01*
X390964Y291270D01*
X390964Y283650D02*
X383344Y290000D01*
X390964Y284920D01*
X390964Y286190D02*
X383344Y290000D01*
X390964Y287460D01*
X390964Y288730D02*
X383344Y290000D01*
X390964Y296350D02*
X390964Y283650D01*
X397314Y274760D02*
X452686Y274760D01*
X452686Y278316D01*
X452686Y305240D02*
X397314Y305240D01*
X397314Y301684D01*
X397314Y278316D02*
X397314Y274760D01*
X452686Y301684D02*
X452686Y305240D01*
X393504Y175000D02*
X383344Y175000D01*
X380804Y175000D01*
X383344Y175000D02*
X383344Y181350D01*
X383344Y175000D02*
X383344Y168650D01*
X383344Y175000D02*
X390964Y181350D01*
X390964Y180080D02*
X383344Y175000D01*
X390964Y178810D01*
X390964Y177540D02*
X383344Y175000D01*
X390964Y176270D01*
X390964Y168650D02*
X383344Y175000D01*
X390964Y169920D01*
X390964Y171190D02*
X383344Y175000D01*
X390964Y172460D01*
X390964Y173730D02*
X383344Y175000D01*
X390964Y181350D02*
X390964Y168650D01*
X397314Y159760D02*
X452686Y159760D01*
X452686Y163316D01*
X452686Y190240D02*
X397314Y190240D01*
X397314Y186684D01*
X397314Y163316D02*
X397314Y159760D01*
X452686Y186684D02*
X452686Y190240D01*
X276820Y390000D02*
X276833Y391060D01*
X276872Y392119D01*
X276937Y393177D01*
X277028Y394232D01*
X277145Y395286D01*
X277287Y396336D01*
X277456Y397382D01*
X277650Y398424D01*
X277869Y399461D01*
X278114Y400492D01*
X278384Y401517D01*
X278679Y402534D01*
X278999Y403545D01*
X279344Y404547D01*
X279713Y405540D01*
X280107Y406524D01*
X280524Y407498D01*
X280966Y408462D01*
X281431Y409414D01*
X281919Y410355D01*
X282430Y411283D01*
X282963Y412199D01*
X283519Y413101D01*
X284097Y413990D01*
X284697Y414863D01*
X285317Y415722D01*
X285959Y416566D01*
X286621Y417393D01*
X287304Y418204D01*
X288006Y418998D01*
X288727Y419774D01*
X289467Y420533D01*
X290226Y421273D01*
X291002Y421994D01*
X291796Y422696D01*
X292607Y423379D01*
X293434Y424041D01*
X294278Y424683D01*
X295137Y425303D01*
X296010Y425903D01*
X296899Y426481D01*
X297801Y427037D01*
X298717Y427570D01*
X299645Y428081D01*
X300586Y428569D01*
X301538Y429034D01*
X302502Y429476D01*
X303476Y429893D01*
X304460Y430287D01*
X305453Y430656D01*
X306455Y431001D01*
X307466Y431321D01*
X308483Y431616D01*
X309508Y431886D01*
X310539Y432131D01*
X311576Y432350D01*
X312618Y432544D01*
X313664Y432713D01*
X314714Y432855D01*
X315768Y432972D01*
X316823Y433063D01*
X317881Y433128D01*
X318940Y433167D01*
X320000Y433180D01*
X321060Y433167D01*
X322119Y433128D01*
X323177Y433063D01*
X324232Y432972D01*
X325286Y432855D01*
X326336Y432713D01*
X327382Y432544D01*
X328424Y432350D01*
X329461Y432131D01*
X330492Y431886D01*
X331517Y431616D01*
X332534Y431321D01*
X333545Y431001D01*
X334547Y430656D01*
X335540Y430287D01*
X336524Y429893D01*
X337498Y429476D01*
X338462Y429034D01*
X339414Y428569D01*
X340355Y428081D01*
X341283Y427570D01*
X342199Y427037D01*
X343101Y426481D01*
X343990Y425903D01*
X344863Y425303D01*
X345722Y424683D01*
X346566Y424041D01*
X347393Y423379D01*
X348204Y422696D01*
X348998Y421994D01*
X349774Y421273D01*
X350533Y420533D01*
X351273Y419774D01*
X351994Y418998D01*
X352696Y418204D01*
X353379Y417393D01*
X354041Y416566D01*
X354683Y415722D01*
X355303Y414863D01*
X355903Y413990D01*
X356481Y413101D01*
X357037Y412199D01*
X357570Y411283D01*
X358081Y410355D01*
X358569Y409414D01*
X359034Y408462D01*
X359476Y407498D01*
X359893Y406524D01*
X360287Y405540D01*
X360656Y404547D01*
X361001Y403545D01*
X361321Y402534D01*
X361616Y401517D01*
X361886Y400492D01*
X362131Y399461D01*
X362350Y398424D01*
X362544Y397382D01*
X362713Y396336D01*
X362855Y395286D01*
X362972Y394232D01*
X363063Y393177D01*
X363128Y392119D01*
X363167Y391060D01*
X363180Y390000D01*
X363167Y388940D01*
X363128Y387881D01*
X363063Y386823D01*
X362972Y385768D01*
X362855Y384714D01*
X362713Y383664D01*
X362544Y382618D01*
X362350Y381576D01*
X362131Y380539D01*
X361886Y379508D01*
X361616Y378483D01*
X361321Y377466D01*
X361001Y376455D01*
X360656Y375453D01*
X360287Y374460D01*
X359893Y373476D01*
X359476Y372502D01*
X359034Y371538D01*
X358569Y370586D01*
X358081Y369645D01*
X357570Y368717D01*
X357037Y367801D01*
X356481Y366899D01*
X355903Y366010D01*
X355303Y365137D01*
X354683Y364278D01*
X354041Y363434D01*
X353379Y362607D01*
X352696Y361796D01*
X351994Y361002D01*
X351273Y360226D01*
X350533Y359467D01*
X349774Y358727D01*
X348998Y358006D01*
X348204Y357304D01*
X347393Y356621D01*
X346566Y355959D01*
X345722Y355317D01*
X344863Y354697D01*
X343990Y354097D01*
X343101Y353519D01*
X342199Y352963D01*
X341283Y352430D01*
X340355Y351919D01*
X339414Y351431D01*
X338462Y350966D01*
X337498Y350524D01*
X336524Y350107D01*
X335540Y349713D01*
X334547Y349344D01*
X333545Y348999D01*
X332534Y348679D01*
X331517Y348384D01*
X330492Y348114D01*
X329461Y347869D01*
X328424Y347650D01*
X327382Y347456D01*
X326336Y347287D01*
X325286Y347145D01*
X324232Y347028D01*
X323177Y346937D01*
X322119Y346872D01*
X321060Y346833D01*
X320000Y346820D01*
X318940Y346833D01*
X317881Y346872D01*
X316823Y346937D01*
X315768Y347028D01*
X314714Y347145D01*
X313664Y347287D01*
X312618Y347456D01*
X311576Y347650D01*
X310539Y347869D01*
X309508Y348114D01*
X308483Y348384D01*
X307466Y348679D01*
X306455Y348999D01*
X305453Y349344D01*
X304460Y349713D01*
X303476Y350107D01*
X302502Y350524D01*
X301538Y350966D01*
X300586Y351431D01*
X299645Y351919D01*
X298717Y352430D01*
X297801Y352963D01*
X296899Y353519D01*
X296010Y354097D01*
X295137Y354697D01*
X294278Y355317D01*
X293434Y355959D01*
X292607Y356621D01*
X291796Y357304D01*
X291002Y358006D01*
X290226Y358727D01*
X289467Y359467D01*
X288727Y360226D01*
X288006Y361002D01*
X287304Y361796D01*
X286621Y362607D01*
X285959Y363434D01*
X285317Y364278D01*
X284697Y365137D01*
X284097Y366010D01*
X283519Y366899D01*
X282963Y367801D01*
X282430Y368717D01*
X281919Y369645D01*
X281431Y370586D01*
X280966Y371538D01*
X280524Y372502D01*
X280107Y373476D01*
X279713Y374460D01*
X279344Y375453D01*
X278999Y376455D01*
X278679Y377466D01*
X278384Y378483D01*
X278114Y379508D01*
X277869Y380539D01*
X277650Y381576D01*
X277456Y382618D01*
X277287Y383664D01*
X277145Y384714D01*
X277028Y385768D01*
X276937Y386823D01*
X276872Y387881D01*
X276833Y388940D01*
X276820Y390000D01*
D12*
X244689Y441689D02*
X244689Y457691D01*
X251801Y457691D01*
X251801Y450579D02*
X244689Y450579D01*
X257682Y454135D02*
X262127Y457691D01*
X262127Y441689D01*
X257682Y441689D02*
X266572Y441689D01*
D10*
X266820Y290000D02*
X266833Y291060D01*
X266872Y292119D01*
X266937Y293177D01*
X267028Y294232D01*
X267145Y295286D01*
X267287Y296336D01*
X267456Y297382D01*
X267650Y298424D01*
X267869Y299461D01*
X268114Y300492D01*
X268384Y301517D01*
X268679Y302534D01*
X268999Y303545D01*
X269344Y304547D01*
X269713Y305540D01*
X270107Y306524D01*
X270524Y307498D01*
X270966Y308462D01*
X271431Y309414D01*
X271919Y310355D01*
X272430Y311283D01*
X272963Y312199D01*
X273519Y313101D01*
X274097Y313990D01*
X274697Y314863D01*
X275317Y315722D01*
X275959Y316566D01*
X276621Y317393D01*
X277304Y318204D01*
X278006Y318998D01*
X278727Y319774D01*
X279467Y320533D01*
X280226Y321273D01*
X281002Y321994D01*
X281796Y322696D01*
X282607Y323379D01*
X283434Y324041D01*
X284278Y324683D01*
X285137Y325303D01*
X286010Y325903D01*
X286899Y326481D01*
X287801Y327037D01*
X288717Y327570D01*
X289645Y328081D01*
X290586Y328569D01*
X291538Y329034D01*
X292502Y329476D01*
X293476Y329893D01*
X294460Y330287D01*
X295453Y330656D01*
X296455Y331001D01*
X297466Y331321D01*
X298483Y331616D01*
X299508Y331886D01*
X300539Y332131D01*
X301576Y332350D01*
X302618Y332544D01*
X303664Y332713D01*
X304714Y332855D01*
X305768Y332972D01*
X306823Y333063D01*
X307881Y333128D01*
X308940Y333167D01*
X310000Y333180D01*
X311060Y333167D01*
X312119Y333128D01*
X313177Y333063D01*
X314232Y332972D01*
X315286Y332855D01*
X316336Y332713D01*
X317382Y332544D01*
X318424Y332350D01*
X319461Y332131D01*
X320492Y331886D01*
X321517Y331616D01*
X322534Y331321D01*
X323545Y331001D01*
X324547Y330656D01*
X325540Y330287D01*
X326524Y329893D01*
X327498Y329476D01*
X328462Y329034D01*
X329414Y328569D01*
X330355Y328081D01*
X331283Y327570D01*
X332199Y327037D01*
X333101Y326481D01*
X333990Y325903D01*
X334863Y325303D01*
X335722Y324683D01*
X336566Y324041D01*
X337393Y323379D01*
X338204Y322696D01*
X338998Y321994D01*
X339774Y321273D01*
X340533Y320533D01*
X341273Y319774D01*
X341994Y318998D01*
X342696Y318204D01*
X343379Y317393D01*
X344041Y316566D01*
X344683Y315722D01*
X345303Y314863D01*
X345903Y313990D01*
X346481Y313101D01*
X347037Y312199D01*
X347570Y311283D01*
X348081Y310355D01*
X348569Y309414D01*
X349034Y308462D01*
X349476Y307498D01*
X349893Y306524D01*
X350287Y305540D01*
X350656Y304547D01*
X351001Y303545D01*
X351321Y302534D01*
X351616Y301517D01*
X351886Y300492D01*
X352131Y299461D01*
X352350Y298424D01*
X352544Y297382D01*
X352713Y296336D01*
X352855Y295286D01*
X352972Y294232D01*
X353063Y293177D01*
X353128Y292119D01*
X353167Y291060D01*
X353180Y290000D01*
X353167Y288940D01*
X353128Y287881D01*
X353063Y286823D01*
X352972Y285768D01*
X352855Y284714D01*
X352713Y283664D01*
X352544Y282618D01*
X352350Y281576D01*
X352131Y280539D01*
X351886Y279508D01*
X351616Y278483D01*
X351321Y277466D01*
X351001Y276455D01*
X350656Y275453D01*
X350287Y274460D01*
X349893Y273476D01*
X349476Y272502D01*
X349034Y271538D01*
X348569Y270586D01*
X348081Y269645D01*
X347570Y268717D01*
X347037Y267801D01*
X346481Y266899D01*
X345903Y266010D01*
X345303Y265137D01*
X344683Y264278D01*
X344041Y263434D01*
X343379Y262607D01*
X342696Y261796D01*
X341994Y261002D01*
X341273Y260226D01*
X340533Y259467D01*
X339774Y258727D01*
X338998Y258006D01*
X338204Y257304D01*
X337393Y256621D01*
X336566Y255959D01*
X335722Y255317D01*
X334863Y254697D01*
X333990Y254097D01*
X333101Y253519D01*
X332199Y252963D01*
X331283Y252430D01*
X330355Y251919D01*
X329414Y251431D01*
X328462Y250966D01*
X327498Y250524D01*
X326524Y250107D01*
X325540Y249713D01*
X324547Y249344D01*
X323545Y248999D01*
X322534Y248679D01*
X321517Y248384D01*
X320492Y248114D01*
X319461Y247869D01*
X318424Y247650D01*
X317382Y247456D01*
X316336Y247287D01*
X315286Y247145D01*
X314232Y247028D01*
X313177Y246937D01*
X312119Y246872D01*
X311060Y246833D01*
X310000Y246820D01*
X308940Y246833D01*
X307881Y246872D01*
X306823Y246937D01*
X305768Y247028D01*
X304714Y247145D01*
X303664Y247287D01*
X302618Y247456D01*
X301576Y247650D01*
X300539Y247869D01*
X299508Y248114D01*
X298483Y248384D01*
X297466Y248679D01*
X296455Y248999D01*
X295453Y249344D01*
X294460Y249713D01*
X293476Y250107D01*
X292502Y250524D01*
X291538Y250966D01*
X290586Y251431D01*
X289645Y251919D01*
X288717Y252430D01*
X287801Y252963D01*
X286899Y253519D01*
X286010Y254097D01*
X285137Y254697D01*
X284278Y255317D01*
X283434Y255959D01*
X282607Y256621D01*
X281796Y257304D01*
X281002Y258006D01*
X280226Y258727D01*
X279467Y259467D01*
X278727Y260226D01*
X278006Y261002D01*
X277304Y261796D01*
X276621Y262607D01*
X275959Y263434D01*
X275317Y264278D01*
X274697Y265137D01*
X274097Y266010D01*
X273519Y266899D01*
X272963Y267801D01*
X272430Y268717D01*
X271919Y269645D01*
X271431Y270586D01*
X270966Y271538D01*
X270524Y272502D01*
X270107Y273476D01*
X269713Y274460D01*
X269344Y275453D01*
X268999Y276455D01*
X268679Y277466D01*
X268384Y278483D01*
X268114Y279508D01*
X267869Y280539D01*
X267650Y281576D01*
X267456Y282618D01*
X267287Y283664D01*
X267145Y284714D01*
X267028Y285768D01*
X266937Y286823D01*
X266872Y287881D01*
X266833Y288940D01*
X266820Y290000D01*
D12*
X234689Y316289D02*
X234689Y332291D01*
X241801Y332291D01*
X241801Y325179D02*
X234689Y325179D01*
X252572Y332292D02*
X252698Y332290D01*
X252823Y332284D01*
X252949Y332274D01*
X253073Y332260D01*
X253198Y332243D01*
X253322Y332221D01*
X253445Y332196D01*
X253567Y332166D01*
X253688Y332133D01*
X253808Y332096D01*
X253927Y332055D01*
X254045Y332011D01*
X254161Y331963D01*
X254276Y331911D01*
X254388Y331856D01*
X254499Y331797D01*
X254609Y331735D01*
X254716Y331669D01*
X254821Y331600D01*
X254924Y331528D01*
X255024Y331452D01*
X255122Y331374D01*
X255218Y331292D01*
X255311Y331208D01*
X255401Y331120D01*
X255489Y331030D01*
X255573Y330937D01*
X255655Y330841D01*
X255733Y330743D01*
X255809Y330643D01*
X255881Y330540D01*
X255950Y330435D01*
X256016Y330328D01*
X256078Y330218D01*
X256137Y330107D01*
X256192Y329995D01*
X256244Y329880D01*
X256292Y329764D01*
X256336Y329646D01*
X256377Y329527D01*
X256414Y329407D01*
X256447Y329286D01*
X256477Y329164D01*
X256502Y329041D01*
X256524Y328917D01*
X256541Y328792D01*
X256555Y328668D01*
X256565Y328542D01*
X256571Y328417D01*
X256573Y328291D01*
X252572Y332291D02*
X252431Y332289D01*
X252291Y332283D01*
X252151Y332274D01*
X252011Y332260D01*
X251872Y332243D01*
X251733Y332222D01*
X251594Y332197D01*
X251457Y332169D01*
X251320Y332136D01*
X251184Y332100D01*
X251049Y332060D01*
X250916Y332017D01*
X250783Y331970D01*
X250652Y331919D01*
X250523Y331865D01*
X250395Y331807D01*
X250268Y331746D01*
X250143Y331681D01*
X250021Y331613D01*
X249900Y331542D01*
X249780Y331467D01*
X249664Y331389D01*
X249549Y331308D01*
X249436Y331224D01*
X249326Y331136D01*
X249218Y331046D01*
X249113Y330953D01*
X249011Y330857D01*
X248911Y330758D01*
X248813Y330657D01*
X248719Y330553D01*
X248627Y330446D01*
X248539Y330337D01*
X248453Y330226D01*
X248371Y330112D01*
X248291Y329996D01*
X248215Y329878D01*
X248142Y329758D01*
X248073Y329636D01*
X248006Y329512D01*
X247943Y329386D01*
X247884Y329259D01*
X247828Y329130D01*
X247776Y329000D01*
X247727Y328868D01*
X247682Y328735D01*
X255238Y325179D02*
X255330Y325270D01*
X255420Y325363D01*
X255506Y325458D01*
X255590Y325556D01*
X255670Y325657D01*
X255748Y325760D01*
X255822Y325865D01*
X255893Y325973D01*
X255961Y326082D01*
X256025Y326194D01*
X256087Y326307D01*
X256144Y326422D01*
X256199Y326539D01*
X256250Y326658D01*
X256297Y326778D01*
X256340Y326899D01*
X256380Y327021D01*
X256416Y327145D01*
X256449Y327270D01*
X256478Y327395D01*
X256503Y327522D01*
X256524Y327649D01*
X256541Y327777D01*
X256555Y327905D01*
X256564Y328033D01*
X256570Y328162D01*
X256572Y328291D01*
X255239Y325179D02*
X247682Y316289D01*
X256572Y316289D01*
M02*
